<mxfile host="65bd71144e">
    <diagram id="kz5AcGV3wPuWw5m8k8vx" name="Page-1">
        <mxGraphModel dx="775" dy="600" grid="1" gridSize="10" guides="1" tooltips="1" connect="1" arrows="1" fold="1" page="1" pageScale="1" pageWidth="827" pageHeight="1169" math="0" shadow="0">
            <root>
                <mxCell id="0"/>
                <mxCell id="1" parent="0"/>
                <mxCell id="3" value="Street Fighter" style="swimlane;" vertex="1" parent="1">
                    <mxGeometry x="30" y="50" width="681.36" height="430" as="geometry"/>
                </mxCell>
                <mxCell id="7" value="" style="shape=image;verticalLabelPosition=bottom;labelBackgroundColor=default;verticalAlign=top;aspect=fixed;imageAspect=0;image=data:image/png,iVBORw0KGgoAAAANSUhEUgAAAo4AAADvCAYAAAB8OVU2AAAAAXNSR0IArs4c6QAAIABJREFUeF7svYl15LiyNFxtQj0T9JlQ14QaEzQmaExQm9AyoWXCkwm/TLgy4ckFmTD/iQQCCCYTIFiLlhZrzpwuFUksSSyByO3H8fb23537vL682i+H483u9eVtdzju7e+X5/Qdf+Vb7Pd9umz/vr3Vv/H9kK/heir1cp/X193u7fXNCjwe9zt8QxvxHe073OzsN9x3vNntbm93u//8delWXK4/W0mbBDYJbBLYJLBJYJPAJoHPLIEfS8AR4A/gDICRQI3ATEGj7yRB5FrgmDHqTGbPCR9OPmgbgC2BI/59zsAx40kDs2g3QCTaAvD4P//ZwONnHpRb2zYJbBLYJLBJYJPAJoHPKYGTgSO6E7GOCiY944hrLch2k+VzIwxlJDIPIMEw4kMmFMDRfwdwvLnZ7QBKN+D4OQfi1qpNApsENglsEtgksEng80sgBI4G8F5edzeHm8TYOXU1GEcCR6qpfVf5+wh4VNAIppDgUb+z/BZwvDns7TmAWdSN7woi8fumrv78A3Jr4SaBTQKbBDYJbBLYJPB5JdAFjonJm9s5KnBk1xRARraOVpZjE8k+RsCRoHEJPHo7R9wPoEt1OkHkBhw/7yDcWrZJYJPAJoFNApsENgl8DQkMAcclO0d0NXKQUUcZ3IO/9cNnCBxxDUzhGtbR2zmqg4wHkbBzvNscZL7GyNxauUlgk8AmgU0CmwQ2CXw6CZwFHNEbqoY9SCSYjH73UlDgqNd69o6qsqadI5lQOsigLH6nl/XmIPPpxuDWoE0CmwQ2CWwS2CSwSeCLSKAJHNF+2DlCVZ2+T8PyeHW1ZxwjZrElE4bL4XWyjmQgo+ci4LjkIIM2Ajje322e1V9kfG7N3CSwSWCTwCaBTQKbBD6RBBaB44iDDPsTgceW84yXAcAjPhmnFpV1Czz2gCPYRYQQUjtHhuXZHGQ+0ejbmrJJYJPAJoFNApsENgl8KQksAkf0Bqzjkp2jd4jBc9Fv4C9bIXloA6m2kAokVbIKHHuBwL2d4wYcv9T43Bq7SWCTwCaBTQKbBDYJfCIJnA0c0RfGc+x5VrPPqpbuheFWEAmw5+0dFTi2AoFrxhvNJrM5yHyiEbg1ZZPAJoFNApsENglsEvgyEhgCjmvU1WQavQQIKhmM2zvERCAS90QOMk85VqPWEQUCZ2zHzUHmy4zHraGbBDYJbBLYJLBJYJPAJ5ZAFzii3Zq3WtXVzAndYhwJIOlVrd7VLfDo5dTyqu4BRw0EjvIQgsenIbzNeau31IOfeGRuTdsksElgk8AmgatJ4P7+bvf49LR7e3vb3d/d7R4eHq9W11bwnyWBk4Gj5q1W8NhjHD14xL1IBYi44D7ToMZz1LiOEWg0gJsdYvAdamlv28h6tkDgf9YA3nqzSWCTwCaBTQLrJEDQyKdubm52d7e3u9fX1w1ArhPlt7x7GDh6dXULOHov6shBRiVtLKYEBlcgqWF5nrN6uuWlvRQI3FIf3iR7zC0Q+Lcc61unNwlsEtgksElgt9sROO73e2Mc8TnkFMPHwwYgt0HSl8DJwNFYxucU8kYZxwjYETySjWwFBfcg0jcdoLL3iQKBRw4yKAfNvr3d4jluE2STwCaBTQKbBL6PBAAaX15edq/C2AA8JtbxZvecvV03APl9xsTani4CRxTYsnOMWEdlGAkio1SD3vZxJMPMUufYHg0E7h1kCHLvDggztNv956+eb/dSjWuuA2CTWu19X1Mm70W5LNOX3bsnaof+dkpbvsIzKiu018vvnD6wrNZ7iMrW+lvv8pw2bc9uEtgksEkgSQDA8fnlxZhGMo5kHe/uDrub/d5MyB5hFwbTr42BvMDQ+bP2/0XgCPD3Aj3xQjxHAjL8W3JQ57zT/K0HFjNxudMwO2vflqqrb4/73ctbyniD70/Pbzt1nKnxHF0C7VWVjjzrgVgLrK2q+BPfPCKTXvM9qLs0sBsR3RIIHynD36NyaQHVUdmpRXAENL3F8Cnt7R04zilve3aTwCaBy0ogmu/tA6iqqSPgiLYRPOI7ACTAIz7VBvKSa8xlpfF+pY2s13/m/r8IHHHyeM4nD59+ECLRvNCM50igiPR+AG/ezpEMJH4nYMQzS6AR9y7dE6mrPYgEDka/oPlO6Qd1klnrB8feyMBheafWMdiUT3HbqDzObWwP2FHOjTp0MF6C5j63KzN8SRlGsox+87LwY3eJQX6vd3ZpQW3lbRL40yXAuXyJvaOWMQIcX5F57XBj+yQ/KbvbQQDkc77U06QtrT8sfY2GZrZo5h/O0aCdUv/o2nkNIuJjx/4QcMSAaeWtVnW1DwQO4IiPB4/crxU00ltar3mQOAIy2Z79zb6E4gFwxJgHqOR3BiKHneN//pKXsGSQqbTpqe/O1xGVs4QHTq17dKyvLd/bI6x9/pT7PQg0jL5P3lajuS4jXD96bnBtHsGkPOHrv62uqypJ7yminpCY+Y+o36vejQLv1mDxG8Xo5nDKS96e2STwJ0vAg8Pr9/X+/nb39JxAn2ccj0zVJs24udlPGEimB6aNJEDm0+OFNpb32H97In6P+v+A/b8LHNE//E/GkZ7VGs+xxTriOXhF4zqtCJVpxLvzQDAClAoe9X48H7GP3rsajKjaPNJZRjPYGOv4V26s3ze9VlCBxtIcz89G+IYYJ8SM4ummXm860fX3CIwo6MB1fGjHstRsXl+FNybIpmFy2Z2wlzE1XAJvLVmNykTvo1z5G9Q7WEz5L37H99GPGqtHz/h3qu8zMgMpZaw1m5y8eGVAe32J1O8X2kxGBbjqvvH3Mi32M/dplQC2mz+lBLypjv97tNEtcxjYOB6Lc4wHjvCs1vWfyxf/VRYyApB49unJNpt1h3fdV1tYOiI2da1aWvyXROdF7ZVXUf1Le5rjMnxzv+r+3wWOpKkJHNHJUXU13yHGIcGj39wiIOh/e3xJamV8/DX8FoFHqqupomYoHsR2TJt5CstDdTVYx79+IixBfY2Rer0FAG3MB/uQBxY6SJYAhQIQBSJLY/8jrkfMWAt0tkjC3gTyIBn3ss5r9rcH1LTeEfbQv/vW++W44PVT+0cQGoFZLz8C0JBMx5ywl8n/T23RRz63BBKXrpvEGh3YgORHvtmvX3dPtRRuKqd3WYoDsYg1os795FXtSQb+HQHIA1WK0OZBrQiSKC/8YCGfX/r4sXfYXbv/TtfjWm8Pv16y/u+2/w8BR6qqDbzd3tg+AqcTsnf4vReaR5lHZR1RLrybWx8FjS3gGIFHAkc4w+CFattok4lhTtYR7Xt4Sej0XJC2BAhPn/WXe9KDFi1ZAQsXFs/SJeBRtcKtlulkWqOiPbenHixFDOA5zOC57fvo533fddwPq8cLmGRvPhOAagFB97tf7SPtQunexC5gA5EfPYi/bP0Eij62XG/+BKzjZHFNwlhjpWP+B5ky5JxvER36ewQgbf0AQZQvAkR6AKmAlN91r/QH3ZHX68mD6KDvD/X6zLn1R238Lvt/EzhSTW2niGzjiO9kHEfV1WT7bGA7tTXqaIFHgEYOyB5ojIBjZOfIeJMAjmAiMU2ZRQZlQF3990MHxebT1KlqyJGJcOo9Huy1ADBOgbBXwb9Jtuk7/vVqzxEwGN0TgUzeN6LaZdtPlcV3eC4CvRGD6Q9BLVAImZWDgLcrGRLoZ2DjPFgUOxHtwwoSJ9bYbwByaEhsNzkJ9FjtgUHphnO0lq4W+dvr7nA4TGI6RuZMlXWs7ZySAqlmqLG5Z3Mf+PnwmjR7rfzBudHck97e2sGaowMv+xyRBavlsfDAZyUbPmL/bwJHZnABxkgMY413OKquxntQlXUBEBlAcmFuqTV7Kmr/jlVl7e0cyS5iXLfU1SPA8dIDcSvvfSQwovb3oMrblqaxnAD2kmo6UqP3QJtKIWJyeyYSsxCUHsNNClQjHdZ6jg2jQc4TX2Kkoluy59K26mrivhdaJP3umW/dbFomqLaG5IVpGu8uP11U+D0ZnCqbE0W6PfYJJeBBobc99IZ0jbEcDPfK/tV1KRLACNlxyMAOgcHxQZzHUmWuKAKQOr90LtEWEqF8TLN33O9us+NNz9b+4RH3JzJDVeGtFzsCOD/hoPjyTVoEjsCLbxlt8YWruprqYEjCq6s5kLh38dDBqaTkhg463h/ZNLYk7nNYq50jpqaGDSLriPpVXQ1bxyXW8cu/8U/QgRZjFoGrFkhrnTBHQKJt9RkA8nv6N1C/6zofya516rmanCOj96VGamO8hXcE1nrleX1uC+z1NsjeM0t1Rxutp2OmgBFjiCokrDNYh47HscD/j0/ZNEdAZHnlBcdGgDaS+dUGxVbwl5JAgx0nCpPLLXOfJYCI66eqTZdApGc7vR2kgkkAyIfHFztsIyuN/5Ac0jKfnl9tv7YMb4ebIQCJ9VxBp83zBZZT20IAmvaBhRR1X2qsXaexIXD0amoPHNd4V3MQqcrafnP9YV7q6N+lrlugb+fEpXaOKPNc1nEUkPQmtFcdtmzxTp3wS3LC9aV+9OwDe+V70BcaHisBI3u9v5f16GLS8lj2abP4bFPN2LO6HhGg3dNjkjyw+WysUwT8oo4vAcqOvWDP3j/ChU2D2SW7L08nVnaRYDECiod9DBpf8obx+nJj6wm1LbQFS5tK8PrZ3xmi9HL9bGNheMBvN54lgRa7ngt1DLkCr/Q9zbVTHQJ17VzbDQWRzwjh49hHbV/LFhLT4uXlddcK9YMyuOcRSP7zM4FNgsdeuzXW5PPL22rQWfeMND8vAUBfXuv62HJQ/Mr7fwgc+SJoK+gFi7+9kwzEpKFvfExHrqn09m9ZfBA4ss6RQ0OOTz5RSVFdzXiOKG+JdQTjiPquxToiByjtQNZO4I+639tPRM5DkS2dgr8Wk6h96jkltSZeNC5D4NgTngezPVUvQefwy1gCCi2E1VJfuYpHJsdwW0+7sWWQ32KKeweMtDvmdsxU7JSVbVXpJtlwVW2Hze7uNme7aoBE31uARgDGnCRr9+K0LBNMGLHMXmWyeWEHA0rfobzHYm/RGoM6H1pzI2Lil8pbw9SfNj/ip/yhzI3twPGlrqf9dizZkXuHkKW11dd2K+F6Hh4fC6hN01FtINN3/vT8/GL2lP7jnW0YMxIsJT74u2VOwrJ8nEkFnbzWk9qlWE9bvvLaAOwE5pRqd/QBe/9SyDWU8ZnU7639vwkczfkF/9MosKznaWU/xbtawWMLOJbBkNMVLu2NEdvIMry6mgzCkq3jf36up6qvyRJecsn6TGVFg9ImjmzMPZX0SF84kXtOO1pOyJT2KvKa35FG9e6JsGQHRy4tquc2J3p+rflAqw3eZCEClRMg6XfPHGeWm9btYW8q6BajuLthpotc0OvRviho9LaNE4YxpLHZqPyS9nnt6LKPSweKa7y1z1amPwgE6ghrsgdZOuGW+hQBzhbADKnwpQpOuB4cgLqlNHZKP/Eb6u06ZZZ23NqIUXtsrAOvzwjamD97gDwCxlofynt7fd3tlRqUPkfPILUhfvdAOF6PEkA9BXSiPKq0I9aTtpZL+3sEPlG2qt3veyFkpGOXAJ8o7poAdAYcW2xjWR7zgrhGXa2sxCXBI0Fj2jjmQ8qzjlgafGieKJMMwOr/+yfFdWxpNrlZ4d8Rh4mlgXfCCrQ9IhLoedyNCKqlBlpaRJta1pFK3T3RPInG9chiekL1zUeWPBYjr75z6p85o3gWMuOJZFKz33UBoweLbJgDjfgZbCOBo212qpaObR8a3bTYJFmvXVZOd68HNedI7D2ejYDeOBhpt9ADtsiUYg2b6Gvyz34UaG+ZfuTB3BRQlocwKCNrQs8BZfXhuLNOVVwApJIPZgIerR0RQ69lBkwlgGakFm+JiSDTUiQ/j4NOxQ5sxikA1INPlKtqd1ync1CrD5cCn5cCnmhnC3xOgCNtG1tsI0ESO+69q/E7gBkztdjf2ZxopsnJhdB7W5cLVVdHjGOONVo8pHusS89JpudhbZlk+OHXQQ3i7DAoNiprlvgWQOjZTNjLluwlG2CdS7wXuqanMuf477GXkTd2752Pemr7Mq7xXpfsX+smUTffszahkORpBAgVtTQX+7vjTcwwRmAxA8XCOnbYxjHQ2AKE8qb2hwXwqAuLvuGPAjdrVid/rwKjNYByBEB/FvB3inzWyGLw3iU1Ayel7l/XGFKT4Yto39jsqxkJAoqXJhQwWWWYcEZq2Kt4cadDl5Q1InZhJw10cpFwKvRWUZ71VACaiuq/G69yxzNrAei54PNSwJP7nL2X190OnvE+pFIBjj6ZuVdRT5a1/LKprqZKmwHBW8HA/Xj2BxGCSHtRUmEhHGicrmvzwlyLWEcIg6YaUUBw2jr+z3/85pB1Y74jQwNbUuq5++ugG1w45PklNmikads9sQR6gbK9wfmI7cqInE8BhC221TPhykIsAj6/0TQfWLupL9mV6Ryom1DaCBIJEbKMLWbRVr+jqaMPh8f0CgQ04k/1nC6g0VbPYMEZDj/k2r7EujQHR2vHvwYSWBqhLdZMf49Uzksn7hFG0ZfRUzkv9eMjr69kITjwz2qyHyutA4uvxL9X9/6LiiQDNVL0NNcw8FTBI9XPHogRMJHd8l7ard/L7pwBKMpfDThZiLCkPMyvBaAefJKIIwPq+z2TtlsycH0N+DwXeKb6Uqs8UP77n2dry6/7ZKdqwJE3c21DVpjehxsQ1dW2FudMMuh75CTj3k8pnmNvZF1VVI/+jQXUSCwoPgz8HTnJmBpb0hBa/moDjiOLXktaDSDo9d/2pvjCltN8thiv3qmo58HlQc8p4OWsdW17+OoS6LGJQw4rqqm0aaHM4KVBjLL9nBgN0NgDjCpVZRwbbGPNpOGcdNa8nYAZpbjWFGP3lhOzyjekaU9IDr+6NdsDqyTgJ8wMJsgPS3vMqorf+eb9bn+D2LbZJyKHOVNLjXJgLVN5ui96h50EXPJ+OIu/Um3gm/fkC5G2soTdcfeY9hHmKbua9WatIPe5rUuEcK9cluFt7wCKFYRHZZRwhwHsGHXMhTMxPh4DgHUE2cZc5j/u7m//5cJG5nBEYBwMkboaz0esI8tVwSqG4l6koDCyM2Q5jPMY5avGPbiOa8o6Wo7OTMF6JxmMHcZ1rKzjpTfFSLptZiV6iT4905J6deR9XuIeDraWKvgSdWxlXE8CI84quiEUcOP3yOAQxEMNx0ixJ8r3ctG7OSx4Q7fU0PgdgJD/tsS0YPPIxzQ0D36jWQv/LYfs/EVtZNeGtOJaGptRetB47vt/j/Xs3DZuz38+Cegkr4wlgIYxaztkY8ug6w0avURd2ZrinGLeTA2dnjHskU9IOv6XwGZ0XfcfK78BPrl/9oCngs4m2HSOw4Z7ct9OfX/ngs8IeELe9vsAom2BT8tFvt8XTa0BR5oE9NTTXhAeOKq6mqwj0/xJ0pkwn2ZEwAH0WSy1zhtAnYwpGoFHBZZkHTX1YCsNoenzcxrCLuuoLyJS5UUvalFHWEc8GP+IRXwv9XTPFnDmwBDkSvX2fkt2IgTJI17Vp07M7bnTJNAbC0slerW+nxa6SE++ZxCp5dNj2lTPQagdAj5c4z1L9yIMDz8Mx7OkARmRh/fo137MCFvuy5MLfGIN2ItMB3oqx+3+qef2Jo+5J3t7ht8cpgDQ1m4Axxx6B0wZnUKIAzw4UXwwxxlTkNkDP6aqls8S+DTQyokuILMHQFsmSdUjOxXUAptsXg+MngM+zwWeCuiLrIuMKpVpquo1gLEsZbKytlIQRk4yehLQlxwxjwr8IuYRv2EQImF7WfhljdXMM4j1CHU64zqSXRxiHeEo48w7fD966uOerZnfTKJyeY9n9GyA5vewNh7X0mbfux557I2AQpSp7OimEj/nLXytZ6PDoZ/TLQBp4yYAkedKgIG+y2Lu8NkSeDy3fs5fnRORFz9Nx8oalHa8wHO79CRQXW/gsZodbeAwBocN0ypuSsEmfHOT2azMHBbgmFlGDZ4fzZfkDV3zXPOeFsjszTnLcufYTA80l64n0DenqyKA2eKFpnt6XlQ6qnffJ8Z67oHPawFPBY49gvLH4XA0VfUpHwpzbUxHjj/W6UEjfwcg5GbSUkcr68jncK9PV4jfTrV1RFzHKOROpCJ+LzZw6X2tcdbwzEjLM7gVv4+AcKlN2/VNAn4PUokUdbXsX5cEjGQWmRUmehtLYHHJ83wpfFNrBDQZSILE8uBXdQrZxv7nkEDAgHBSJtQw+USEzuQGqEEDVbV3eJnMc+ShvrnZIV0x9kvYzzFH9qkyQn0+ucYI+PT3GCBziGkEbNbpWU+fXgWvRAmv9dYg3lPUz/nmJSa11NOx9URR54DPiwDHKKYjGqaheSI6esTWMYGSJLEIPEasY2vwPTyll7qWdfz5OI94f+oAX/PcGvCX9pfcv31Nen/qRjbazh6YHC3jWvct2Zp5Feq12nFOuaOe3a2xEh142B6vkvmoQw/WAW/Ijr8vCRrZZwWP5bcG00iZdm0QWcgS4rT7ckXFG9GNjG4ZkVPM6MiK2MbRZ0sH85cG8Cj9U+TRA7neZm6NOn5t20fv7/WN788b9I6W/VH3LQBFNsub2RfQ0WEh87MvL88T55jAn6V0/pDsr3YwE9P1Bw6rI+ARgPNw2JuTBqbRz4dXYxk11/Qpkm4xn1rWEhAtGCdQ7dZlIrGZvCV0eOmsAx5wFntNcczh40sAUzFDcc7dpffi83wXc85c+EWAIxqwhnXE/ZGdExtXDOczaMTv2Ejo6OLVXqPgkepq1L/WwxppCDXQMcpYYh9GB3Ck+h19dvQ+HcsjZpaj5ep96jgxYIe7qopRVfiqQi94cw909YKTr/ZoXgIo1eJ7EhBgekibHyx6orgUoGzZNs5Ao1NLe1vGJdvFXl9oA8l7PJBccn5phTSa4KaJP0txja7qY+x4zXtOGZTVWWFGGZ1S3Jd+pgVWW8DPASs/SIudwFcTyki/cp90zfA/iTxaB20AxyTdZN/YAo54Hv8xjSA9dLE+wlwOwOvlNaUajD4AnZqCEM/jWZigATguqcVRJoHnbXaOeHx83T09t+tc9dYz84p+AtzyswQ4ozo80Ub1eXlVEvLIP99iSPk77o8Ap5azBD7PAo42WGhjd7ipp47XGgRcQ9/0WEfKWa0LaLKuG0uLdURbvL2jCgJOQRjTVFevZR3/+lkHQudAsWqcLd28hBFmm5U/DLfMmpYqvsZ1TzCcUcelQenappwatHs6MRHCogI4nUvzhaAetGYqzfRgx94tn9KEOIjsDdfIoMUytwBmOQjmNgx7UK9pFO9Vr2l6WdtKmdIL4rOUYnBJPpN5GQJAeymdEDmZYuUtgXfmKV0Pn1nSNXbGxWxYjZCePcLRP79MZrXNEtnZSxOVgR1fWmf1AHCxt3OBghbYZH+a9+9n0rcpo7OUIu/h6aX6TzjAd3d7yFmYkuwAVKjSJvjDHkzW8SWDg8cGiFsCnXg9TxpEPJCssp3HQ0pnCG9h1P34NA4elfVENYjTiHA3ZxNADeAZDZIRMDpTwzfmyqgqXu+7GHBE507NJIONRIc/wKPPFs3NBrnPbQAGi06LedR81riHcSrXso6TbDLosD/oX3oRixAEf2sZhl5gKfp0RSzt5JdscGczW9qDL9GMiA3WtX+4DozFcLMTnRQrW9LQBR7zNvwDk4jR9vlFNjokwWYJzmv3t5JjeiRuYwAYn56Pu9vj8w7/EqdxYcWiX2Rc8MF1J/PNMdlNfwgeuYTmujEm6vKUDkUcJwmf1MOSxyuFgXVA1o+zqBw/5ryNdhMAU5U1Ae587wOTYjgY/OisuNZ97UXt/r4eqKLavSr15iYBrOcc69k71jIOIO5RUDhxXAFzaKYo48DRuEo4wt4kgopsJeohY9kCnWwLygATSMCK7wSOS2wnZROBT+ajHlWZA1RT1f70tA60njJCMB9OYUF74PRs4MiJbC8nYB3xeyumo2ciFIu1BIRwGRqwPNIsKPOooJFlLrGOWGjobY3viP2IuI7/+avDw5/yRq/yTMtj0FfW6st1N8x+ly+0o50i1wiILwHWUzWEfm86pb3RM4q+oonRPGz03rlkS6qoYF77Ka/Os3WiMsNXAEebe8cMHEdAI1uWwePLy13KGPN6NNBI8Ih1JAHGBHBmAI5oQ3sa7L/vwX6PAvTR6A3e7KP13CXMQ6JoD+8ZTWEkNml5xSGAvNTk/AzlTMEwQOPDw8/d/a+73c1+CiAJENFqOK9EHz8dehoyc0h7rY40lhFFgCPeE7ST5ZMLK3bGuzcDP/t9OkwSeMEBGniAqfFaqu6kIk90FJ4HeESYIIx9gDfr54DK+nBzKLEMoe5W1nIJfLINbD+A6yOYMK17cPtFuCPYiYI5xQe2niM2oueOQoLQiwJHeylY6TuZZHBNVdZM/Vf2pE7PTNUswBG30ntaYz76ARwt7j0Pa9ShgcLxHWAU4PF//rOwyVr7e3Y24Y7fMAxZKqcFEgdH37mj6Ms839OfndiJayKGnrrsGkzz2r50VeM9FW1L1k6FADYCC/thv55ttMUnBwLn91wt7RuRYvDlNW1EsIuapMVVUJ+fW8s0nwK4rgmmTjkTnTgr3v2x1lCM7Iq7jCdb3jUb+Mrr6hTm/f59Z0Du4TGl4fz969YOUkufydk0uHkmvvyA5WTJFjUEf9E+HbUB9+F5DxyhIvaf1uuzzCtZVQnA5bPj4dIScGT9UUYatqOnLtf2+76bjeZg8HCCV4BfqtwBQI09jcpww5agMznB7HZ//f209NrLdarpLwIcDSplSaxxksHL0pfQUw540KiqbJRBrQN7GNlC+ow0qrL22WSSPUYq19oJhxpjHVXGX3khGR4r240TQ4prss6ngK5zX8+IoVmrjku1V9TnGUPaAqVq6lG2UfNSZwD59PjLOgC20ds3GrZ0q3jLE/2a4C6ScOuMsBbnnztCPtvzPWar19YWmOSwkN54AAAgAElEQVQzpdzqQvrZun6R9vz+fW+gkQzV88vL7vZ2GjmkJ+Ou/BsXdY4l/Hazu7tNzi1lz34GuIzBK2/TOUjvanWQaQmoZWNp2CU75vBZM53LSxLqrQ5zNRg5cI62hYxpz7mHdpreqxw2lgb6QJsOLMct4Ij2L4FfOhiR7YUMqWrvtR1lo16gfzxzceA4EpoHjeDhhosjmccIPBI05gPDxP7Rp9WGs5R6YfuBpODRq6y9I89prONF5vZWyJeWQKS3VcC5HTjq6xXQiB8FOGIvO1VNbZ7XUFHvdjsAR5bzz+PRtAm0hefGVcJ56KuJzEGdQ9MlweSfDAgjEn0UAI6EJVtyTAjr4rueXfyz5yeA49PT0+75+Wl3f//LWEcAx0hG/jeV8wDGMaaQjCHmojq5ALxQ1QqbyQLggoYwnaGpe7PXMhk3tbdssaYFeOYDqTrmFK/unFZvsvVIWwg+1c6SZnOT9jf2LrKeqqbH80VVjkVpQajKWrIPbIPZS3bU7V72lCNAK9jbIeciAMhLAkdD7iewjrZX5ATpCdVOfU4UYJL5M+CZ57Y+Oykns5mtVISawzqxEftZDmt0B+2heryyjn/2wvKlMdvW+C8mgSlwZJpNLGr3d681reAo48jea97qm+ed2TrmNIT/PCQ1eLJJkrhqduJHqJxofgvwF1tMFfalgF8rr/dHv1gP/kaBH9o9Av50D9G+TupZWnrXNGpIoMqqDz3w6W+6v781tlGBI1MEzp3W2gLX8R6CTobnoUTEaxg/KWtH8IZyQnV1dkRSO8EIOFpOZfnMgnBn4GhYQ+zkyPqVR3PnqM00xxfk3RY7S1UVo95ip9lhXZN6ODv6wPlP7ByTzbV3C54OJ8s7nZ2L0ETaemLNoL1ky+JAgas+a4drBGEfCIdkrdlfkHHUSR+xjtgewOhFaQh7A5Aso4G4vMd40Bgt2L1c11EOa4bnUdZR1d+0exyzdfz0a8fWwE0Cn0QCczU1DbBPBo5i40jAaIvj89GCisPGEfP46SVtBLZptRxkipRaG+iCV9BqA8n6Wgo+zV6RZf8doXou9HaXwKIPku6r7TJ9TXR4TuNH7L5P8eSyHa4TYumcNr/vs8fjjYFGfo7H2wLsp3FK3Zj3L7Nj7MdsJyVgdSF6EmiinaOyZmTtCBxnbKfYOdIrO2IsZzmrd28WPxIfOMhQFe3rxt4fphsU73m1cyRjSgcZqsxb8SQ98AToU+BoavGF0FwsQ8EnGMcJcPRq2PyiPWOqwBfqaouH2TmYGWjNKqGLqaoVOPI0YYJ4SWCRn5aHdQaysxmk6y5Kwf8KHPkAFzj+DdwOGbTkgCYtsY4oi4CRdQK8Vg/r953wW20qAS7+ZTvNX5ZsEL3KONqF/QbRk/yfsZlcf2x1NmsaFGftA1RB+BTguJZtxMPeQcaxjg+PNe4sF/wJ2bjEbF1KYF5TX5iOdOFSLOalmhuVk+zAUhBm+9jC+14CXNuztSYjPcv7pbqjurjeUD7ecW+pzEtdn8ct3N9AXQ1PFO6cbm10gzFyAlNGzbcUsRKZoeUs4JiDiKuqG8oCsIYtxjINy7edBhH3wBFYJQJ9OpQJejWcEMP6kDVtqcsLcJSwQPDsJlOINracg1SWKmMNLcRyFuvPnukok+AVwNFMBRqgk/K7CnC0wrOUW6wjnU04JL2tY7RYcrxicFCVDQWTf6EqXABDBv2Optoa1hHPY6Coyvr+bsnD+lITfCtnWQIKIluAMgg8xwE0sjvrySSiYTxtrnYTZTf14Gm5Z5e9Yy3TEoHsluouGycOACGfk5qpBUuGmFOAYktQTmVdbnMBwfXxKC0hrveyyvjqfZB0DUuj9+rB+LLv+jql6dBnDUshb9K+0IlRrxgq+n5uV/x8ZYPCcn0DWsDuVEB5jQ6uExAAV2LYARKrM8rN4Si/15zNxtJl9epk7MofGr+x1RoAEwCUdE5MKlsfkgf3KPDxy27ai6u616urCf780m5ddZ7ZaueIcgE8l2wkt/qT/C/KOCpwxPc1HtYcbK09nAusqayzHSTBI5/hYAEriOkpWX9CEDnKOoLChg2kAVGJ64gNsB+eZ92E/p53DyzArd11tht5UOMX/bXAyb+Rr8IunqrLjDbNiMHFptKwxXGv06tbq7qmRlS4aiYZ9wo15SABIm8JonvMpuQIcOJDSa1VQdN3md9L6u0EwmNG0ofMiWQ2Uv4qWbfOQqsKOfHmRWY20n6c3mD1qC7q6v3NzKvaAFIv7ozrrg8ErpfZRcuuktXGBH8AjgRj6qSitol+f/esH9TV3kEm4gS8qhj1ejvHXkgilsmwPqou/271Xxw4KnhkTMd0sJmmIezZOs7ImjwKI+bRFqFgzvIl55SU5Q51ljmFdQTroOAxBQXfPpeVgKCPETaQlUfH0/nW/0fYKaVurQTCS/Z2AehTkUapBiOv4qVqKrCKR01rv1JmkgCQDi+az9rnso7AorfluUTWvy6rtpBp5bLz5+uX1iL1F3GWdJ1AIQKqS8HSl96lSnhkiYqCrkfgqvwWbSvNzo/tQS3QyDqjLDJdm7ug2mkM9XqDelfTM5phaQgc8e/MSUWERM/qyM4w8qyOwCN+UzvHmYOMV2UG9TN7TA84JhyUV2k5x/8p9V8VOBqidwHBKVBQygjEaYNFkB8mIT2Z/PJn19yP9KD3mCFiIU3dnHNWoxgFjni+FdcR95J1xFjYVNaX3JiWWEHWpbZBPUbtq7CCl5ThUlkLDKTufH2zJrNRqsBvevPIBrrUUgWNk++H5eDES2UbgHjJCQokPhuf40KvbBiB8SgYHmnDJe5RDOHbtqb8tc+qbKIQOL3g5yrLNW18r3vXyHTUS9wfrPxzU2eU3FPirRAons42qjc1ZQrHGMRxxAfAkUCxB9DjZs1RJMFimV/Zy9rbOfrymGXGv3eykBpWxpNM+NvwBFTx4oltuCOHBopU3bbHwzkEoWkCt+Ti5MOQQuLZ7MfNd6j/KsAxgcM0kGjrmBbtMdaRGwZPLxwczGltYNON06WFHc0h+0jWUYGjlZkv0MOa44fpB5NtRrJ1UtZxU1m/19K+1dOWQKDy94BQtM5J3TNVE0Ug6RoS94zi7O8LgUS23aukr8E2XkNOs40zsBOM1j07BOfQIR7o+TzOl2i3B4uHFSrOS9T/2cqIgFUEuMt9TaB4OkhsycR7VDOOI+4/HlMQ8CVWt+QgLzh3uhlHzxvwKgxcMuHAB04yIJC49jCkDb2bI+1j2odrlG59nukRe97RGlLH9xdlm0pd2ELfn63+3eVtHMvpQqQd2TqS4YtYR5QBsIZ3py+tFY6HdfYYjxHgqOCR7fLheQwMi6MMwOdyKsLPtrRt7fn6EujYhpZVeeqV6+MDniKDEYZq6RDXqjdiG6mePqWtS89ETjCXUFlH9UaqV3+fgj0608zB41vJr13XveTssDbVoTrsqFp3SW5pw093Lal0dSyMlFv3j3r3yJhbU/al7m2B8wkY6bKH2pLLg8RWPxU8KnBkLudJq5ZQZFCJsnPlsmLLPHbo4Yz2wDMZY9iH5GmNBwJH5n3mfVFIHO1CcZDJwJP5nhlSB8ATYWdaambWQzvH71r/1RjHNHmmrCP+pK0jroPhi2wdcY2xOXUhJ+Po1dN+8WotVsowSoQgC8ujA3SNyno8j/WllqutnE0CPQk0ACXpcsc6JhBwGvBY8x4IUsBGIU90j5Uy2yHRggM8RjaMvfrVztHWkxz8u/eMMpO67lDDMNLfEfBX15q08CyxgC1wNiGU5R22VMitVIq+X555Tm0c6f373dOSCZk9D4o9GPJjXoH3iINO1NNFjDVmijgvelbwaQXBxhEfphukcwzU1T4MTZiJx7ejwSwzZmIZ5xoUL68/tHOEAw6Ao8/A4tXF/n0rcKNnNeorGVyQicYF4zP84ZxzMK4ZksbS/iH93yuwSx88fvf63wU42sLdsXUkeGylIdQwGLkYc4iJKOTW0gXLJrVxVOBoA07mYi8VIdtSI8rvdncH9C+Vv3lZv9/mcdmavKOJbZeuitMW7Mu2c21pHdtQTxux6AgkKHPiUYTc78GMtpZexgoMlVFUcGjPaVgeCZ+zVgIj97e8rTnfl0LxjDCKI+2wewTczwLRBu9G1XmzVyPmCL7+zwYGl+TTYzeXApGbWHshgSj3pUasud5Eku+/jszyU0sAcO1SN5ajGzAthrsVyxEADxo8ZK1hkH86yDCQN+MxLnk3J1ObFMyb8RzxrHpmp1caq9H5PBlDZTx9SB/bCWTeqXe21o8++XiIf2r9VwWOabLOWUfbE3JInV42GTzqmUf+xveoIXm4MOgiwUnBuI6MI9kDjlSj41mfitBAZg7Po44ym8p6zYr6nvcSEJ5aZ+S8E+3uWo+CtVPr7T13iT4F1KOvsrvxtdrQ8K4ZcLrxwLIwjVeI68iMMg9Px939/c+5sDNQJaD0au0RIDnZs97edvf/+7+7t7eX3dvz425/vNs9PT7WWMsm6xFA4VB6MOy8xiUyUThVhUxBXRQoO49zXcdHZg+HqQePk+HrRbtID47UXKTRiXAw8k7X1HXavZFjTFRSK5Zj2rOn8Rz9GWYkliPKoQMKwRttFIEJCBzpYDJbknYptZ86yGhIH9xP1lCZJQVwPizPKGMJlnTi2e1iUTIQ+Heo/92AIxYvMIsEZcwmo39jIHqHJkknOQnAS+Cpg7fld6mgkacHMpA6MCOVdSsVIQY/QCXBY6yyXmKxPsei0l6KltrfepL9ip4/beE7/ynPvCmt4zcAqW1ph121Aakdk5dNBFA/enw0qERFD7MXc6qtVlBXtn8/Hm52v++eU03ngEiylijj9bgz0Hj7vAM4ZCYZMB3IXGPMhaYh5FnB/j3zvWAtvL3Z3by97p5ytxbHd2O4tFjDNWBxFASOqOEP+7fdy1tbr+0DoS9Nr9ZZZtSrOVS5BsIe1gbzRhV8OB5a68vim77KDd4pZlaJOakk5xjukfy+Jp5jWRoWjIUfn18meZ9VXeztFFW86int1cXqYGPp88gSyZwl8FNVuU8dCOAH5rDuCvP5riGFlLVkzuo/vf4fNzeHf9NAuZ4Ri2cdaUNIFTUYvBRBPp25cerg4MWgoXoav5Fh1MHEgOB80Xzl6BEcamATqR7atv9k1XU0SwkgqbJm2wBqPQPKNhsTmh1lksp6af5Hm4+nD6LFp1duBEx697fAy0i9HiC8J+MW9akHxIL7TxnvWkXUhEjFeC7ImNSzBDz99dm222BG1pZ7Dlu5MC/EsYdrANam3/dIF5Zn9gXAo9pAPj8nlZeFAcnT0g60zK6hWNGIQc7dFoCUgeL6o72H+Q7AI/YoD970PrXHG3GCiWJrtqTubQJb9y3Z/WGNhuyOd793jw//DGHrIpqGOr0HKi86raTTESD14LNbtw6JyTiJ1ic/fq69/s/TDKaNtga5i2I5RmMCoGwJMbTk5AOBg6kjcFQHGaa/02Dg2pYIOIJQYlidElooM/lojweemr3GM4Y9z+wWcGT7C3AUdfmfVL8Bx8g4fmSBWoJGet2Dx5fnV7N75OKgoXqWwKMPxdMDkWhDK7c1gF4rcsRIHutIZX1/27J1XEIdzSX7kwSsPrX9o/3ifacyVi0wOThKJ8Z5zs5sqYgIr7UwxSi9UwzdevJobUYjm5TtGNLRJfC4JIQLXQ+AI0oG63h3O3WSOanGzDauebYXQHxJZe3r0bX2cDzsXp+fyxoEpm6Np/OpIXd6zlAeIOpw9WeYwyGH/TkcdofDcff483GNWKf3ZhRyDpg8vfJ1JHIv6w3aEFodWGq/lYdb69BaMmBJCnPw6GM5agmjAcCbBGPenBX8MTQP7RwJ3mjnqA4uSQLTxZQAjOpqAD7NO92yk/TMpYbl8cC1Zeeo4E/rx/N08PkO9f/Y728MOOqHf0eeZmlirA/9UGI/IQ3XzX73+oKclUl9beDu+S29/Gz7qI4ynIyeWfSAkEwl7jf6WNhGTzBhAAA0alpCysCYh/yHZx1b4XkIdlnveSF6Lg3S/GLSAglcqJYWn9HrI+rh0bLe8T6lOiLVVNQU7rAcrOqxMNT0pQ1CZYkCl877/l2e8vxQwy97kwfw2f4Na8U94r3RwzpwnCGLGDVIwd+pDVava2qyeuxTBDAKG4g18PV1t7e19Ga3zyvO2yzFQW1tBBR7fVlkys7QuN8ed7vX/c3u5SnTpb4hfg7NvHbqA0tgkXeunlKNsEGnKBs4rSegiqDIDYLJn17GEyQ+wFifOljdc79/39kv9KjGd3pVR7Eco/42m+L7L0AvUjNrPEc60kTDh4xjWsmmsvJ2jtHzvbzTmreaDi7UhNrqmuM56nLOOjxwjVT5+rxv2+R5cfD5SvX/uL27M1U1OvPynAxuWmrrKG3SqIpbFzEEBUdYHvzmA4RDLcyJ7VXWaFuklta93V5KHmO4l1leWgPAg0eARob74TNL4XkY85HgcWrvyA38PcFgWWrdifWUVeiUU/JSPUsgyUZhLmREbb5UX3A92j16+kIPIK+lKzuhK3/cIw48KrBogkcKYdD7egRI+sDhLTmP5LjmszfH+93Ly2MBjabxcHm/dRj2YgVqe5pa0bLbBa0fZr/rs7e3+6TOv4FN3P3u4e+/Tx9+gbrnVFBXVjwXlmgp1JTaxY2o+FuZXybyb0nkqmtGpJlIa/eSR7UCxwNoZPeZH0DSBst35bsVxnGMxmEO5A25gzUst9BkpCEvn5EG2giMScMGeUyZqtiwQOz5wKL5zgH+7u6gAd3vAFgZz3HkVX7H+n/c3SfgiA+FyX8BJOFJ1bJvWavi9qyjgkcORLxwgkdlEPW02bJpnJxuMnjEcyO2Mhpc3C9ennVkXDcGKcd1OsrMc1lHQ8+DoejvshSevjAPPxnpWnsPLwG/a4DN4c5sN351CTRYx7RGdJjHVr8HwWRPbK1wPXhmFDgCND49/dy9vryYA04EGruzTkiXiBRfo7oexYyttdNsGs2h4n738POfabNPZTJ7lhNnjuklAtQXv2RX2k0VyM10mCK97voPu0WEwCHDGIkS6uo4u417mbrJdjIEGRik7lYqVLD5BAeZGxBFNXsMw+mgGh/Dufyd0wniHgV+9K5mdc8I5t2IVDDphh2C9juoygkcI89olZumL8TvVLfrPX9y/T9+/b4vwJGdVruGCExCuD5obW+iRcATTKPNrzwaeFLA3zoAACQjN/9Iba3zFN8BPDF2o0UyUl0TvKJl/pxC8NjLKAPwiedYbw3Rc+aqtz2+SeC7SWANeLSVe9Q9ORCkA5aejYyYR4BFOtSgRACpEQBJ8HjAhuaYxku/Yt0chzFMoxEelCb7rtcJ+/j0OA1r1FWVnwouLy2kVnnnKDx69s3v1X6pZwQ4arNmIXlcm/c3yPQC84r6mVkiDKSdpB0hgKOyhcQFpgV9TYG4tXyqem3a2ziEiRvMWKbmO+qg4sU+CauT61c7xVbeag9Ev2v9P/7v/37/q0wgvzOYJgQOIDmjo3EisJeadMNRuqKlOVJp5VdTWVO1DPvH25xY2hufE9zhXx0npiZ2J/Je/fQji4hsAD4NzWMDGf3NRpVL6QhVZX1/N+JhvSSp7fomgW8ogYZdXNIi7He3B2SdSDN4yeOacRvPkSIAZU99PQIcbf06HI39AfOIz+3xeE6zLvZsZKnR0q4CSKZgZPmTVdfwqPakwqKGVoFWhBJ6p/yR+9nGxYYEoozq7qmwtK5z0frSm+3p9eVlYr/qsY2lGheSh7/7ak4JzxN15fExjX/aOXrgBxIpslMsZNauxnMEslTwSUJKw+poG1re1WQdGcg7ymBTXvE3rt8YRwrLv1wFkbhGKluBpM5FAskRWxEbMJafMp0m4GUNsAibRABHBZKRLQVV0HrG0JA7LLcGGkhsoP5dQnC4jgM4qoMML0cqa4BJBZKqskYbN9ZxafXbrm8S6EggAI/8ifbVIYC0BeYEFhLsozx3CuBcChoONcjz8/Pu7RUbZw3BkpiXuY3ZueNjKebhaKxD3w6wrE857uXh9m73+DDgVX1pNs6rmTxw6wkvAp3nCvvTPr8wFzL7DQKIpM0pXSFg62F1sogEb+rdTDIJv0Fd3HNwKWeWDAYi1lKfb50b8LiZjlhIwGRvyfSDPeD6nes3G8e7zO71HF10caHtoQXqFDYyApE9NhJlIiRPYvNSeB5LC5jBY491xEvTvNf2t2McFSQW8EfHGQnF40EiyoFIot8969iyd6TKGosrPKzx+c9fp0zF7ZlNAt9cAgvMI6WD/NcI2VP+ZtzHssIPAkkHHifSF7U2ACJiQGINAEMBJmYJhN3d/y52jiwXqj+a/1ikiUPygL3kB0xgbzM/pa79Pjk44nN7d7d7ehiUb1TZKWygluPZPa/bXGL/lq6fIqBP8Ay8qRmPsGfn2AvJo91QMzY78nRMDlQDqLmfi7o3P2t2jrsE2KAu1oMOopj0HFxQ1gGg1zGOxAfMO+3HPl+3eleTANKwQK36lfX8jvUXG8dqZJpEvAZEKhNpL0w8m/nCOHhVtU3gyHvAOtL20bOQEesI4GgLLuwYYXN0mNoz+lA7zy/JrIiDJuNlq95njeldW1JZo/90nLHvqwKDf4LVZmvC+0ogUn1xZYoYlUsar71vT8+rrQMgdc3S1IUzVTZbsJaNbADGF9kdCaJ6m+n9r9+7n//8v/mOu4eN1tFYSMsXjH+5WNkh+XUHgEmWEt/1w+dUDgpGLeTPvrKZSH04eV68T6eOH1Nk4K+hXfgcb293z1n1OHvJXiA9Fat/2LOC3GBSR9cFYDxv9H25pwkalxxj7P0db3fP2XRCM8j0Oh2Oc/mRDiShg8qE5ElMHwAkMtwocKQdZNQOwxlUF2fGlOkL1ckGDOd0rKe/MHySyQXqrnaWqq7e6n8zO1P/sXA8ECDtFtILpGBHYsXVfNTKRKKEErk9DxI/0KjaxmDhh4HByUJSZT09veS7DaAyNEACkPxwbfKsIzPP4D4NAK7sIp6BOWMUIBwAkyprpiNEC/BbZPuo9o5gHseyyny5NWpr8JIEWio1W8EkTXGOAlD2R3VgP5eVWWpjdH3Exuu926VtkiXKq7DZHTCRFqsN/x+cTeSATNRZhgwjAeMMLC44fdz//r37+ff/GDj0DoWFWenp1MR2beIxUA77yZuVvglYr9Rmm45/BKLs/gSwZnV5/S2BVlvTX54nABcsgbX7tWwa9fS+JFvxovYEoT1KWer8aJWpclmq95tcJ3B8eAhysTsZKHAcCcnDZSu9puQD0Q3DY8tcBYi2n79lUGJzM4/bA2I810mEcaHqYpRRxmyuN2mq65jXrvnny7PZRI5TjcA1Iq41nqSWzX5/x/p/HG8TcFTwCOGsYSAnwsxvYglEPoP+sziOOF0nNTU+BI4sU4HkjHXUU0ugl14Cj63MMYzlyDaQfUSsWw4szzrmeWBgE1tTL0TPBh6/ycrd66ZnGT1g1I1zOsGm8aVGQYat9IKyPACJmJ2Pfk1LgDRirhoZSLQraZOqWaMIJn13PUism05aeCbNG/ASvvuVVNCPtpFXNS/LvQHTmDOMALSBgSxArWQeSfZYUxYgBRFP6kA5pY8wcjoOgzFhLGekQrLwkzeFHb09HHZPTw0hRHWMjq0W4zjSt9E6/tD71npT+5A8Ot7DMdDwnFaA2CKXacsIVfALxnr2jqbKGSpr2Dji9bfsHNk+wy8ZUB6RA14qfX5+LQSWf80EuhpMHPXDdA9qc/T58TG2s8SzrPM71v/jcLwtuao9gDwVPPoF1ttEWiLwF6hikl9exGu2gKSeGNSpT1XQfo80IOxGDR1lorFPgDipK9h3NTC4sY6Sy5pMI3NbMxB5TUn4h65W36lbPZXbyIYXHW/5nGPSZhhKmUgb8E7wen1McXDym1uLCyLMenLlLYAdMJFpXThNGE019ABgJKMMtvH19ak4xmiYMgI/gMdXbKT5X/5ua1jwW908scJVig4gst5fbS+1jAR+630JuNoRuABR1I/2JLV3AqfpX4RJq6vqmw9DcdYL3R6+nAROszsNQ/KYNhKp9VKSDj+TorB5I/0geIStIO0c+RzjKUZ5oxU4prmd1M0Mq8PUf5aFLi+gPu91z7saZSIsj7dzbFlefKf6f9wcjiXlIBfVqvKZqrDT4pVe15oFWL2zcXp4ekr2NbW+tLDZYuRGGgCkspC6H9Oukc+oVzW1G5GDjIG6hpOMZo1ZGvQtlTU9q1XTgrIILO82lfWSaL/G9Wj1bAGZkR4FmMbjnFNA11pgFzXVB/ufgp40f9esCVpHVJZvwxL5OCReZxLn5ZLWpGlJUb3Rc7qJtchbOMY8PtZwNdC0TAGeArME0AjuKmibg0CCQa6pSZ5zIFl/S51sgUsFiGRG7f1nO0uFDHTsecVpe/t8KgmkMDwAjitONzaI4Fkde/efE4rHe1xTWBb6Jju5eOBo4O35tRnPUeedB2649oQg4BY60BTL5f3ovCZ7qGGBNBg4WcsoZ/Z3rd9yVXO1pDE1FyBdRIvaN1N0p7CRWND+/gdhKJLNTDq9TDPWVJD5GoLIyYZjaVJrppm0GKZ4i8iBHXELBhqzk0y8QaZfseySjYxC82hd+E77Rs0cQxYSfaRtEU5B9LTeVNafap1dbkw5UU1vbZFYXJwiYtFXtpSpYrlxedzukRIuxTeLMomMhsoarY/3sS78HWWg4H0qE/4G1WsrZIz2Y7RNUf81tZwvR+2kI6/opbR1vjy2mb+z7sPtvTnGAOhhzU2OJfGmTvBXVNZ0ljFHmazGzr8lFhCrHUAlAWdO6RowmLg3sYhToMp1X+0fSzsyM1k9XNPqStaRcXxfWg4yoy9vu+8iElDHGBbYjuUoRqQnhOVpAULukb0O2d6KA1R2ctGwOLXdFTimMVpLVAAYAT/GihwN60M2FaylhuWBljSy4WHaTpYAACAASURBVPyu9f/Y7/c5c8zUOGjqkVdflL40dagxsLXARj48vuyeHp+TbUz2ooo2XZrUVPVQ4KZt9fFEPgWPaAvYQHpcsw6CSqu7ES6NDKVXYY+AxyjtILYFUN0AsuQAwDxu4PEi6+N5hSh1FJXk7OW4sdpYP1HluabBI0whY5G2EjWoU9mauj/rvR6MKyhfAp8eyF2qj9F78kwltkbYkD38TLmdD8fbpGV5fZmkdPXM4hqm17O+qmbWawqOW6rwyjQSXFZWWcs167K8DnPP2MDjpUbWaeWs8aZONcyBI36FjSQ/Goan/DhAZDbXH4TyU/Ux0gfeVAcZXV9xH9XFLQugsibv4Zk9j8fYAn4KbpOp3lTdjetUV3t1N+XAuW5t/ib1C3DUQRqDSN04VZ2dQGN6psdE/vX3k52y4RCDRYYvmIDT20LypfLFFDuH/INXdRMolsEu3ln8TUFjxH7oQLIFvhPvUQeOt3fEhIFIIBWN6ZgsiBIzyjA9KGeL8XjaInn2UwGLWMd2PdrqQhbhTWWnl8Dc2W0OCtA6OfZa9fC6/nuNNl26zCh3rab969Xn7/PyWvOs3qvvXdcDzzKDbYR9Y3KMSWY6KexOUldjQaAjSlULJ2eZZdVxbVFiC3EqzqY/omKu4BFsJ8L+ZFvFPOBryJ8c+kfWWS239pPmCXPwiLo29fWlZ8BYeWudYhQ4rgnL0zUfaVykJ7Lts8q2m5dzDYujdoq49xGmEDlHtc0f511dHFwE+E0YQ3u8bU5RwF8Oy4M6EEcabYIq/ZT0hX9y/Q3gqAN0DER6VbYHkXjxZBupoo4Cj6s9JAOMa2vUNR5AEtS2nqCnp+lpTm2qk1EeQlaRdWzZJBFEjoBHgF6LK2mnptRinJIiFtLqz+EAcOsWpmdsQbz4XQ40pgPjHCx6oLgGpF28zSsLPBXE/mlM5UqxLd7uQbc/OKCACdA93u9eXh53TwyNYs4mU/DIsTcDcIzhqEAu25RO1OwZNFbVdQ1XRrA6v79qbSq7meJFJiaR6u9q42gq9tz+Ciir2prM4wYeF4fRVW4AcBwJwZMqn8Y6WgrLk/bERDX23MzUCWUpjmMRAjK4ZAcZ7KMMDUgnl9H0gbSTJCGldo4tgRPQalger65upR/0Djbfof4B4LgMInWzzWytPUQWEjS3OcTk8DvpZLHbHQ/JxpGLmtakAJK/R4HG4XXFwcxnACb9B6riUo7YOKoau6U292F7IgdCqsFRB+0rzcYxg0f8DrCIkwvBJFXWuGY5rf/K1vst3df2+zTC+yXlMeCF21JP+2ZwnI2ompd2jojJ1GdaKuqlck+5Psr4RSzgGgDbA62jDOMp/TvlGXVWar13qKlvb3+ZY8zr8xMXvLpfZvvEtI5VVkQdUhRMTkEbQF6Ns7jMGjZYRnFu6pbhnKBszS0e1nPmsaivX152r1g4I++uS87jhfLhmPiIV5Dv839/dPsuUf9wbuoC/6Y6515YHu611s7BxYehdoAHfD5qTgLzrH5BNIGkrvaMve2fQSBqT2xS3QwZgMjR672wPpr+sFV/8l+Ig4nr3IeG4E+vfyVwLOKZLH7qVEMQqKrsEn4nAzogeVy3gZRvxKWWV2YLRKrdBQdIBCSPUI0LlizvXmLn9QCkt3scsXcku6ngkWpqjfG4gcdPBJYVObjjdKSebjlNRB7G3lklAqGnAM0WIOupo6NnemAt2oshqmKj5ExHvFo/AmRL4DJqTwTS2A51SPHOKb7+3rvoORa1gKV3rvHjAllV8IGaOmV+CT5yap0ARt35/ItIu/g0rqcW3TII84O5UQbbUYAqWc7MOJa6cyiUsju4g/vUXj471exvdo//PMxjkr4DiLy/h7dxStjw8PDxYPYSYLEgrYn88iGleyKaMo6zuYJsRjniic8viOQcKetKGxCyvBGbcHpPmxpaTNk4xzUsDu5peUmrraFNkVfEipyCvpaa3YBn5lLBHGqIoWd4aDed2arkvkP9JwJH4kZRE+eFT+0OKUrEbDRAOcnJWrGnz1rTApBpnUynI6xdk9REk9RfqWyCSD5nHthZxZLaw0WsvnTPOracZVphy6iyRonqaa1MI2M8wkGGntdMnlOYx+5k3y5eXAIKFAdiIA7uvc1mRqAzApwowHsWR8x4XaCXJaM2kB6gtcDZcqnLd0TMrB7YynrR8QqnjPTf5Zovf4faR7dkxr4hDA/sG58eHw04Hu/uy2bMlH2TgOC6q/VetutWUXXzeQWOLSauJZoRQNopn6GEuO6zGgWR5l0uH02J+PBPza19+be3290ekV/8GiV/bJm/f91OclOjNUPe1EGzYSt7d9fwIl3pINhyXPPVPjw+T9TVzBtNdTVYQx8vxcdmxJQBa8iMdEw/6MEj6/Yg0qureR/wRJTF5jvWn8LxDMV5mo8sXRwIzuwuXex4SnVxGyvATOUqA7nknV1feAKR8HrSj2ciFUCyndh4NCenbmrWllxgZLuESz3W0bQ3eUdW8IjnoPb2DjLqPIN7NvD4sYvvVWs/Lf70LL5gZIvppx7+HtQmzbpMQDniROIX3iXWbg34a7GdV31Hlyo8H0CQnxr2jc9Pj7v7X/+1lIP6QqcH5TpA+LuyNaPv8/n1bXe82e/wb7X71jh2ziXWo1+3hk8YrSyfuobXbB2t9mk7IicFBJxGeVDpXxs0Xur1frZyCBpHclPnXbcT4zGZHeCd3HfA4yggLHt2Xlgixg+gDGPVTM2cdzJ+n3g3w9zNck1Pg3snDXplQTl3mIUmUncrgNSwQPj97i6n2sxElbKeKYzY96z/x/7m8O+u42102uSI6JuEDj0jmU6gU/CYNrzspd1RYfu2eZW2DmpTl78iYw2OmXlSNDoHJpKOLmACe6FtaXZBxvBZbn59gQd5teME1Q2HIN7CtZrKApRlke/3yWHGbB63z2kS+GSiW0Ecre5vy6EnKmgUeLQasdYT+1QGM4pByXWhtVmpY9ySEFuqqqXnJtcHwpEc7w67w+HO7BvBNoJ9fPjnr7FqLj1o8svwQJV/A2j6D983gF/dYHn0Tb/M5B6pyOeLdfnl5nibo2zc7h5/Po7JZrtrJgEAvMuAxhQEnOOixzra+++AwWg8zRqeQ/MYc5fD8kRhcbA/wsm2lUVG7RRpZ6jxW01lHURaKeN6l0IEJa1kHJYHmkOCT7+GfKf6LXNMevlMxHyNDABTz4OpMw3VxVVtzPXSq7B1wPXU2bqYUaUNzypTmWeXf1kFV2W9gGOLl1Bgs2vFAzjaZpfBI84uGPgEj+hxK03hxcAjUWknJuF0Q5iaTaWd4QKr9CcDciM9iuwax55LnfXM2sizNl7yBPDMXe/5c9XXo207975LhwLqMZKjbMg0KkPtIdef1vWleQHQCHUsVIUcC3uLSSe2Z5cGh0svaATULZWRBvfIXf17LJ5uYhoPyHX98Afqjs+X0nAJx0NPLe2L6ds2KnCET0L04ZK+KgKDjJtJogBOJgccQeJoFhevLo7AG51xNAuNqquXgKfPtc2wPACdTIFI1vy71p9tHDNo09yjSd86PGjHbpyH9uFzcyaylqhqbNtYZRyPAEgfCgjqY6qz0U37vnIhBIDUzxMCjkcn9gweCRYVPPLcTqaRGG3GPP7dR10927Gl93IqI7RU7jWvs7+o4xL7ro6hU8HeUn9PAYN1btTheUmAeImwQpcGgkty7F1fcqhpZbTx9ooqd8VIOu7sng52ujkiTi3szV6MBWL8WhxevYMM7sPHNreV69BcHh119DnCvcKzBI0Iz/a8ZZy5jITfRhxibOXsDmCMSTJrTLTRbODAmGW4m5lzSTSHclielrqaKYs5NyM76SV1Ne0kvX1imtaJdaR3tYblsRCBjnX8jvVnVbWqHrKr8QxRXOCEWUZeHPtEwaO3gVSQQG/sUQDJwOOH47E6rMAGyJ2kLGemYcgxIBmBR2tnBpCVwk+y8+DxiACjefr2wOPhuNv9/ZAckU4Beh5ojZAOA2vBZB05B8CpUX/LU3ntquq9+DQl3tqyrn3/OcA/aps/v5wDED0YixxrRuwgz5Fhj1X0YC6SpdbtwVlvnM+Aou9EY0kEaEyxaivbaMBQmcZcFhwQbg/ZVsqVP8qYLsn2fDC6VANRNNd19S6bghS2BaARH8jpZctzPSLgxXv2+9e21/50tR5SI2Fs9oiZtHelPanlbRyvT4Bt+x32P/8BKHtCWB6oi3dgovF/NfeiulrtZHU/43xWz+aWurqVQrDkrnbBwNFW2FliX1cnme9Yf3aOEerGJM8VsYJIZhmwF31RJrINImOVdhpqkTNN+r2Wh0UqsY1Plk2BJwdS360wP6CkUYx5SHMkBjsMASLtG1E/mMfow3I4Weh9rWF7lpjHvx8OxQbDb4Y6ORZXGKcOtQV8Afm9Z97jkfafck8LVJyqku61IQJTLUertX1ZCwSXWEGCw2gBjNqmJ+ye7CJQtuQ4s0YW3rNaDx1LYKkJGJc86j0mChrsVdSMi+iBI8BTcQZY0/Ez7r0UGB1pgo8GkJFisVHbQOOIFMfu8d7UbU9q2yWHgKPWzLE6IVXcCZVgLwKEvhet/cYzeiB3vLqaKQh9CkAfoofgNLGPaT+nqtlrGH1oH/yNYOTMXa3q6q3+t50LxyOq5LKyChCSYIi2SJtx33WZyMiZhsDRA0gDQNmZhhvH3/882ykMuWFxDaxfdIrSjUZtFjFIaFBbMeSckfQso04ULRv2jnS4MTX5S8pjPcI8wmEG4PEaQGeE1TmHVRxb/tbf1QJoyoytL3XsCY1FGDmdrLL9yR7QHuS1WrK27Ag8cjwrG0tgEcVFXIqPuCS1JTA3nTNLpV3g+iWXrtwcsI2w10NfoaLGh+tkDb0DrURmc/Z7c9jzB95W7+p9bfOVJfMdWyc/ajLDExVpZzem8QIDOBVxWW/qoFn7m0ne6lbDTxlT0UHmUcwWLEnIAXNkPlmjgN4+iwvV3f75yfrpTpEowzvJYH/3ZXzn+ivjOAOAzptiBiQDb4uLMpE8GVU2tAciyUDqogjV8/NTYht7aQ5bIA+/e8cXOxHliPQ9IMkyo82S4BFTwcL6CHikuSW16HaP87Z+eKqxtdawT2vBxsVWtg8uqOdJvMTGndL0tZ7LEVhcelenPOP7omMnm+KWW1r2gD15rDVvOEW2zWdESWJLmeKqAZbwEm2hijqtGym0CO0Zp6AxpfLjofuA9YmhRXJDaF8GNfbjM4AlnpnaQI4AxPP6NQenS3UOgYcNNJ73WtzT8KY+NcXgYkMyWYT98/evw2w/bD2/xGzTjMsOVnnuWtST/AftDH0wcF5XO8O619bWtJ7HHcx7bXVn3KNrVwQ+MT8BYHl41rA837F+YRzV/daj+8juUe8JVNpXBpEGK114Hx6i+S8i0WPhBs1OytnbR/YWQg/6Iu/pFpDUjSKaXBqmh2prMo8t8AimEgMY5kFPz+3ArKyvBWB8SJUoi8figvIJblBw5fvQ6lNLHRsRMAqs0oEkdXoJ1F1aNKwvYldbNq+RSlg3dfbX91HV1tqPaCPwqmLf79VAMlITR4DwCkzhue+MoBHriTnDGGgEeHy1dYrrQcr/nFhIi5MH0BiMrbSuvOyOh+Pu2UKIzT9UzZ/b9vd8Pq3Z0Lrs/8gA3O8pS9Z1UW9q3wHRMiIHdu8TgUF/f7h25nA8BYDlsDw4W1FdTNAGm0cLrfeW0xgHDSqETlY3R7mjR4KBE0DiYGdh8g43ZnO51T9TVetbUEPn4PeZK1FezSX+U7UPfH/vbNvgseCanUJVT6PZZCcZlZ69WzpNt1RtCii90Wzys0mqbf/84ZhSL1pbYU/5mtTWtrFkJlIDiOM3gkeorQkePRC85OLVs8trAaiefV/Uth4Q8+D3lL5GAFOBpQIcbwd5jkavp77ugVAFg9621I8hjNnIlkzb3QKXeBfe7MHG3UW8e9ObpmwXHU0uOWhbZfXsFyOWcrBNEWi0vr8mb+ryyQddhj6zd4dwNBY7rt5mWogMHOFgk2LPzj8AnbMUhucM2IX+tkCstRExKo9HY0fD+yzhQvIef4N6vpV6a1Dm221VAuPAcb1to+bq1YQZtnbkJqw6SAujGB0si62hZdJMMZ4ZU9HbOoI5jILJc92hnSLV1fRtgCocdY8EA9fQPACvmsnmO9f/43C8/be1MMmKl7+uYSITQuNpuzjXXIuJ5C6oK4rVVdsx9drGCaLmysZjo17arCICkhErSTBZVdsJTCI0x+GYbBbxAf2OycF2tMCjBglXtfXIYrpWxekZqZE6Ru8ZLXvVwjRa+Qffd4qKvMfgXREvTOzIR7yWbS4BHEjqQD9nLs2WeXB8daCal0KCxhTxoB4OZ3aN/qCd10bYXuPU6A8SU/BeaVceFGy9kAEBeb/Alhue3ASaS5RvZv+a+bPdHAHIjfYKAELUacDx6cnAMICkHzgAlDbn95sn9SWXH3hTG1hq5UEvlZ0HHGG7G36WxllBD3MPbDrU+HzX9K72wM3C5Bz2NtcQm9lMbIL6J3aK2Tsbe+vt8cYYQx+PsfU+vK1jFNPxO9Y/CBxVrB0m0u9e9kLnTGQ6EVwjTqSegwJ6wam2MQDx8WF5FEAmPNqPo9gCkq3A4Lg/pVfimE9e3D3w6B1o0EaQk2Ae/3lcVltfcqH6KmV9pOPMZ5LRKSA1gb+pWt6zz+qAdAq4b4G9JdC3ZD/F9WWNl/XS+4r2RlOf3TBM1grQaCG7ksraA8cECCvjONuUyhqWDuXM9sIUg74fLCsdcnMbpTM91pJq5bQuZdYzL1RpTayZwMg4MsOMOlKhbthqlnUS4BYOEN46avs7bZcr5PD7PuWmpiPWqXmpp+PGAcystfNjKwrH0wKCrfnVsonF9Hh8TLmhlXWMQvNEAb1bTjJkDAE6jZjpLFwMNZTWwgRYyXranOhksvnT6zfgOFkYllbQcr0FIAW8TU7ZLsRPBmTXzVgTdaY69fAERfV1D0COgsc1IPKffx53x1uE5LCtri6srzHziI2KIn15TmptBY9LB79IDevVtGnTjQNrRxv98HDJN/o2joCAnsH9IKYfbmZPza5AabjA7cYhCfTAbfROhgq9QIKTVvggC6NzhIo2sz3ZpnHiwKITyQ38FnDkPkZVNScjQZwHZASPT7bB0syltsnk1FkYJsBR1uuUp7iCPdQLUFLiL+Z7+W7Idvr5TMAKNFTA4+G4e3p8Xg2S1oKqP/1+BY398Dvck0eNgxvM5IJ39ZBjVGPitvYBelh74MZDIQAgSRjr5b4O90kKwMw6esYQDrRLn+Jok9MQkrkk6/kd6z8DOHZA2cRDO2Lrpo41XETTGnctJnLeXiyaabClkzMBpJ0woDLm4ujilK4BkS11NgabLZ5gPAt4ZOiOJAc40Cj2RgpD2EXyAzofNpAgThkkPAqZ4tWG50xwlWIP9EV1jIBEln+pNvq33lK1elu/pcVk5LoCba+pxPMteeiY4VijPEaA8ogJwJLntwfJpzCKIzJ6r3tOYV0jvKVAku8J85TriJmgwCkGzi9wismmOd5Zbolx9PZXVFHre0OgZHxuka4vfwdAQ8aLquqes4y5sbbDFvWzmwCwW9QPmE2oofmh6ZGuhQCavbHLtu+Pd7vHhy0n9blj//72grmp65vN6CubeYnGELeAbPl1n8Z7M9XuEoMhHe/luU6ADNq4tBdTna3qas/66fqozbD1c7+3cHzUKFLV7YOJt96LtgEq7zTXp/mzv0v9FwaOKvIF5xq7dW4zaQtS9ji8OojMJ+qp7WNl9TAIlIX0KmxuFqMLABdVDLaHx5ds41g91RRcJI/MJB9uTDZZX14LoEwYOzGP9Mz8+VzVR75dS16wo/2I7lsDpu3NB4vL2jLWtDeyuYucStaU+RnvHQGWvXaPAsrISUlV2+ewhOfI1YN1z5K3yu4xiz2Vd3Q4ACPBw+jzUwJILeBI5xib53nJhLqXY5OMHUCZ2Q02Pgm0tdkT7UMqIlVGcMv5WNfC7P1tdpuvZr+ID8Dj3e1tUad7RpGq6uRNfpMdFJM8AHCtzg04njPEy7PgEJaZRr7rFWyjHSLcWBr0rh7xrPad10Mpxg23BmMMs+reVOBQmeewOBpTEc31rB/rsD0ypxBkJhq/9eghjdf8Qd+zjl5T993qvyJw5Ks7BUCmwX51JlImQ2ntxIYnMY9pgb2MLSQWWqQtwmknOcccJ0xnAlWpNQkYJgAZgccyObDRZDU2Wvv4XFnetUBCJ87opnuRVXChkEjNvlSvOmBUNV46wV7qQzCe3lddnLUOBezXakfUH7KUBEW9Pl9CJCuIhq74I6caPODZ9Ihdv9R75fvUMdQqOwKr0AxYDubnlICgBRwZjif1b7ejrSJtE32d0YHrlD7rOFT1uto1ql2kAj9lHsu6aQxlNUcyR408aUkGAHBaP29/7x5+/nNKs7dnRAKXB44Mq6egMautZa+kd3VrFW2F3Jmoz6Qfakto847jSK3bdqoBzNrBG4S5Sg43qNMfnDQfNe4h6wgtHdcOxGNMc7322ZtqEXzSUQf3MzvOd63/HYCjn+sRkMwDtiAhcarBbznEz8WZyAA4amt7TKQNHjH4XuNQ88/PFOfNKPiseSZA1fppuOuBpG5qSTxpArXA45+22vbUyn7Sa99710ZkFLFLkyErmTtH6h0FWlF/PahX4NcDxi1wq+29hJnAGrOEqazmzEjUn14bW8DTA/g1ICwCh70xA+B4gC3f0+MMOCYTmRr/h6o4lAf2g7mr8R1qZ3xafWIbPHvuDwtkVdT0IamzqzoQZYEVVNZwOl5uip1iUo1X1tIA4cDpwxijDTiOLDdj97xW84H4gTWe1BFwzKXKXnmud/Vkvkuua8RsZMxF3oNYzE/PyZHKgFvOHw0nGX7oId1zkrF9MoNP1AFbR3xA4oC9VCcZTT+oaQy9hzXb8B3r/wDgyNe94J092RmnjjWezbls7uzWfK1ONVRD2WB0dpAEgMkeIpXl25vSIMJeEYHJUxpE3qfqbG6+zFSDe+z0I6E/osWasR+VeRxbhba73kMCp7CnZdaY3Vw6dCjb2Wv3OYDpPeRxah1ehRwBzFFwGLEM3l4psl/iu/R9AHA8Hu93j4//FOBYAWOaw7W9SZWLuUwnE5Q3/T4HkayT6wTKJNAk6GyFRKLsGKCcoNE2U2NxqqmM9g3qQjq5KHjU8cnvfm1CW8A+3t7+2j0/P5RizVYsSCl36rj405+jU8wDzCB6oTsgCGwwI1rqDMzCkD5i0tU6HJA1VNCFQ4iZFjr7l1YZkSkYwd3D43MBfkzmQeBmB6DXlBrY55yejt0EHqOA4D0nGQ8kFbxGoYFa2WhM3f6H1P+BwDGa3v50VMGa3T2xu6jxGdOlVzHqvfbSMW0XBpICRGURFUCiiZYGEScoMJbHgw1iBib1rVYQiWtrgOQGHq89Bi5TvgKPAcImTYOG1ztb5M0NLtPSjy1lVDYf1Up9J/g+A44CFL2tsXovzw7F+eAJ+0Z/n9oXpnGBHNApGDf+nYPmxHLS/jACjSiHjjZtM4w+eNS10L+PEs83X+DaybpeBrxcP+odf4Z6J57UMAfoAcdR0GgvLIGqEDi6cjBGf90fm859S8xzBBDZjZam4uEByTwSq60BwdUcx9TOAJEOKXt7RByusJ6QdVQnmd7aiXJbAcE9c9kCsKi3V7+OMa+R+kz1fzLgSLE11Nnlcr5ukpXjlFc9F8mPHLlOXRamTCQXzYiJxCD/+ZDYxhs7jSVWUhnHVit0E9BJpmwkQQUZSUrx1Vxnts8mge8ngYjdjdTOEbvYMk3wIJF1HG8PBtj2++qRnBhHi1I8yU+tziijrOiIveXaN0zbRTo7IayP2nuldSxH7JvY8KY1xXJpa9Bv0bD4PrIsAle1YU9rYXXI2QBk/CZXeVKPAsceaCx7ridHbsq+1RtzoyYrPacaelcX4Ggq62TnOFNZg7mW07hn/4wBzWF1NIUgVOJg6VuHcg8+ozJMZS3MuQeP3sHG119M0wKK+LPV/+PmcPwXk3Y5e8zaJelS97dsNFp2kd5Og8/34k5eoq1TFtKrs20Ov+12zwhpIWkQyQzy5BSpt33rPIhUJpLgkc9MVNsbgLzEi97K2CRQJEAnGLKBAEUIxgzHtzhQIRiHlN2FntAGCC2SBFjC5I2sbODU1IDXpv/qK4lU+BE4JWikF3faOJOTgFejq6NMPb+nVK4M1cOYkHSGwQaemM8U2iUqGzJiWDTWyxSxapKzqbKT1IcdYkZBowm9wzY2gCN+vrtrJ57ohdlpLR/qVKP2isW7Oo9LOrnAzNEyreVTH/ZBOruUOjLi8sG8CTw966j1RloOM7cQW0kNCD5hHd1JlJls0C7m345YT3rGetaU/fks9RtwXE5V9Bl2ip53Nk4ZmVUr6uwpkINBr2VbyYnKox7htIDTDQiCl+clo+OWTNoMZInvlnNnJ3BZc2ejxJZtZO8N9FTaCiT9RLB+UsMvB7U1LE2Lvdl+n+aB3uTxcfJIOeGTTSiYrHPGd4qtWkNeASQawMmsYgJ5Mbib2mAmtWCNh1jBYtJIpLR9fKYJHq0MAs7URwIwrxL34JKOMLSt1GdTGXNNRYlLWeqp4BEbv4FPaVNpC/sEwJydg1CfAkvPQFLOlAHb8/LyfPZ7/KrzETF7h0LwjALHEdBoG1OyldQx7BNmRHvUYvxXodJmweO9d3UGuWoraEDMO8pk1k/BogIxVXcTOGL6gnWMWD96Z9temp15qHJm/mrIhakMI3vJtfW39vvPUv8XAo6TZU/+EMcZ+zWdYHFqhQqYaQX5gBlivzKl11SFzaDfmCO6YNM2EVT0OMieM5ApRMV044nAIwEk5ysX3xH4PgoiMUEYDmgDjx8Has4BMV9183vvdgPswVHl5eVx9/IMoDf2vhkCy4MxDxSnQK0FGgHCJDuU/Uh/QQAAIABJREFUB5gTAFjLIGtpgC07l8TgVJymsr13S7XNnNGVaUw212rTqKARjCI9res6Wp1n0hqWAiJDdQ0byQJac0zeWj7i9CpgTusk+5S+J9bVA0nKearNSeD26fFx+L2Ovv9Pe9/LAqlxadDIl573Lv5J04JwXxJAGLFnBGM+R3Up27Ec2Hsfn8S7OgcEp7qamjqwfmAdW0G9vZ3g0aIfTHNf18PRtGczJ5mchlDTIFr9SGeYAaaXzZr661xL3z5T/T/2+5t/x9yuRmDLR9yTQ0LATT9nWrm/Q0T9NzPetX8BkrCYdgLkzlqe1ckY2OrAYoG7VzOSypbW9urprcU+ngIeFSTju7eJNJlkVZqd/hfCEn3EW93q3CRwKQkgNeDhcLd7+PmXRTJY87l5e81exmkzop3elD2soIsgcxZTLtsKtlXQU+A3SYSgCRFK0O7sWU8VN8HYROVdGci62Sf1YmIZ56ppAkZeV1kxTFD14p6mNkzPwrP7YGsvzJ88o6rlVZU6bRuZbSextt4u1ICjZLRRRtKzkrQzhfc2kiZ89c+vu9Gc1BfypI4EFnhXe1CYQubsLTSc/3inmZYXdVQ1yZ7IScZAlXNjoL0iy1InRG9rGD07A3xSPsEfyiTr2qufGJj3/An1/9jv95ar+qt+LPNCTiWEPkDVnIBRSud3yQ/qAojExIAn9M+H193LM+pZ63xT7TO9LaQtjkJWangfW/CDED9LfVQW0lId4uQmdky2gOeYbEtlbdc3CXw1CVTg+J/d/a//lua/vdVMLFOGIqXpw/+HHQ6gWT3oWBCveta/p6plD+AYdDh5gU4S7OYFoGg8QmCYsmuVTTFn27JH8d3vYrZuHMwWUWM0pg03AVAPGBnWB/douB+G4qnlJAfFysomwIfyUJ+xj4x4wR0+7+KatrCwqJl5ZRn0Jp/bfkqSA4lqQftI9kcdlSivx4evFXxcQSMCynf3m2uxjdx81BcV+67YOXo7/aV1wjuELznSYN8yVTJjOspGSXtHH5bHO5WYzb94R6duJaBrz+Zp1crCNAN/ed9EQHANKu5ZSwWPvn6GB1Ibzc9e/4/j7Z0Bx9Nt+paGx3WuE8QB8Q+DRaHaqcrGPCO9DXuluqv0T6la/+PTGQBSkKIHkbpP8fs5QBKLM2NIYtGGDOi0k2yNXnY5UtB1XtpW6iaBD5AAgePPf/6f2Q5WpquqSbVZquIFDGralEXW865/PXB5jiim4HCqAp/2pdp3Agx6lrEHGKP2MQc2AKSqr9X2saq5obpODCc8r31+awWLAM9kcxO+nLKP3h5UA6inds6dbNh+rHNmovRFmce744qc1NcEjulkYmLluIZsmbvaDhmybS4BwdH0hMoeTsxGMrtNE0cfkFsdTQj4OGWLk4kLKJ6YcgDI9v6vYBRgkeZwsJeEXFLIvXwoDCYRHWWigOaj9Sv4/Ij6f9zeJeBIYRh4WqPSPWf1O+FZLPxUHydbhoBddIM79a8GTWb8RJxeUBb/RXnmwBIEWK42O9N8sdoephFcz0DaVEzSyCN7qoapgtK9ai2IhJr9CYFUs3MOPcv8a+Ap3bxD15KpJ7zT7ZFNAteUwN39bzsUPfz8u4ATAhM6slT7vrlZybhdc6MXAwCTTyqo9c4qIzKaMn/pCQBG25ByruuWur0ALUTZkN1RVYzKPuJ+BZCR4wwBnoXtAVuW7TTNj3dALmp3yfalPmaWM7fz5pjSGSqgwd+waf3qnw9ziIkEFzjJKOs4Cga16NkeIyy8jkP1ru6F5mmBL2UL046bPLK5j8Le0cYMtJYWQcsFzBUP7YQp0nbdCu8DQiv6UL3vY0Jynk3qDwrQEEMfVf+Pu/u7fyk4i7wuQOFTgUhLR5Qi0afYhfBklEUh2yQme8Q0AMAEeiCYWDYyDXNAxrJ1kUK9mt/SAKKzmSSARPvOV5X3Q/ukBTK1cA0T+dffT5MYkuwT1d/eFjKVX0MubEDyq29B37P9t3d3xmA9PaZsJVg7GCibYIPOHQm4uawpger3U0hSgJeCQQIrMn8VMNJLmjaENf93PSxHm93UXo1AlLKM2Eeqp9Eu2DwiC46yj5eWH4Aj6qLDxp8AGFVGb0sOMbj52mwjG+ScZCLv6tWEg3Om0SlX7CiVxFB1tY2xFJoHJmT4eCeZaApHcRXZRcZ1JECcvAsxTeuF5uk56Vi5u7dJQHPNhONZz1AeLo1ir/+tfqiH+Zr6f/z6fV9sHKPcyBTYh4FIcVJpAUa0keAO38kg4jtd5NkP7wmmKh+eVhVs4hQCoElQzfA5KI+2gsrQEkDSa/k09lGH6RiI9ADS1pH8I9YTgGiyjVRRR4HH1R4ysRRTynEDkpfe8rbyrikBqKkBEmHXVj13awYVhoOZXpNMVNGK22twVrnO7AzXgM8eE+dYkAgwJjCcPLNTfEgAxinDp7Hv2J0CmH1bZwA1lU+brghAttnHlA8bH6ivL/Eh24g94E8CjN4hxgBRK0zce4HGDFA1RM2od/XSuzYziAzKmLda0xVyvAFUMX81Q/NoXEbMCQutl8PrkLWMnFSWWMeWdzaBnyURFNaR6mrWH6m8lfnU+sl4JtySWE/UT7W6Ovh8dP0//vd/fxlw9EGk62KSvn0IE5lBI9sycXhxSdf9Wltp5GR3MQ3sWRdRGsGnxTaBNNyL73yRZOK86iixi8JOiIr/eAsvuIAZXZo93ettdTYfU2BLZhXtMJALpkUy1uCk2HK2UQBZ5J8HwRKYhKNN5Bzg1XDb35ucrj1Obu9+7V5fn3ZwKoCGYm6GUlPwqZNHmYajgE8cTKIpzHA64fT2OxqcDsT7O8VHTG2v87xmdGFmlwlgDHJh254vC+VEDajqX21kACIVrHrwiEe9+nra7uQ8A/DIbDVQYVe19dwbt7UkAhC/Pj/tlG0EcPwT1pX7W8TxTMHkFx1iMpgb8tEcjdu4tE9l1rGXXpAhaXpg0I9JVtvzuLaoJgjPg3ed1c1Ab2AdmY0FY46sI9MQ6plr5uQi2WTYBmUdPR4qf4ujjebAphe4Zx1nuKrBOuI+zWajntyKx7ytI0MDXbv+H//9769/ewatChKKsN9Dnd0CjY4mT2qnmxKTsGUTUwBitrGJbInsheRYi/iuqnHez/IJLqONjwykGuJf1su7zUISAKsqm+F3GBeNYYsYt5LrTsvmaA2IrBtbYhWo3v4TFvNrg5yt/GqHfKnxAvtGxG/EfPVzcGrXKDZz/mi/uImm+Qj2srWRGvBrGNwXT2ix4EesRR/2JjUjHXqpjiZYTJvJNLaiXos2aJRP4Oe9OGeMqcjAA0de8t7XAIbahxaAhJNNDXY+ZvtIZ5qXp0cDjsdjAlqwsfsT5tGncoiJxr8L4YYx4TPJnBt+x48rbQYAmWlBmb96l5xUqK5V1lFZPx/MWzOxWLQUF9cxslMUE0xrklc5q5MMxqOWMVI/QTNM4visnt8i5tQHNaeTzrXqNxtHqCy5GI2AyAhAEiRcxLFmATTqwlCpULBpKUYbAZDeZ3ELy4aQMs0oULJFLafG4n1g5yoQghNNUv2k67QFwmCtOVbLop6vx+CxlUZxaYeaXqddVu70pO/atxSzMYXqwO/p/7wNYeJlm09mrWkByLQ5pVNDK5SCZyOr/Kos7QS9xY5c97K3u0+SABhHi+WXM5qgENrcKVN3smq5OLPV3M11w5uGsmk52TDzS1nLCns5NeqaAsY0j0vWFwn6nWd2dRQJVN8KGnVez4Xc8o6r9ftnFEBO19hp3Me0Vie5wW4yL0PmRNNiNWVBtnsIHG9v71I61z/kA9b24eHnWG/eU03NFkmdfMfew1obr/bzS51acrCxA0l2Yp2E5smso4IshNmhh7M6ldiYF4pWgZcn2aM9LQrwTUcb1KkpMtle3++19fuYmb6d71l/yVUNtK4AUsGBd6v3grwoEzkIGvkSEuBLXnbYCAj26iK7y8Gu8xMKHmcjOAhaKuCRC2zdABJoVBX2ZAMS8Fg2Ew35U+o/zXXZpwQrdetGQQ9xF7eRk90DyDUpD3tMZBo/tV8Ap8Vr3dKPbYHHlxbQ7fr5EoDJCOzCOFYtrMv+ZpbOr07FlXNxAvL2pqa1sZ/ZNj28toAj0wtqbzE/AXABpmpZzCNdA2br2sPIDArWeqpEv66TffT/toAlgWvrLS0BSC23xl1MbCqBpAeRHjiSRUZ8zqfHQaB1/rC6egk3O9joDQDhjwCN7H0QvaSVv3oJDE5AZmMKtvJXK+uIcjSmIgGcmY01srkULJztvDDnfFxHrVvbSlUxfrPHc3QUsp+MDZm0AenJlkLD5qqo3It3dTafiwbdR9VvwJENAk3rwSMBpNpAkqHy4KBguKCHQ841C6ARg5KLGj2bJwyfS+dXPZ/H7WbmTU/sJNTWylqkEVCZWi7Wv+6Tisl7XpMNNZW5S8N1EZZ20nDtbwLUHLEVMOYMNh32Ec9o+sWl1dIDSd2YkrFwDfUElkWzQCyVvV3fJHCKBCLgiHLIOk4PeutBY9oION8ScOR5iSqykrtZo0DkzmAOaLBtm3MTsJjaxBiM02Dbfl0bVPOeIsgLPOPNiHzQdcoy3VdzYEOVjWDi/CCoOFMSUpty/+v/+2OA48VBowk2gZqzQ0vpOFiRv3qVl7VQaf5w0/Kwtjli+CFp05iDGr+rhzWKBobw7CO7ZY6j+93u7i4dzvAsPZxHzJ01rqM69tDWUcEjyp+xhjmuJJ9NphcpB7x+Wm15r/p/7G8OBhzVM4rC9ypsqjdwf4uFjNhHv2DEIDKxd1yEiz0SMhBYyrDkKUW0zr+Lc0phHf0KdwZo7LCTSb2UbLLoeW1yyTOE4NpSJDnm0Tvq2ACaqcAvsFKXIkQGJdBuujgHknGIH2+s3FNnpwlRVdoFSGPBz+8YMiCYvmRPt7I2CZRNwFKQgulOWaToSGFri1rKRyt4T4zOy9jWAgOFFTiah6j9X9MU4jtsF229DcChpiOkV3SepS4gdmtNO2Ote+dh49cP2mx6kwGqrJnKUMP6RE3G8vtVs2CpQwz71mUdP5JtZANH81cvoC6vhi3FG+JN2lD/ISNHW0cAx4RlUiYYhOZRW0dlHZ1Sru6UOY2g5p8GCUQPZw/8/NKhHtYEfwBzPrzPSP2Fsc8ZbZayyaT9vMaVvGb9KVd1sdOpLBRfAC7pS4tsIEMbgDc4l1Swh/IA/BSspN8yCyVsY2IKU3RNgEZb9DMgw0Aw0GEAJL3v56eF9II5vhcG1O0xBcPVeE8plzXbktoIVSrbz1PtZHTlP25vU/sUMGPxI3BEG+nRrMA4MY+MQ5nlLuis2lxeckWfO9WUCTobA7VeXPKONP65VivRD4YCokc34kdS5ljkWyqy7fcUiHmTw2lyQCgec4rJtsmYb3CkoHf17Lg/OtXUOh1ry+FY5jKYTFvX8kLZyllNNa8QaaV2MGx0dJkf0KoXuGZX0aabFob5rSXPNcEotTQKTlvXmvfm1IDKpjK/turiJmkFpU24J4VCSn1N+w3eV2ITmWIwra1Y79M17h+0705M7IsxyFaGw86WoQ6mCZ98Ht3msZq8qAdU1BlQDQ3Za7CNrFhYR28WEYFBU+WKOnak/Use1gBlCM9T5lRmHVse1jamsjc0x6pmc0G0EWUtMZVbcR11KfAezgRuwBrq4T3DETkMETGE1o/n8Imy2ejZ17S9zsP7mvVbysGJ00dmoZSJgnB+3RMgVXVOz0GCGVnSgsAwN/CEejNApsgdL4VpoZKQsvMEAN7t0e5NC4zkeM0sqdnORcAxg0UNCA4PJQ2tQ8/o1EYwm/vd4+PU+3ECIDU/bF6ctX3aZ13wLZ91dqihs8w0vSFtNG1ZrEYQE2OIlWq07oycMpARePQ2kGnBTncSROqE7jGQDDx+OB5NxvaOHTOLv19eNxC5gcTTQGIkt/3hxg6mNA9h2joyhC0v5/7UccgEgCSD0TRHqs1zAY0RTRFU4h1CIlCJx55eNB1fsgnUXM4EV8reEQASgPl/FTgmsJbUxbPUf8ag1t/t3lY+bWWZcjSL6F4FkWx7AoHjDKqlpZskhEhs0/Fw++lBI0AtTBzGQaPsE0vI65qgsWwcUzYQcofJVuvTA4LRMyNpDJ/BCr69mroan5aHNVlH1lMIHwLJPO40tI7Nucw6RodNAjaCT1MXZ2KL4JVxHVvZZLTfVDfzWaQwLHm0A0PJj6jfUg6yLQogJwbWN8n2EZ2m+roKPgaSXpWtgmGAbiDxh0csRJWNVLaxpqeaekrPFsSsJmIdAHuwcdCA5vX7FIBV55rkdVwzD0xZzNu7NBEAckv9EtrHL9ZcqLlp8WQzV8dPWcDq6COLAxfdMsr7ebSX1pLp9TaI1DHggaSykC0AWdnGJ2NlmCqSKgRcZ7wpfVfY1PDBQuodgNb1bbv7O0tgChzrgRBAD4dTMnMzGbWs18tGWeeMmltQXZ2AV56jI4ZRKwBSC1x6O0D+7f9lF3rXmYMadoX+PtgXMoD3Up22XuYDotoottrk34M6GE3kufR+EEvy/lfyKvpCn+enlNlo+ZOjcixFpngP0GjbVAWO3CdaHtYjIFD7r041aV7F0gE28Ywb7oxYx3noKbcj7pNNccQ6LnlI0zmG4A+sH7Sc2Ot8NhvW6vuEerV+PEd192ep38LxeLvEiIHEQABoNPSbGUAAgfu7apdIIDBfAMS7VhZJAA4AR3wIHIpauHDAuJ5YOII6ZR9LCB0bwPudqo6nB97KVmJwU+VdbAtlVIIZm4beyQbqR4CfNngkWExFTXOpqvqGnt+pr9OQGyaMFtPoJmhiTC65OM5B5NwGkuYM6S1HamyVw9//pMDLh+Otyc4fPOrkSSDSxkKxj0yGwRuQXN5KtjvmEmgBRw2fZU/1wF0EUvhb9qgu5YnpySrguOblrQCZa4r98HupdxuxPe0ARxwK4Mj454JGW3XTuv9ZgGMQmgetvISHtY7L1jmAPgNG6Li4jgoeNZuMlhs5yjC0TfJfyPuSqKx1yeBwZDk+m4xnHWnGQpC5VL+ScKqy9uTje9ZvKQdbqQY9gFR1cgINU1WCB5IEUHxJBAbKUKV80gloFbaxCZ5quB2fKxqTiKBRbSlVve1BkKYWtLZKLDT09QW2JpycmfVjur6abjCrmcWju4LGDHopgDzCpqwj7Rw9AIyYSGtlLs1dTx248Pof20TOwWQFkGgAVUw4ZCC2GlSDvTSHk0ksTjUeRHKPJ5DE3xsreeFX/gcVB+BIxxizaxS6g6zjDDQOsFkmIpnL5q+KsFwuu8vJNpR/0Du4eFfUqEwLZ3xaeKl/EeCodo3oyrBtI/eAHnB8L7ax7G0JXSkmiHJYFyywxHdEhzmZm5OsR5RHDiCiafyMvTsgKkoy6Si2htHAzLaGtIeFtgumVfSHwCPqKMP9SGGQNturnE+tX002NBXhR9ZvKQd9usEuA+lOhB48RmASgm3lRQbjSAZzwjbqCbS85NZoyycwY80TSCF442ah8R0rkGVcNNoJJS9pToBia8k3JE4zXmUdM39iryibjYGrHB+yZrNgH2pf6tiO7B4dUykb2Xs41lBG3haW3UwLYbI7opo6Um/3bCMJ+qPgsf6wE4FJIYaKE60nNra/5ya1f4rc4ClhNo7e/g3zj04yqjsb7bgDLFRXz7JDXVhNfTEQNtKui1V24YKYCzy/NzU7QE3QbByP97uXp4eiuBl9re953zGHd6spBW2TWRCW2xs+E3AMQvN0c1jLntrrtDrYRMO2FZ7HAnrnbDLRc2FGGJG/zyGdorfUlppNbfLfTXiBIe9cxBn6TmhAcNyvtpYFb4mdpWEE07KmqC2+fnMuNTvkj6m/5Kq2zoiKUN9rBZLMvSzMlsDtFgjwtnIl6jsCvR7h/NIodwg8JlB1f3/cPfx8rLEVJ2rcaagftofOMWqPSEBUvJ51csK773BM3ls32Vt6ZF0MeO0SlgaOQOGHbO5KJlLCI1RbzPdhIik7dofAO3nAVxW3V2/bJLmZM9heLB5Ilnoa43YDk38uKFzc5A/p8NgCjlgzaOOoQfxtTMmOUOwgOxXWmIJiN9miIXrrRaCG7h2sRpae1hzqPrsELJX1W6M69+t5JCNfnmtLSZua7aDfkD0G+arzugx5HeDljoDL5kRUX+dnOiQe8qFmjGXk2xoEju/NNpbmTbOx9ZybWuF3onFpIC4DqNa4BXYBOIN39SSbTHaUAetIjGOZZPI8b8VzLGkEMyD0QcWXbA0JJikDDQiOcUi1O01a/JT77PX/+L//+/0vVLvYuFuhdrRTMxCZ6MIMe2WWyhvm4pc89XKeVXgjHg6S6jCH4EnoY754R43I2WLuf90agn961DAGyvYlDltVxGyHtk3bV+wHA+CYgA5iM1HNXDubFq5EjdPTE/K1E0OJ1ZiOKjyRLeex7oBIvzKqKjvaHK+lzuZ705ktKRxpV0pwWU5KQcpDD0Bbi0UEJP3hhzggvbOa9hB/A1QsnopP2Z23Zz5eAjA1KR7VcZ7oylYlL+HkjJdjMormQZ3x6LCnttHKOHKM0dO5CKIFxoqmYDo28RwM5CcqOSsjJRCwOVJsfsa9j9svRiJWDADHSwPasQEjYcsE3GtChXSox/p7t3t9HnU2Gav9knehzWeBxjQA4iZ9FHAU1nHpPEE2kIBuRLZL3thQQ8OZ5vGpncPawGO2VdQwgp7ZpKONqbrhNJvjQvJ57OfmkOOgT9QPOMfASUaBNLRxxWYzF6Igtlc/6mAe64+q/8d///vrX3VmoGAogBYLqRsy7y3MoQeT9YaJ44eGslE1NdrDoNoWQDt/YLuS4j5OWTh4POOnmqs0g0atN4NMMg0KZFJf6sJZwjr4iZnBrs3ZHE9SNxBtN+0sbQNA7kokO6dHdq5rrq4emT4LIFKLyBtN3mUaublH6lxzj7ZP1e/pQDBVbad7uSD4nNmsdXSTGlFtT4ZEBpMbgFzzfr/IvYPAkXaJFmIGzi1Og6KHvcJMOurK1hLEGXx5tsMJPYjVK1gzvhQJ5nUgAcAK/vrmGznfs2SfskPx0k4tr20ChCevcwA8ljl8CbBaZmNaf51mJvVp2rfa9mzQZkWkdjMTVVqHb9NhwMeM+0TD9+lxDbANTJgi4PhRoLEs1uOhebjut8buhGjKgM/jkuh1glFEbE+qmzVuJOucxFUMWG6N62gHkZtkK6mOMvDP6AXlJhBEjFF9npFEmENb1xzOgV79kBfwxUfW/+NwvP03ylONF9KK05iucZGZvroZ5VoyKLiFwXJK1hiNBhzzC0TQb3wl0FKWEs8U9i5Xjd9M529q3wQa4ShDu0q+KM3i4hlIOttg8YE3mAYIB7onKFaGyl4gYzSiPzlYeVoDp+A2AVX0KbOUAkJNnk2VdWulawFIW0LTQ6pSckxkupwCBTPG5PusqbVtHkT2AOSajdG2khzqJ1podOxyLKV4nXPW531kstVycQkIcCyZYoJK1MO6qq4T6xh5X0dBrtOBKLOWazuSne6iPNNalK4nPNgq47h2fvhmpvLXAcdT6mQ/pmSFi0CR164WcES/uV76NhA8Yi4X9nf12rr2Ja67X5nwsScju/cG4/iJgCPfjQ/N08MVLXmMhuXB84kJnHtYg/Xjvq6so1dXa/5nqozJOia7w9TKpdiOaR9K26sF9W7Ub/eVuVe/UxaMCwnWkw436N9H1m/AkQ1UAMnNV19kLwbThPZ1ZnktzQfV47bJEziKCrucDiaxE6eeyoy9WPJIZ+9qBuPmiyObZacRZqtxoxR5bUEr26B4TvYxeOFoB9C9sogEXsXzWuw1WSxPTGUAMFh5Vk+RccT19cAxmmIRmIyYgaljTd2AMuC9uDq7tRxMQeRUnR2H+qHcxxbcaepDPkMWvQZ7T6Et7u8QLLimg2NauO3fZJPzleTwdnM0VSDWFaqhozGjmWSm2UkSA0nVddMOktoDxIYcyvgxbwUZxxEgxowy0xi3DZXl6CQRjUthRjuq9QjQrahqcisB6xrGkeBdwX0JUZOZR1VZv7297N7ABuc0jx/1Lx1iIIDxYN8N0GgLoXvvHw0a0abB0DwKBJcsI+q63R9lJSwPQJjzsDbTMOznEl5HWcclJxyyjlQ5E7uAeABW8B8Fn0ksc9bynPo15fJH1P9jv9//iwHobb08iFwCkn5TNjDUCLykenmC0ZpdBXZGyciWLB3ZxwrAEConZWPByTIBz8Q2MlC3ZoipzFYCI7g2UXnn1IYEmdrutAClkwOZxKktZMpRa59sX6PsgG4GyeGGDF91DLoccNThu+BcY7fOHW+4KFe13KUdazqAt7zz6tmuLKTaiCypOaJa+F4SxZ/YX24wqoLohZE4dYPcnntfCcD+nQfSHnC0Rf14a5MbKe0MPFrmKuc8I/O2sI7ndMmpx8zBpqNunqpoma2FIVDOB451fa8Zulrd+wzAMQVwF3BfcoJPVda0dwR43L8upKY9530uPJsOJSAfRlMKssBB4PgZQGNp8lhonlXx2QN0GSUZmXlZS1xHzGkNrzNi65h2yRSAG+MNKmdlDqOg3hEQtr3rxPoztPhU9SfgKC9cWZ/U4KRixf+9rDE6byKzkkkQSxkxZPFUVY14hJb/NTvTELwlMLqr8RWF5TP7opydJAKsHjwyfzTKhKrbA13UzbA+lIG50JNhsDiPWIg0riKPOVO7HKplkg1VXuTPVlWPrnKnAEh782J8/55M5FTNzgONjgG1hbSNP4t0jLFJgcZ/Pjzbu8TBA4sJHZnwjvf7mrlmA5Gj4+xz3QfgSC3EYmrBkjc5qbgqIEme2RxXBbzxhMkuj1ImHRGpnWNrHBd2LnCOGRn7I2+oMJq9tmbbQ+4PI+W27jmVcTR214XmmdhQM3d1JiHgLGOflzV2hef0rD778PCwu7//dVnQaMKXA8NnAo5rQvMszJ2W9zUf01iJlDhD18w8rDPreHeLZx3VAAAgAElEQVRX5daM6+jyR9s+Y0RV2p/U3hFllLjObsho9yyWMXDUyvpbGXHUXvO9658Cx4ogy6Sc2ZB0gGRdR9vxqBRUwhYBwBF1qK1gTbtXwcsEfEmCd2UcEcMLH9ojatv5vIJAOuT4fNgKnr1Njm4kxaZyBh4T8CoLm1GVmbkT4MhQRAZa380Op6HOnoXGkHeY2RB6Lya10scykQoYmTt7FEQ+PL7YRMd7xgJA8wR7D3mmp0PC1BMbbMEGJC+zmV6zFJjFcw3AvFoEjsI61vAYScXgGfh5/uYcJYI2w9wpVK3inD4mAeDkvula23I+Ua/qa9jkLsUS1Dc3bSPXWN6hay7XZb2m+8WMFRYnHK+1Kc9lO1QP9ictvEmROxgS7Obm9kPAo3nhrjJl6DCNRYg8Mac4gpNc3decYCNlOwa9FZonAob0uAazxw+fZ9g2bwbmsUfSKr7OPKw964fnHh+RhCTb94qtoY1Zia1oBFqODUnWEWPLEl0kFUcoGZTBs6YGFTfc85KcZls5rD9r/Q3g6PtfQVDvZEtWqJVWzpf68+HFXtgMOKZVphEQdeoxXdiAHGi6t0AZnGM4IANryVFFbQ2jAVlAqzCgU7YxA8XSwWgACZOWB9jHAMey6uQvQZzIgRA/k4n6yUCkvVMxYvYbT0qD+GoxRJkGcTY24JDpQKSVKyF9ACTvbtNhZftsEtgksEngs0kgAebnlCo4H4aZ8q5ss41GL8ZaXDpj5C2PoA/LqaYhjEyPdB2OsIYnclp+F7ShtFB4MGMw7/wK/PxZ7sWy98bgMbWpOrowj7Qvo2VrmNABza9qHmp9Hrh1KYc220GV+Uj99o6dSRqdbdgnvn4dF3V/r4NDY0sOAkc/ssaApIILBV/8nWxhQt45zM6KsBJWDqE8BoeL01cgUlBmsTfMb2MpnaKenosjDnOGSiiNMOKsik/UXOw/Lr8f49hb2vwp13tnK8tYx4C9hnf1zm6rsxO4S30kE6n2i+l0mA4M8IKH6gGedr1FymeuIRuZ6qisD8bwr/v7z7Z3bO3ZJLBJ4NtL4MmYNX669oUDpheRM0lkX1iyI+Y9mB7Wfr0lIIyyhEWvbtS5Rj2sPXiEtomBw20PdkJpOcxoUG8tYxX4y8ylf96zlmQrCQB9iCE66zAuZCuguJehmYC9ve00sDlY06XwQpThj+Ptndk4VjB0zgybgokIOBbGL9v4TVS/enzIAItqBrVDQwdL9hmCx+xGRacODswWIJiqr1LgX/9pP6uBv/NJAvYLNym3Je3lJu10dlHeGelzAMcCtfOXqfd1kU8Y5ifw8isL0NLR9Mwxh8cHYkTivZht4ytsaKnCitNh+hapw5Mubj0QyXBQ5/Rue3aTwCaBTQKRBJYCYvtnfv6cJ6woe3Qj3aHHkIsspFRq6vPs4ax7qbKOs3VWwFuEX4ccauDopuxhCdKdWEcwhvgwqDfV2oV1DOI6ErhZmr8dyAYwudXWUcsA+NIUhFFgb+9lDfkgyoe1IUTKBiGtX+qog1tvb2+yw++rPZ/slGshMyu0zKCSuWTCEqrNW07NKBHsLeoPGUcLQeHs2OB4AnZmmp3lzAktdhAQZFL/1viDECYHmXaGzhEWTsXaSSmlsCoF/mSJKVs4YRrLnRxZI8+6yZf7wIDlEH6yjUuMVxT4W73BCZw/F3DU99qytekHWa82kHy+F3fyzHGUBs1s7OjhgZ7xFiQ+RxHAdQB9W0TKiZjFtGzMpjE6GSMUTy3lzxaTnUt0eCtjk8AmgU0CQxLQ3Mh8YIlYnIFEf/5fMFHC4dwAnMUyrOvpkp34qWyoZ+f89q6pCIkhGJ4HDi5IWUh1bQ8wax5rdAvAjfaKsKs0DEDbSKcPVvBHlbcCt1Z4HwLXtNPlLDSw0ZfA5AW85voLDlKNaFZdk8fiu2AfgKm8yt2PA9RvwBFAEY1HYbTdw28QxgTQ7MGoHSRDi6DaXIapARcGFJxYLP6hRPs34KhZYXIQ77QhTx1e0C56ej89ptAZE5tIBx4Ta7nfPT/RC3pubzj1jp4yWPbSjGZSD+pq+MDMNXZfDgNSQUtqXvHizhMIauoSdwre1p/+0/POFsBe3v0UyKWAvCkuJj3TfJftxPMCQ+XsOX+STKaxIW2MZTYyseowaZiHe4qy1vTsebVpLTVLD0giPEgaUtdkY08S4PbQJoFNAn+QBBRQXatbE3ARKKqUgeumee2shz22Ux/jfcjYUkFydoDJdo70cNZUghpQuxfXUb2cmUObTjtkDbm3T/YJYXUJ/pjDmuZSfL5n76i2hkZCBeBxxN4SbVPmU2NDemcdL98fN4fjv6Znf0X4GXgITsEjroGlAeNosbNuAADADta80ACCajyKBkUAkl7PGoBbVcQGVBNKNHl7b2d9CVMwWIZH/jJ3oLGBcgNPq6Tmnm/YOZROg7IXiDxJm4jf6eSijjcELGQUC5uanXFU9fmpvOGGVhZl4xyYxkkrjxGoaj1ItNh62fHEU+Jqk1icnvL9mAgpy8soyJ4zkAyHRCBZQWUNNs7ur2EgTwGRKdPRi40dpMfaPpsENglsEri6BC55Th1wijTtpXgmG1hxquAR9Xcvt3WksveHfqboM+yRYzsq44cyyDou2TqyvepkoqwhWFZvLxjh4ZaXdlFZu4c8o6oqa4YHQr+9l7eqyv34SgRcDU7eA494lk0qjKMKOqlzU2DrWWaWzBJ68GibcGYpE5LdC3jcm01ZVRNPRy/BY2UdU3YYMkP11FDjKBYWSdIMzj2xp7EICR6pQi6BwIPZSttKAuKpQ4wC1Wk7CR59/DfNaT1lG5XJvPqycYUKqo0nBi/kdX+HnOLJHiMBdYL1FSF8sjoZ70odWBBKZz0jqWxpba+OeWWxz4kTuQQiIQuTiXn0Z5DNhTRyDMszlTY75dbd3uTLxcfqXfm8HwxcYAo74IxjmvXlmGfWBKcWwW98rnW9zqa0LgzX7zqwuv3b8xMJbPL7WuPvlPk/e8cyAvw1bxtnZEdm7HS5Sdromq3FipzY2KWQVban5kLR9l/3KX6y/4wAwZGNLLJL/+cnTJWyujfHVQTriJBsuH+Sxq+xnlLdPKKy9mubB5AePKId5gkOlTc1Uu5F+PrJOmrZ6FMUIsiDyMJeZvDobSN9tjz2p9o4lviCbnNv/B4xjzaYBDya3j+KXSVxAbl5poGYNnWGyeG1Gahl7+zEI+zXxJ7AHa1ynSwL4AC3awxAbnJ0eJgCnshWr9r/ab91wNocyiA8xZCCijoB4JkpwMhs+GT3gIk2W9TbZB/K2JzXsNmkna2pBw5wdHl1QdhHhVMZac8+6oLI8YHfTmUg7f0T/L0m+TBYq9pgFtWGDucAhJWxJQu41jGZDgvPO9SQ/iRRK89qnemW2khuJiyrd83fE6q3VtS/PS9rnLeiGXh/m/y+tvx0/vo56udpATDUbvh0hT7O8KRwF4M4utZZetXWUfd5EDm/f62PRer3V59wRJON+BzXAGMR6+gBXSuuo621goo96wjvZn7MVpMFL4A/kCMRqOypnLkv2Zqb7fVLIouXN3P+eX7Kmer8+xHnITrc4JZkSpY0hQ8PiHWc0i/7z4nheJIHLVk5tVdUdW11sKnM5QRIYvDmAVuT099MmMpkWVtt0oy1nDjutJ0YUmcDbt6ByDKpKMyJPWPd7koCTCbCbKTsKxu5lScrek6RCJBAtTzYR3xCgN2ZjB99iSAOA20YLDpnKIBNqghKDvG6wnW7qPVbHvFJFp9R6fQdanSu8/s5bCTGLWNIksmn0w7C+pjd40sdr7pA0ZsvLbypf1gwIiayiFDGZ/R8HdnTOdQqU1Ul2obJPpKD3Wo76/yatj1iP3p1RNcoB+2zX6sJZrfnk+OefzfeA3ST31RGn3X8nDL//UHPz5+yd6ULZZ1JO2lmFaNrmY20JcepsKmu9qF5UMz//p6yjq24jK0V3QNDXWv4vTjbZG9rZU59aB0Apn+y93kUmsbb+inrCLAJZ16qexkiZ8ne0VTOGfzRXpFhgpZC/Ki9Jc3C6OhClXVUv66XGmNyVG394+7+7l+zOTPHgXW2Vqpi5vP8zXtlo6Fkp8zOzWVKUVtHs6sccLJRthGnGgiOamhVB9b7TjXwSMCXntOhp3TXNpInAqhwE2g0eYibLQek2n+Owp/3vI9pHSHrZMcxf5f0bPdMMQ8VjJ9Iu1r+q+GLeK/aOtpvboxqe6BmoAp4vUxiEEkVdgFZgrHWgkjLWPMIO2EeuhLr7T+a8jDc6e0g+1rCShSbHI4rKdNfqwurhIxgIxxiwPDkqXlipySN5hBeakP4vEcoa+vfnp8inE1+E3ksjt8vPn5G556eFAiGooNkdGDgYUvn7+RAndElyuM95cDr1dVBaB7N2jWyZke2gosheiQ8jwfGPgc1VdaWTSYH5Y5C66RyaoshE9hM0ksbV9TLuQBv9xxlhufp4cyMOWjbRGWdq1N1sz4fgT7aW6KxEw1D4Jfp1dbe21sdZn4cjrf/JuYwtWo9iMxqP6W6O0azChA9CGiDx6oSnqimsyDh1cwXSW01B7d5XbdSAk6YQ1VF01Em0Tu3t4kV9AMFv9Wc1965RsrLKmoMAnwg7xR7KY08AhCG8uFw/FQgEjYQFvswhZ2pdrC5tdkmMdkjpsEEJpDxNgkEk51pQjaRPFl2BTjzfNIGEM3BqVLoBJBoXzo05NBOI6vR7J4+E5ne4WSPKn3qqbT/+vtpEkOSMT917tkcNIegbG+V82bjd4wHPT3WNtQwUiddz6ddHzx2tHyTB2O2cXGzEBxZRpIiNK0xnAf1eosNTLJO/dP4ZH7z2p6P2cRNft9g/IjaeWT+R6Yntq4XEzCu6elfdWaZOI44s5qJClkxgO0NWTtyydA8um5HiFJSyJb9RFnTvPcaa5hN1wiWwNZB+zPtrzvlZzBGEA45IaC2ykyB26QNsv9FrCGdXSYxJl1/CQS1fto7Al+ktTa9V1NZy6cFIj14BIhVLRjGCQDkj/3NwYBjWmAqE8aFeT2QjHZql2Vkomqu99/e3VreRn7mzKMHd/BoTh7d3hOKTBGqmqoxCXTTznZ/f7Rnq7f11G6SoDSBumSXSFnhq9kAGDi1rW1qc5luNLtGBY1wHuFH7TF8+BadCx8GIsVJpQUY0ReASsZEJIOI32noy/76UAy62BQbV7DfWdY+PiZljvJKYvcAQNJrOTRViIZo87cxEOlV2bp4ABgCRJNtpJMW7UI9M6sTfj6up5lqNo/sVS9zu3mTwCaBUxVvXnIDXtX6yP/f3rVYx5HrWE0ITsEpOAVvCH4heEKwQ7BDGIcwDmGcgkJYh7AK4e0BwUte3gJIVqslW6PWOTOWuqv4AUHgEj+iPjTLu2lpngHpzAe9Y01rKnoYlANjWOvsq7Ou3qLmq+WVC4NzhjJqO/KzKEVjY9fC3oZ9ig556+APRpjDEki8Jcc7MuBL4y2FxjoW+1ovNbGhjTGOcjE5EgeKGfbd0ad2ccYsBlutWLC4FDz50C0SDkjmbmuzNOGHgZ1jNh8zl8LBDSMMTKxPm19zQSOZ5c6u5PnQajNaWxF47PUh28T8lwA0oqQRYjui6+yi/fJLQGQFjRiP1vTE57BE6rgB8nD4aNShW15azConR9UYUAON9gMaAWR28O4X2TfwSYLM1i0EurrzTv2du7P73LqlDZZVGwcs03xjjQkZ8D4LU/AZz738XplgBSax2S3+x4zcxeq7LDPlM0Cwt9Gey0rwAWdGMhXCyK5/zv7hMrp0/Lf33eV2o18vq3KG/381/xgIMmWf7v8FcETugim+4oJOrHlpvWazgAIuUNAikmSGmo5RrA4JmJncOFuiB/LUdYYlfdTQPMM3ZcxeE1GtbAPoqmNjD0eR17XkkMm/knBLV9niRhatjYj3OmrwrHNgLYBHANBy4UmV4/DwhDGXVako4PP571c2cf3tpXrsh13Xk+SY+PpAx0MdRMKyZx9xzN5MuSBruVnGK3N6XKQnlMRua0k2qc9pHNwIYFBayD8tpx4jXgUvRUAiaWywILr10JgdPwA5nInbXbZHd7rVoWRL4+g+fXNn1kyzOs0CghkkdHr1GT6ZJTIDjXK4sPnbqRE1CRW8AwT1pCZbW4/xw7MsmFBr0Rm1u8bxPN5BghG30RKzKoCcxdSewouHh3MrJPYHu7IRb2vzxgbEfmHXtoJH5jsIPXyWgcgmhKqLu/DHpsBgQQFXh9U2Q+zpimb8PuJ07J1L3n9s/7f3UeXgsvW70e9l0w+gA+CfAUMKBIvw6odHlxsL8DgoW9OrDho5oWhQcCUbEJcy9JdNt1l8IcatskZL9GSyciWj8D3AXAGPKM9DHlcYLeABDeMoq0JWEAmrI4O6qDyOvoexoSi3684+oxKGRZdGMKgu0KmCV5bD7PKO3OaljwpGo/NBaUsSdwzInsyqHsuYRIs0gAGOtrXfydI08BsBxqFNlO2xy7iru7eVtuEq7LVCPPpmIDne+OI7AwoczIFaRQDB5Vq69tOfb8C2nCq87lN0o4yBTQPRAI2HRKEak2L92RgMPAL07IDICEDacK8GIhegMVzjO0v/d+vvIaGlJNDYBqUbfgIA6ifYHkrAoN3axM0v3g5OTuP67IFHBvm7oiZ77ggimQZF+FbwpjfW+HP9wOWn1fFgpr1C6GclKNQaqUDSgdyP0IoQAUfrx4SnXcWVGR56H2Mx2TL3svZ+ldeZ9zlG55L+b+93a/2Nfuf59yXzj+07CyMv+7nGqPH+OwUcqwewgIuVi9tkcgWOOBC7arf/1bjmWhCc2+KYdwOPs7usMykczWllXMO+KDJTajsa7aI7oBXMMfDi7GT7nJNdTAYW4EfXAXK9Wo3fNqu1DQtWQ9fvLkN3LZewoNq7RlN4f7g4+VB3V62/FMOpnqSTwHGiPDOTM4PHES3GpXK0CwKPSKwIbxCRawYPYK22axbHzAXqTDFaKP01iotEHCODIGobt/AMJuEhFqQDDY6XNBTPALIo3YqN1E2i4OCqlshN0IhlYisxW2gbgBvqclakVK3KR246hkMweDyuj4NGdmEPAoQsj+ir1wgdmPGx6BEcUNmF5oG5ElBmizVbJvnmHAeVQco1jTQCkVHMbFEkpSC/F2K3ww4K8vPEGThCeONkfhb4scXjEuD42P5v79cyX8VifB443ej38ujngNFdnUUPFV3mSVO6f1PwWC2OAD1DqMsmcIQBBiDroItbbFq3PEKHWb/QzztCeVazcfY+A7BGi+qy5kQZxBiitM7ZEj0e5mdFvV2Zg57R2NgNzS5rA/8wKiDekU/hK7d5gyq1U1g/V2V6HPm8aRZJBo9XAo47S/zIZwgYTgHkspv4ppcOSvRO6tVucXd2v42mZ07z/dsAQO26w7qasH5a/2p9bGCnZkY5mPSrIft3VPcPnv6ABlvWyAVoNGWCAqPIbB4sfFIfs2c+zwHQfMm8jidu2xky8elQAZBltxGYMNHMa1hDYSUG3bMDxpKNpg/wfMcMfT4sABwqeIQCcMC3BpAYigJJFqoOAPs98ijgDwHUhFbdZ2AxCBkITLgtWimQWuSW30ctssKvZHHkd7m2GgQfgKvP32eV9Y9nEH90//BziM+EbmJXO9wuLfaUCvTe5o8sfmSFzul/W3+nD5er8v3cr2/7XfjfDm5mpWL+L+FiVHO1WRS5EkIFoii1AyDR3JfVzQk3abF0NB3g9BksjuTGRn+45pjF6TVK9MzEM1vsBktqBc22hrDY4gBlsrWU6GGf9cJCx1ca2ngYPK6AH2o7It7RwKNdemE/7XYbnSS5dCAPYVHkw4TxQ+Y6j2Inm34xr2JNJHo5wLGMfryDegSQZ67u6/GbHDvXryxUV+YxftGV2gQwloLU/cfuJMbP4HKtH3J2GU486sJG5hUEErc/y8jWuMMYRI6AusVjlkDrXtQUpxfOGButjsrNjwCNgVUXrXOGHjKvC12kxNHXrz+amwTgcSxZ4eNrV0KezBScCaj+HdetsAy+MUbYFQ6y9Y/JNThtcl9nrJENSN/ft/hSo0FUR5SDu1FcF+6Vwa1Bg+FYGyhOdvVZRqABz6wemhYyxu0FTdBW986sf5OZGDvXUgNw1P7LmpO/DDL3Nv8e3H9bfwfTL53/YfHn/cNg0AUgSat6NSDHviF+LpJ3bR8RcGyuassYLgURqxu7NlD0rtxhjT35gfIKMvm6rN3IL0odR3zVxs22IbE6angNF+TW73Q+migDD2KpzWgXPQTAEzTQLOvyOY3TZNws0/qQgFQTf6I7tUvDMpZWA7URyw8a+HlhwLHBhmGiJZi0FKR2N9w6GGOm7jPQ2JV9BhgdgPgd3+2nLoiBL1qD8qsCSLVGMYDEu1EMZBTXZrwAcAee4FhOtNdAJFkb2SqKcfe6gh5raDRHu55VPvmpMaE2HztN2qbA6alcLF/uskaMZq1tWQu690Lu1D4xudbYxAkXoMgeRUYz330+hiRU0EYR2E9qiWwgcQ4gG7fL1ZgcKL4DIFEKCBndFjcDmnNBYC2G6/zcM7O5ntsgl6vlYmYxjAIc2TXDJ2Tj2yi5Zta/jQf12JDRaJ8BOGYBlhiDCmr0f5v/bf3hXnyp/H+oR0gVGg7gCVa3qsNglVTjg+7/dmMMX2VY4wYjt3hU19H6ggxKtckkUJqBjeDG8ie78bV9A3PfvlOWteVNPFgNYZdF8LQVWpKnAkBPgV2RRy1u0nMZ4H0pul+qxzRsQFnTrY1yw56PRa8D1GSZyGLYLMQT8Hgm2/rLx/dIjoECW7ll5/jg+b89WiC9lICPZLw9JhpdZA1TGnRXdAdvHivWFfvxRhO1jqJeJDMY9kAEIBlE2sJ/+YQi5H18swQJuM7Lhql+JdSr5HsxrW0D3Ej2KUxtxbMrs1pmOMAYBAD+hcU3BI4VLHJBcHMRcGkdZEb7GL2ERCk5ICUcAICPNP95x+PjOTOgKuWYivXSYvv8bm1kG5c1HGIuxzqfHXBcc28cDxYuJGB17FZJPgjid42F5HcjLkfhcbN6c63NI2+YO8tdbQqcmsVuckqG1Y+BXwFedI1iJiBLEdsqaBU4DhaTSf8RcIxigpRG6iq/zf+2/v8m/i/xeWKiG2ID5SpBuEkBivBsuRhPVGaLr7c2ILfNqIDYuExsmgeiJspwBnYpixP8ZKCwyL67HteZYZCdkB+TU39+/t4SZVpyS41TNLm0LAwuRcGNXuayxo8davFjMee40YVjCSNsjExrgNihRiRV2KEotgM4LQefCh7Vejm7oYYxi4FG+0ksjtfMOs2W8pqfjwASLVtcnK0ZAycjWK/vN9Y04hp7TCy3zozPtszh2TWNlD2N2LsCzOom1qQWBpAMfIxpzG1twAvu66aAiQNmGdlMbcRJmtXv6zePfYFyz2Iwh0x16rO4HMTKanTkm3FAc6fpKEm6m9uUldU19E021N60oqyVYYtVmQjHVkROyOEQhO6G7qWAyjqU22XGrOgMRHISTlq/7CKWzkFk7NL2TmzNVgCyxOWUwuPfC2C25x3IOzC173GzAPOk3Ztd1uD+voBIO9XuBIVzXE5UzgWCayBTXUuNkWSLI4DjAfBJqQqnyxijx7GUjXDc0KJ/WBxv8z/Wf+Ot3KxFVYnf1v9YzudX8L8BlcHiCORXAc4A/Go4dgYcD+KNRTndHJcmx6C+Y32PrY4mhhk0GljdKc+z8rjMRDLrIujOr99+uH4mlzXk7W5hcHZZs9XR2mmJuTX2G7GmpQ8JxQOohCeZD/V6m0uUdKNgG8AfQNv69DrZP8u4ZjGYnz6Md4q/UFf1jB1iEOmL7woTVjBNax9A5cQkfgY4oB6lFfzOin3PACTGDfBoJx52x3766KV8AMqiEgR8umR3i2E0A44MZlvWcRMwvUQOQF1x87ZB0007cj3joFigoOuNMDbmQ6xnfcYsY2PpHZc09rmNOQOPDBzbGDGIFi/psakOHM01IQEukBJt8IxO+snRAfNjwyKUj48gMkqmwRAVQNrfOFljff7z548C7O2GJftODx4YAUBkoUudO+qtMpAckmSkBhh4y/aXAocV8AK7qfWAi1A34VoHrYIRFk+EeDSLfr1zdhd4cnIPn8SHWE5y5fne61ez3eZ/W//fif+NPy2rWn/GRI9+8Rm7i23fFm+AXCk61GksG6DEtRQBxJbJoqvYGimDgNVRYywhri8pz6PGiZVORCxvoVMtHableSLEcYnLmguDm3dtJ8safbd1IRe667Fa6odqPDa5TglQ+CxzXUMHNJlnZXzqJRw8/28/7MrBN2/+GxHl+NlLdGfnIHJvzvRUmDSxokk1Db97d/fXl+5qvhRAsjvZQcPoNzCFyUDSFdrRtc0xch5g6881a2MKnnpBdL0r2lzbiDfkWEp2bysIKuCQrnHkwuwlI/2HuQ0qWLPnqkXSxt+vGywSi7L53JLWYxQFjNV2MJZenucYolBWn07ozg14TiyV5av9qvx7/Df2MQORsEBauwBwdsiwmqTIoAZwjHinCZoGGv0TLTReAFK1SLqgvW/WSC4Uu7or1Sk5VgSYxUhmyS0c04P3cdNBmSeVIVI3G68Bxzg6Df3bYo0Piu5GiT63+XdX2G3953cFPyf/c1a18nz7W8VaPRgZ/wM48pjDRDdTJBU4Dskxjh6PPyV06J3LGPqeM61ND7DuRCOrGo1awq7JtySrBkajkjTUjA10GDTd826MdSzysVgn7fM+PfZyNDc/xTtaO8gct74+fy0KmJbCf1fbFSyZ6rbGiy3pBoKLKS4WZgWP9ii71Gf66fO3H2eAozb10tzZGP8mmDyAgAwkTj6ngudcaseZwt2EmXJmxjlY30gDKniMwKQ9nt2LbBZHWDAHayPs4wP3ZgErnRcAUgDeEK8IKx+PD+5/diszOGqxlkQMa6clQg2m2mhsXH+Ta0iy1RGJPZhDxP+l7mAAACAASURBVNdR3KNYKusRubm0nxhEumzgWMgefwT28GSx++amjtzbM1cPBGhUT1TDLRRMQtgbeLWfH99zUM1lQWyMFlsE4FFKTyRZ1ewSar/XGJ6mKCw0pVoc2UoSKT5YDRGEbm1AGKP9LLuU+7c4UiiG2/xv6/8r+b/wcA01Uf4HqNEEGbfYO/BFYeod/i8KzQBWLdniwKpedzoJES/yv8ZZws3NaudseR5FKpHz8IAfKfN6sFhKljXK4tg4y8Hc4hRJP7EsUw8FH2x1TM16OQGhs1hsvZd6leyC0BJ1Qc8Ao3339bsZCh4eAxwJiDnlVn2+zu+lNqIW+p5lSasLW8FYIegERLYVkmdg6SuZWu8t+cVPWZyU0m55IRdv3SGyjg6qLPnn6+dvzfKnN+poLCKECsAPu78bkLTYSQ6WpuSWweq44izepQTwiru8xDlGP4uDQmaJpELfozt/Ncgz38eWSGeHfvQF8PYMeCTejPGR6HUneFyBJN6NrJL2nYLJ2dUxmlW9HSNXhXYGHO1rthi6pHLXG/8gOcdO3VFWdqkk4JL/uFD1NF/oX+OU+OYOBMHPVvg2f6cvQhVu678ZI/kI/h8SZKqMNDmBMjIuo/uVgxy7yLw8uKPrlYKum6iA9AQecKyj1nW0vfrx/bvlrVNdFp2Qo+yNQyiV3pAT1HZMQV/tmsEjRgOZA3WKawkNiKJIe5ZpDZmlM3tXM7/tc6s3qQkzUXjQWaCIPn/8tFyId3c/f94XEXjCVb2zICvX7U4bL+EZuuZulhyDqUzAY1FsVpDzbU9KKxtW4swaA7YDTgV7bi70r8GVotw4BrLFAdod0+UuaCRJkLlc2uHYwdJP2zkeTf3py4ciYCwJo/8cb9uJEll4bHBbdxDrLuj2U4Gj/e03odTyCdxriWH18kwooVDiVuy6plJnrF57WLO+C61T8NgWsImEkTtnlsheK9T6fXJLJNafB0hXOM6sk0ge43qRM0tk50Xnu1WJKLALA0nneytIXtuQrOqoDqRKBhXgfKLHzTWHbMED4PdWuxvIwjF6sd1SLgpxTzKAyJJhzQN8hnUQk/41q/w2/+7qRR3Q2/qPFLgG/wPksMUvBI6RYUjBICXIDOcyxD8iOcY33PADq6Me6GxcBSDt/kSbMnn3kFkejKu8SuCRy+JoeZ1DN0ECUktQkULxLg/thqfRRw2rZTQt0AahOdB71pbFT5Y2f8ZxiityWhyjJRcXkjwc9eyVgaMO56W6s3kePIdqtbFr7ipgLMG9O+CxMGDPGrY/o2sGV4qYGegQAwHLoYJJTEfcz1zKht3UtolRVLsU0K4/xkis7PG5ZTxb0/2Ob7HMlIE6yMR95QxknDkR10FXPmpphgp2CymD5BoeN5eAMTobsG1JNbWvniSzqEM5irj6VxATqdaoNm9fewZjPQZztYXPfs+HN3a/+8GCQwHwO2JeIwAJWu+MYse1zaxovxuYNJ7y0kz95g29K5izD12W14Qw0UBwsZW2S3yW/xslB5S9RpvIsjpLpnoAHNF/1m+LkaxZxVqHMjr9O993yt7mf1v/qIA+yunMkrPARcr/OCen/C8+28ziWHiVLPWamNZOj3Q7DN5piTMTIcKxjs2YgLqO4h1YyaLD2OSFEHAHJX1wN/R3M1DIXdaId+QSPRGNMxyrh1zI4HYrDFtASd6VqdRFBehHzKNjCj9wFesj3OgrghnQJKDocsnBIip3+O/ekBkKnhg48ohfFog0QGgMXBjjmwELS86gIt4KFusNKzZjvtotWjO0je92AKQqOY0xU4Xc/w4sk/XLA3CswMeKftuvAFpspbR3mvWO2ikuDZS3qdnViKtEyRe+xaWofnKhItnGaGNmdy4QbpsJrmy+YcfG1Wo0llIHOCEdy/7AzdKslARCC22XVkddyZl1XRJnGEBSyYVC12YFvXZiTSYt+tgURM4A5I4FknvkGN4Z74KXHMRbdqDXkVSLG1+NGFklmlWzupPhKrbP+baH7N1yeq/A0Q5NuOorrNtWJ8pxXziTaR1MLhgMhZbFV2bA0Sxut/nXg2Vy28ht/Z0pEU6xy/8WItF+Sp6H1UH2PWg/pRZygn6Y/7kAeHhALnWBa1/iRUL/fBtYAS8VOGaSLNStcnDTou1nLk/A/Ftx8OAua6+JbFc6umdC62UyiAUZ2W2N6w0P2qUm5a3uk+aDrLn0dxNcMqCIcWipN13TP968ffff62eDzpb6hbiz6d7lFXjkhBCbebeGHU28A2UWLuxZWQHdzMywR0tkvB5wjxclb27DepLRepZj+Rsqv1MMaW5F9QQej0m07GoU44ZChTXL4r2ye7Pff/gwJBUgUcLGacpTC0k7cKyZ1xSvyaCZGb64t+2WG5onnj0PHGOx5Z9K4szh0fF7vq/86SyRk/FWS+Tozj7GQkLongGRUVwkeLcXe/eQBA7KdyXY76oewjFGhOoKrt5VbYIU5XjKSgTJMUoJE+SaVa397xRA970/FlBX4KjAFQqyKU9Sqrf539b/cKdw6NWY83/ZH2bRDyx34P0mtrgIhe0l8+xUlyuX2ekyFhKvFgDPPCsAjlGB7woohwzr6h7WrW5GBS0px8+ckU2RRMx0bimdU69N5asE7XfTj/zDRlzOtrZncIjlTHUAdXY1f/3qsYTqum50D8rsoDi3zmsHJLq864ufyXrQ54937z+UcjyH8ioRVa/+2W9uhazAzk9huLpOLEP1GXa1DiernexaAZBGZrZC9k06ukdX9amiqwihTF3J9fi0frtKL5INKx2sjxiHl8pxAGbuaweeXkwbhbr5hphu2ep9Di7v4hr3AGgfU58naA/vOyyPsIIOxcfraZk3v56UOM4RiUGF/09bHFebYZWF75Bh/HEr7NPGREbjHq2QbIlkK+SOYJlRBeviMWtumYeFg90gqKNYFBbdPBO5oCJXL6wt4PWxXp0kt5BLyH5lpVDer/1n7i/0D5kL4GhKADFQQ723RPE3t1P1cuD92/z7zUO39T9mmOzwv+t3ioOnTQqLFmIcXS84YHQJlVsc6wPemj1evCcekgMXeTsIAzBqbhmmBD3JyTU0TrRpH1liiQHIMz8KCJ0m8xZa1vlP89rd3Q0u677hy21ceiUhQlN4fSL+zWIeOdHFRgkAiTZmSS6r+ERrj8OSul6vS6kyqj7AXqTiqsatEvZ9j1M7syzXePb3tETCrZyCRz1h7cY7hvobm67vLgZvs1tjuLkzgLLdGAOLo2vLUsIFySqYOzZbZOUz4AU+igCrgkfcH10EQa1KP1pNLWHoLY2h3/jjjF/B61BXcYyjBE0GkEl1IRHjWOZ1deDYese2kxVnCRqXEvo1lsjRzY7QAOYBFTpnLJEQPp+//ihrawePQfD+NHd1v7nGvjMrdYuBTGIb1VUMYheLown+ILhfhTrKiERXDmr/UKrcT3E1UygCWwxXBdDhlmPgWfjS3GC3+d/WHzHAF/C/A4/85p8BVAV3Vbc6i+DvJtFIbnECDIm+Ume1nPr3QnGiguAAOi0c4e3buy+f4qsJI7W6CxDxLpe2cZ3XM8vLM4h3pEMeX7xgbmvcOFXirH+aLjPLrYzu4aFZMTlMxZ4CMEZip30WuaGtPM779/1WlyiRBfQr/woo3JHdkNmcsHuIcRxAJLJWNxf9GvDR21gp1ev1tNPSHDz2DGu4qLNNYu1Y/BTq6+V9j0kk/NwMSHYlltc+4E1kN+cYY7rLt7pwi0bsySwALwcLX2VAtjja7ST+usdVsrUP72P8HhPprny9D5tdphBqrX9qt18ZiPlKIlN1wQ6Ci4Dj01ocs9WNDkhZMlFtox5OfidLpAsjH18UQD1zGX39dl8KuNszZlnjOm3ZrTXWD6zUHKRf+I1AYeYq5htvMhDJwju9qzhYVs58RHjFkNUd1KHMLJgZcOQC6Lf5j+WUbuvPHppjqETZO1Xw6w0wBRgVYAdZ4+CCY+daEeskSaXRn+6qBkAp7+LzJLaRt1RUEJwtmHjWrvBd/WSxmQoMnQbSGtV1bDJGIpBAJ06o+1ZvYkNrHF+9Y33EQb1lSnNQpgzRQKPpUISL2SGbjS844BcZveGGVnpymFHxnlTLqz03TY5hEGkP98SCvdPDamH9+w13NSnOX1UvEokxruze+M0lcj9nmU0tb9PqGNakGd8/NQ7QYkeqi3cvIzsHkkxjWIWya+V0PT5/tWzWADiWnQLwqG+NIAcAAYWm/dXR1axjbAxZgSNb/hRwDjSl6wr9LussljC24Dm71XI89QrDPpYzmdV7nD1/auLKxhjbWEmqU2Z0o/WzHOxyd3YRTAQiIaii06zR269B/NmukOTi9CqsilAngZXVhmyJJ3RXdQGCdtKv5XQ0KYWVY5bcAstBGGNJfN5iLCW5h8v5zPoHr0TAcRg/Wwyo/9v8fY/wXeW39d/j/5YgUx02EXAE7ybs1yuLVF3NwPHgri6Cy93a5Ufkl1odtbajvQKLHF8X2NQWCd4sXCuSzXwA5O/ZjT+8R5ZH1Hc1wMfWQgvLsc/M1azxjkW2NVd911lfvgS1YoMB/+dP4Amv2mHhXkjqgwxm2Tw7zA/zTS4nack9DyeyqhVEYkFa1s/FyisBjnQ6GeLUmskst6pdQ62HbUjCzGg5zMHd9eNH94Ak5gAwBksgPoe1sFgcUVMviW9IaQqNa4HDSb2tiGHLWNpJ1DP5dgAnrLo9trFKu655HfQy+Bp3RSvijPmXDfxkruoz3Kh7QbOz+cDWecBlL2pUXvNQl409d2criOTakDZEv22hWpqroLMM+oxHHDj6OKLaphGQxM0vLUaSb84Af3NwYrUusMWRLYYzdzcrK8RHWjtcwHrItoz2FxcQnwDPbDXYkmFjuM3fLdm39e8u00NyF/H/EOdYrVN6c0zh8+ySD45TlCsHyxoMgZgBF8PNXb9Sq6PKBhuHVUA485OOXRpBcp0lJdkPqnvwGMxLZ7ofMY8NaNdbq+ywmiXNaJa0juufv/ZjN//nP/dNb5r8N7qZ3DlTj1djP1EBxeWuLyzyC/x3/+yicjwZiESjbTBLMCmKsjLDABTF5dnAUNEmAA3PCCIpptHATkmaCQpfw/IYnqYoDhLu3W6NPLMd9NkRTDRaVRoygDRugNUT9B6YuoIvt2LaaaYHACPmqq/z6Npmq+ESNDprhqAzf5ez1X2Ds7kegcrDOAEmIZzEBfB7AEesWOLObl/X79UqHNS99Feecn/k5X2sZ3Vnl9jGKuTYQl7WcHJoYQHHQHJmjTRLJhJUsjp2DPwAHMu467RMgXAB8KicT1+1ntGtwHHVPyfXXNI/Z4VjrxbhXxLXHtI6lrf5j/cnsMWyrMMrWf+2v7Cdq1uas6rLHhV39QB8gruqG3BcYoFRl6nVsXm2qLbjGTBohymEn8AauhPfN9PGlmn9zTyPanms4Op9BXGwAiJe0ayP0LV//3UOAGM8n7+6bPWLMBycm9vaklN3PI478pRlg2K7i4AjE3MFIhmltvceHkpcm9VHWv1wjJs+q9faPb2SrCMIwOM6btHAjZWpsQQYb6fXPgw2jQQUG529LBDfzrKi3uJ7mYe7f/s1hrZZYXaPYidKORU+jhhACSzFHN84WBo7Q9R++yaCoDi+KyWO6hxQsLzca2zZsXVTRYW/ORscIPf3Ao68blkox7zIej+w4P2nTj4brZAcpwqAaOtSku+oWoGBHAdK9d/KAmdAJFsiWdipNZLjBMtzBKhb4D1Z7OwZ3Oag7/IKNTcxlQLCvuE6kLPYRO0fV5GVMchdwwc5WEtzaJkQPKf3bePz2/z7geq1r7/Kd7Y4nopxhMWxorJ2vW3ZcOSext+JisqsjkgiG/bfg2damw7Az2NBYaY5FXCx5ZEzpO19k23mSufLAN6/u/wQb6ofcYtYr6HM3Y8fxYDyz9+eaxD96PgRu8hyk39nLyW/+2jgyIOLQKQi1VLz7/5+Gzj6JMZEi4PgbNZHfPPUSrL2cwGAjIqI22fmWjHhhdg9JOQMgKbGMUSZ72hjVXzcRm5WzpIZXSx1bhovWcp0BZyBK6vHaD9GXjAQAIFbZ8za2usiNsuWgEcHDrWGYrMSj/GGQ3R2GdjovgwPCdUdjZtrwPCjxbOOs8SkVhd2KXdk9276wWUvzjTdi8/0xSQmkgF7O9mPQM7ma8LUBCzHwfDgiwvm/mdZb/DH+cnlFki3qvv1i8pHl157CPkAPi3/VhSgRfIZSFr2oYsNz7hmix3KAaEts9gZXVBceaBJ7auBQgBgsVjOYq2i/lnZnOlfb74pa1mT4FJlcpv/bf1buZ6aHENJhLAaIkmF+ajFvZkMquV42ve4q5pd1SGaOZa4M5CJguDcnmYFM8ixJDuz9O/G8s1km7pw+Vl4PGD4+mahNxyGXutfuoJ9c/fl03kpahZFXPmH+6FdT+Mu8Z5PYXHUpVB7vYTjw8cPB6tjBhg5bpFlKX4f6EDreFXgyORhEDnEQ1YXqREgsjgqSJxZHHU5RnCBb58aRI7uYbivdyyQha8qaETKvoJHA5QGFI2eBiJhtWTFbkBQQ/oiAAm3OBfgZiCL+EEkAmi2M9N7BIP4ZkziaCtQ3d0GXJzB6V7s1uhu2AHfge0vIzu6hQfUNtla2aypxf3ktSfbqB9TQum8TLjCG1HVgc7n4BFzWShILC4Nc5XULLlhz4pQgvBAbKLf8rIoas9SvgpO/8dO314gXq2ROIREWYBnLQdY1ygukpUMsvqNd4zfS0FeuvIQMY6tFmNQ0ifSh4gxTLOy1R0PkCv9s1vNZMnqOrMy9sDi2dxj95XfN/u/zb/elV1d/VFJp3/T+pfjU0mufvCsagGOZe9oyMshE7kCwGp1bO9wVrXmfXB8ZFMYfstMlGGtwpMTZ2zcf/21zrZucn8CaFclfKyNcqNTFSq6P//5ez9W0ZqIgGJU9iwL37Kx4MBv8v/vSgfowCy8pwNHxDOO/w53otL6PxlwjEAkhDUDEignXsxDMOzC4ljaQHJA0w4EYoZaf87O1/+5HEDqFYTuzjUF7aV+hptZKtj0Ooaj25rb8dgHZH5zFjdiQzsFjlZHvx2GrwTEOjGQL0CTrhk8ZmL3UkX2PkA1bpVxa0gMRBBbCUDMGel95A42eZzYKHwAae7xqjRHa+ORHtfnjadsscd4mrK3KX76aPc/OxhqJ9EC1tehIR33Od/ZWhn4RAKLldI5b5Hkw1sfL+9zWDNs/I+pE8mUjkCkyaBCk8J3Y2ztGeCod1avLJZZjOOQN0DAVYEjgMs0xmySVdysryL7sv5XwPE2f+djgKmXvv5lHjVGcQc4Hu5sJ3DIlkmPZNqv48jyp/yeReokMdGZm1YtiDvA0LqPSvogk5tvMrPM9N3EFgaJpY+ffkuM68hzoTuYF4Aj9CTfwqZJhftgMcdJzwIcCaIU0625QNlEyu7syMK4clU34FgYTRMHJjFidetfV63HANL6cIWVlH1JShPMShaswKNt4NDlKOWNuNRQYeQG5lyxsoLnmAcHInSEBMqL6CqWJlwLxzUAsVGR8FAOGg3wRLF6fW15nCokWgZ2vaHG2/fwh983tnGPK80SXWJRP7iFBLU5n2JeiLO1NTMg+fnrzxZasTdaPNXjM9X6yFv4WiCSAaTRp5TSqoqnZN82fuhXBmZZ0RqnCPCAKIhZOR2mkdbTW72/cnVHMXqaVex6uO9XjXFk4HybP/bTeAfxv3n9yz6pBcBRbBrFr8G72fz1rmpWwyFw5LurI+FRXQ1tnwQYJirTA0sbNzkDiVmtR8cUPavYdVNvFXVh//oyT26JQCLLuEu9LCzTuMYi3NWoGV3mUcfdQDzVWm4zaifIPaPaMwNHEZ12mXqtdGnjbjFn5s6u9x+zu3GlnLi8i1GLE3CceZH9qy09hTt7BJAc01WYsMYjrOaUfo96WWR5BHga4koruIPlcgCStHkBHotrnCyVxTpLoK8BR42lSwcaMKKAyCaUEC92iFl1lTdm0UcHgm7hPK63rwesjXDLI47k8pi+i1fwUS8CxFnM4jZYlJhcA5smny1Gpt0h3hZjbp3k/ss94oe6mjvTmyfUsFf10hM5j8J4AjUksR+QRPXwYDHGNe6xZlUXIFXrQB6A23BAdcvEymIJkDnNzKY6lPY8snpb/4mrWetIqsUwu6sYYwKdsjqIt/mLHPsXrn9ZY2xJO2LU8IcIXMn0u1WRrhwEaBnj5CRBxhFaKixm7urIbZsVBp9ZDkcZkcst3gNRrcVdkHjJ7S1OSw8zwg8DRrYiwthiMlp1K9opn58Ei0yZXwgceRjdJdsJdGSmXRBpFqaspuAx2FOBzfOBSL6f95JyPOxixvv4LDrlwTpVGFAsn0yvETzOAEC3XtgGN5cm3NDsDuxWyb3TzLFH5w9kToeZ0tPwAweNViDV4vQgcPi0hz3E8Z870Oe5n0HssNG6l2EQK/akrJWtPQrFIq4W/3L5It1rsNBqjCOP57vF2VQX8Hm6xCBSA/IZN51165Qba7555iFidBWHlSMKXXmI4r3RlYFdKPtvOxa70SPSqYQYs1kdxoym4N1Z/w04qsavjUb921ecVf6Y/g/AV+LLbvOv1SAmdTgfQ/+d9S/gqlSk6DGOxvczq5wDEDBRv6v6UAAcg8/Uq4JHSbDMinBDlpfajuVmNg2i7JZD3a+H22IGMHWkNoNFBYn2tLmcIQfw9iV3QnPPaln0fpxXMNyDxxYGsrQ8Gy/aeUltb/wmwJEH391YuH5Hi2ausqbM8piV+1E3piZU+MKTOye0fl1G7KpehoxhWCIvB5FIFqlAe+ECiLK6256mAt6h5dG3xWHyltUMJtYknZJ1fbhPGu1wQkxkUXRtjOxujceyVvqd15pcQ+0RaMT6mitOSxqglA8m+FuBSCsM/c7CBvqd3QOIqyVuPB7R3Sce9/KzueWN9xG3qDISLA+3bReyx/ukC0CUmEkASGtnGpKxtXXmlkgWzmcskf/zn+9DDUnUO+S9VwQzJQ4BRNrnQ9WBpCByVgdwlVzBSQm2fOoqNqsyLEBR/Tp1dUeuZn1PcwMAPI0uForQkqhqVjn6b7wRHNZu8/e9p3VAX8L6O5zw4trtbuWaOAY3dhbqUCatWdV0k5oriM0YawE8Pha6FpFkCAPHcugKrujbAYgomp+Jp7dvfewAjBFILOtO18OcKTHG/TJGwR508jpahNWRw8a6h81XcfTQ4bMt4bv10G8IHHncPfGhMQjdg6wg0HnTy30Y8FllbXPsZBRbOSzm1QFkbZ3ch2wJ64qcryrcWtPgIbllJAlWtjR+y+DEz9HyqODOS/sAzAwrVzLz3Bo+ujEpK/rNm7tPn96XDdGzrce4SYBSB3W9LBMnUzg45Q0zSJZmabRP7T1LHsEPn6ZbAgGd5vDcLwORFRDCkluEBWc2VyFroBKnbVgQbezIqsU8cBjD37yHwH8MNrU+poMLfxuxgqwQACCRCPf4RLQ9EKkA0sbHgttANKyNSNLiqw6VHlnmeQQkAciM17mWossjK75t+yDwoNy9ackVK+CnruasJiRiLKM6kr5DnLkPyQ31My3nk12ZOMjG2uZt/i97/TlOlusFllhZSyTbvavaZBJK8SDpJlJdmZGjvt9EOkrzWFuR06rGZQ48+XB3t3Oftb2TlSez0BX++fOzJ9UBX8xkTpE/RobIpRHRAhqsLkIGGOdgcdLwtb4qa/bwO1ocsxkeQWQRhHRsdqWaWxvxPINQTfwAuNBR9FI/T+HKrr0RiMQ4AJAi5r44YxaTq1YsHNIQBsoW3pXbWuMoNFO2gBcUFvdJtfu87VkDJtavza+5oGtGuUkJyw7ToF70Adr8+J7cWx1YGlHSCEHUWdmWDiT8N7bOPBuIrKARY9GanvgclkgVnAB5RQhRcAwnpLAgYuCItbE2+YTL+8Oti27RdCJ1cGTrBuvlfgmflXTL3dmNpQnYsvKDZdpCKtxN7TUts3I/7CJq9G9CfdReCiajOpAM/GaFwAH8tq4sZNkHQLiIkUyTGxbAMYyxpP7PxFje5j+CMLYE/+r1R3a4AkfeXyobfetXkFVBHw5tTXbr3dRsVYzc1OzYqjdNZVZHlRqsg2bFsEd5uS4zZlf8ISHUwCMOZxyzeLZ8GGOYqGQOxy72/IIWG7ASmNf5XnCJYaHf3OKYzdtBJALAodgNoJiLuoCVjVtptPXI+jJYJQ817J4QRJYjW3yHr4IzAAQ2k884BjESOVOOZUo6eOTkIrc+ajaznrDUQlaKutbSSQAnrZIDFxWv5nZT9F1QdavjYIEmoOnP+rpwuII9P8Z1vmnXM2nAMdOOA6I5rgTPPBmIzECjbmIkkt3fD/UsR6HodIM7AzF+LW6RAUittWjvs2scIR14x4AoPtN/ASBnMbWPk2i5FbKsfrV2++9wnbulwOflZYs4o39mHTgDIruCdb41/jAgWVzNdU8f5h7cVZ3dPHOUWeMnbPG0wuFl/nrzTJBgAzCHagcrVzcspBo+EmWVm9X1Nv+Xsf5I8oqyqodQB40MKkq4xzhyKG0r9cOWxEFAiRubZJzLrN5uFuvIzbEOWlkd4YKeySNc72fP4BCOWHGbZ+S5WMm3TKawOzqOXSyEXjX/+O+p8orJTa2R/UKB48AmDUSa5cnAQnc57hO4W0367SKsEH1fzGr+PSWIbOqo+QkzE/gABiDVKfAweq/HR2jmoCcRYJP0AtBjRjMn5BysWQea9cxnXBGFeljdgsj1KYNM6VpQHBZmvXXGwCYXmG/Cp5HRAQSAK+72tOd2QGQEIAEStuN4Zlt7ARrDNbbCvTWLTi3qZV6WtAI+oEx5DKPTqIcSMGgvwLve/OLtwLo4rg/4ZQ4esxJZl8i7I4jE2qI1lJfSG2sALDmAfeVeigR+USiJNVKBpP39gzLQeYv6eOYxcllGNtcRtDArZGPrXcsz4IkYR3vG2ih/U1Y5MPk+uQAAIABJREFUwCW7uzVuMgKOZc7ffx4LSJMlH0DjNv9fu/4eSugWUcS0greX619jHPngxsaJi2Qj3Nkt7jJxV1fGjvSb3SijPx/yW/nKo5z8Yi5rHDKNFqhAYX0ZMF3JjEHGkgdHZUYJG29ypBcX9/f3scwlUtQV4njrTo533rxUi2NEmm5lKmRucWqoxZQTni2N7UU5lTdlvB3r+BxA8ggoD5RRzdS5eI8ZcfKgxIrwBhHNgsNJUQbE9aXUBerrJjF8ztEj6Dn87Z3wLTxDQtXgCulAg13e5ipnAFnAQN27mlWopUmuaoncBI2DMCoDcBMAwF4DcENdzmqCa88rtxwTnxg8HtfHQSP2D/fpss4JyOEMvUYo930toTiCSB9DpY3EEve1r7xDFshdd9PMEun80+flBfm9LqkJZKdr/x48hKxqpk5xnkz38VgOCMCx8Ui1+PlOchpliTKc1W3PHe7qDqyV3F7karXvGThGY7jN31frd1j/AhCrPOesaoDJYedCz9KVgyUUpPJJA52sD7KaxdywurKpUsTM6hgBx7//mtdatG6zotxRVrTdP48QHUvc5Jh5lagqIzjxTvXfL3FFq2XxoLcp9ofk6b/A4qhLVcWj1IiE0uN/s0UeAtpIUObgcWZBeU4AGdHiSp/RRkZm7rkr6DCO+KYXrMvcqhvPJQWMpdGebW6u1xZvWa1vcF/ao2YBVfDoAGC0KHFIgLqy2XU3KP9yD/giq3ACGo3mLBQ1W3p0EznPDcXT2XeUsUSzSA6qoZxEUf+y1UolqyUsoEg6MRqU5BjKvAZ4hJUYdD9Yg6/CrgyA4VPr8bVFQlR6qFs7KvGTWfd3lASeKfeAt/qofsgpiUqVYTRGMLqrOsFsbRiwGGqMZUnQ4SsH1RNhANGueKtXzWV3dc/6t3cZcHBW8aH/AHnc5j/S/1eu/3BIkazqgefpvFcOjRTm0qR95YvD5W14gEv5tJc8uab9kBtodQ2hjeN//14Lkf/57DINP5wlrR4IyAuAwH69n5f2snh5lhEMFiOrImOQXwkW2xJ4IOpY/YS8lFH9638pcGTGGeMhV5bI7ratbZCCGeTdYHncdb29dBA5nj5GAHnm6r4evwkrVeoun8iAIYOXfcwMGMv7Y53QweVa2+dsY8R5qQsb7sACygQhzjKyAaw6iIhA5AioWzxmBW0sbJgkzbI6syIiIUlptJKv7NqWZ0usaqUBYiEVd9rXHAMK8KiJOr5cFsfELvDV4M58T1pI4oYZQLqC6FnjkQJhhTgbgSoP1LiEuxwxooOkCq4cLLx2b5nZfuiIMls1ucKei1zNhc6BlbPPqd+cExUQ5/4jd7WtN9/V3a5mS7LK9ZDFwFeB023+z7f+LmtqTGaVdVk2/nADEni0lnVrvHZa7uTAEe7UyOr4f/8cPSbg7V2gWPZONVBmYV1WaaAdBIvB4d2ducOHknpU0ksti6PM9l355D81G3o8sDNYdFd1+Wkbk8c1YpxXABwH0Twk1TjQHl3Z3aJidOwmblX+Q0zYxQu/CzifnK1OdnAEkF6Q2t1wT7MRulBAYlSzamH0B/DU33n3/v3gUi0KmWP2xArlAsTjfBD87O90Us3i2mwoRhMTMLDUcCwnWmnAiqyNbqnzWFsTSt5vLaNSYw3dAumteFb55KfGhNp8TMDZuK1OX3nXrsEs1sGxTiEKuvdC7tQ+mZ60xib2FECXPYqMZr5TfAxJ8LHofltaaE9ybb8Wo/YXeBPUhV3GFSTSoOuVNdLmiVJAyOi2skmgucvpzlSzKwtnyTXgxVUB8SxGsrJbcVFGdSSHrGpGfPW0sGsx3Llre5qVrmbPquhu83f5cK31b8lMckjWwyH+5qxq3RODV+FQlDrwwnByjJbzkVjHx4BFrbPoez0Hn2pxROy4yS2Ldczc0APGCEHZaUG2eCEI2Sn7hGlNOnw4wSlYLC8e+ntlwJHnf7ytpijoek8zZ55yDBdaQNkfdj9dvvwv1RJ5BJAlvqXi7fH2mEup43F76h4eYxjl5OQwZOjQ6kHyye/g9oXFq2XldnBhsuTLJwdwHA+rB2kGkqi7WIR59duhXqUBSvYWGuA2INisVHarTz0hWrIXwJgecmDxDYFjBYtcENyUAdOArV7WlgGab9/uK/h38g0AkibsrikvfcVgkQEuFqCEB1RrIjKtC2Bum2nlJomF16UcdbhfvTY0uq+x/r0X6BQEynOt4ZnCQeFxO7xwrU1XVN1dxjTRAtKwuEVzBujz9mLgZ2tfFGXib24WJUrOKY9LckzWv/fd+1eLYVjOxzeU76tFOaHb/PMwl6dYf5cNbuHm5Jhwz7G7WRIsVGYeSkFGrmruxDZZYLE0j4e6pGdWRZbDXnmA9/UaLGq8e7u1q4bjWPkxoxcnuDQ3NPH50xhVWN9JunvVI60oOO//mZdqYQx7xcCRuXN0E4LZWZkzYIBbFeVerm9le2mWyEAh1XIuuAvYaIoyQL2+H1la5Bo4BVt6e1BFcQvrpo/L1hE3xTSPaE+ebyCOLZAMBOx9szqa8oX7umOefhqbZWQzt6FAt1n9vn5zAQ1rJFsbbWCwwrX4WpTVIbDjp/0u/Azs8c04iDk8CHEA4aq8cX+zPTfU3ry7K6WL7KdYlXu8R7u+z4GDZ+Dz74hpREY3Wx3dHS+n4yTWhpNwrmuJHN3YWCePfSQrdwtZ8SfYCpkpoW5t/F4ShIynHcj3WqaIn+VQh7fV1YdSPlxAfOaqtu9QwBuZpBbIz67uGfDccTXvuMozi2EIOip2hOXK/rX6muYqL4WnpYD6bf5HkMNu5Gutf7lwoYIHDsuZrn8Rrh6Lja3TvHqr+O5BHcNXXMV78K5dPOHZzHGcogJF/xt7NweKPIwsVtHnVBM5a+1oyE4Gi2PY22XuaMzT90Q87uI2r0aBdvhUy+aQkBThi3PGqxtwPEizY/IGgwQowrjkS2T5ysTlv/XzGEQCTJhQYSsYqAAzP26IYaA+UCo9JcX0RKkgdSXwKZ1wUGkkcmEDPJoiZgvbp489aaW4LgLDAAteLRZrwNH7dMHSso6b5K036VQADPDXwRvdtCPXM7IHgq2VAEWHWM/6glnGxtI7Pjb73IRvBh4ZODYByqbV+jsytY/3WhOIjFw6mrl/9bCII4g8xkCOlsjIjc10+M+fP0rSABSAHjxYtqhVAwctBpJFAdIwC9tIHUh+BuV49Mq7ITaNwBssllFyBiyW1v9wjRtZDWfldArvkiWDx8DlhBR42ntmCef+u9y4zf+p1t8y4YtMotvaYIWMYmXT5JhBEJGAnNwc0w7KuC2GwKPtJTvYsieKvQHO/75JHgMWMffGa/WO6AaGUQWkfGA31vW47zhOMNf5SPBErCQbCvRwiVbY86EeD9Oj7crZwbAAAMsg9DyovQHHKX47WiJtgVBoHJYzKPPS1ElgM+1++PLciWC/3ad8MgeRp3qdmtRdHcU/3j+u4zNhou7kIhyqFlwBSLZA23u6WW0jM5Ac+ILiI9lChQw9B501ttEbD4KUe7kdvSvaTvqIN+RYSgWMPG7OzC5jreZYDzd4e3f/4/sQMI1TtY2/Xzc4lrsZk53G6yNjqyNc1rqGkSWS1zqI4zlj1dhiwLGPGYgEgGSlZYeMH9+/twxqo9uqWDBbOVhxRRZJ+94sDGyN5+SUsAD4wVXlhGBXcWQxVOAJ8um5ABZDiMJiTa/lhIYbYyRYDoWn1dUOpbmqA9mUaT2YwsWO/luyx23+nfMJ0EXrb7LJ9NnUVc04hJJjWvKKbaFqiUTlhzIANXrx3qUrC5sM5TjgcomEe1kQSqPF/CP5vNrys73HVsbO+35THXZQ9/rsAzEcKK2kj/WPxButSrEau9PUEnT8nnEzzkAWfLXwo5KoiByEmc7c6unfVMdxb8KXP9VBpAlqS1rAvoMCHtp+MgCJXl6aO5vGPQlAdi02i1lMAMYBPI437zgY6skhrOA1yWUKINlUGYDHCEzadLN7kc3iiBPsYG1EP3xanwFkxIjVMi+w+EGwcX1HrAQAB4M9BkfFlSyZdhDUanVML5FlgEC/d6sjEnvAz4kbhX2ZB/7odT6bS/uJQSQU0xgX6ZQFe3uy2H1zU0fu7Z1gfLVEWh962IFV0r4zMIlYyvJsdWXpthtYi2IUfW/4XNRimbkq1WLYdnuNkSzJFuJp2+3f2gJwzPrHdplZTC/t3+gH4Pza5l8ADFuUg/uq280wFbwUeUJ3og/JMWcVcClZ1RM7LORDY73twDy7PnTW5QosNnVE8e3H2MV9oFglRPHefPlk4U/OW54PsEhyPEu7WkOXPXx2GPCknsf1dbM4XrAYvj/eHa48PFhwcEy5OOt6Z3Av0RK5M68rPSO1EQEei1KUuOsVgFQwNqCESUaexsq1g8bDQ7smUGMBh7an4LHHceJ2GCSuOAU9WJpjCx14+JWBAEAuICU+EXXZGoi1wtUe64g2hlUSUN2+4/FXADgknx2u8iyjqq+ftETqdWVlYov6madZLbZEgpYA4gDeXIOzuPokSxu8OAORvD6zpCx/ziekYBKZ+pGrO8pKtjaiAuB4v7mrq1XK5+bJObPkmFn/sFjiykMrY6QF0KP+1WI2u+v7Nv/O8Ah1yNbfQgQsY953ZL9NxiVLTWxCdRK6GpC31BB2VBNu8H2zTKrFESKggsYPHy355N2d1Vs0HimW6FoVI6qlmG3pHYt+G5tUXeHYbn/mMsCIePktsEjhOfCcWYy0zR+u6CYbFnLOZDdApB3ktvpPCHkDjqeVxvEFvq/ZmBkuzWbJuXosVjbo1wIi6Zq7EHQIfRLwiGBj20AzEDmE6FRZ0UBkOxyQe1lMGxyv0uLfKmjEpj+4qWkK/M44sxEUHq4VHMCXuLkpexxz4YSQFn/YsvK85yG5pado1y97QgnXxWzxkjx4itlcn34nIDK1RHaLs1ldn8sSyWvtgHWsWVpoKHdpZwWHV6JJlaA9H5WIioCkg8Lu5jYFzgXAFXhlWc3sqva5za/M0znpmWKWFR45Kg7vU7IVYjHLvxafFij65l24zT9d/1JpIQNJ6qqWcjsc77t9gKu1a1Gg2678i/iGkywteS+7wWUFFl0G9x7gATpaFi8Bi46AkbBYwJpZccXih/jISFcgdAhlvFCxw6/V9YsFQGc+fI5x8H1+qGxh7WXjWcmeG3BcUejk9zCl26LB0nAEGWdPKicH0R5/qe7sAWHUP1BmwMEL6oaVDbcDHh31+G0d9Se6ZrAo30mtxghEor0UTPYHhthFuGvd2gjh2C2IzQpZ348um/dpvSuCY0w2SVy/q3IZRTb2e6gPnEfZxt0F1S1wGgeK98v4Wgyn838rCH7KbbIAkTxgdmnrPaxFOzyRJbKMAfza+dZMJaNrewzgzwqOryyRzH/Mv5yUlV2TaVZJA5CoJWnAzRSKZmXDMjXE3gLJ1eQcGJzNbagWQ8QYDmW1IAYluWdVRzKyGJpVzLPKR4snbq3R+MohwUf6v81/XH8DjofzGYVklK1E9RbLrUiVN4q1EgJV9yDAaKl5ax68niENsBjFLra41x8P1e16X3TCP3/3C6hXYFHDkdj9/XjL4gjSUH7tABirPrK9gvh7vgebZSf2jR6UfL97fDyDRyRz2vfNulhLB7V2q96wtq1dvqxhhThuwHFFocd8T0AFizOCi2srrtlgXxiIVJdjdYO0GR6UPlshF0XIW8kIV9w7ALJsUNq1GmPG2HDELi7cHGSNB4aju7YCiSpAtTSPieeWuSfB4o73CHxW6yCAcrf6kYlAEhTgemnX4VX3NY9jsKg1kNnHPbilhB0d3PbYGmS8j2Pf3HBDfTJ9J0qskXmjfFCrz3TNvTjba31sCiJxprnUAql8l5WHYt5FwDzuzm4xfOW+4d6iZm8rPs8sljYGi/WMYhx5zwCDav/WLyyGQC9q/WKrZ2ax3K4DKRZLjPG1z9/o1wCibjeKQUQ5HgBHW6vCbyKvLSkkAopoWmulRpY0JBZCtpnV0dzAq5jgDhrhaq/yuQiidprZFETZY73+cAQY7S2+PAGHLtNF9jxiyGFt9KF1/aGHSU6Qs1JW8Kah9FsBkD8slrLqCNEf3g8uJrCkqLk8vAHHR7LH7uuo48bCsse6XVNprUb0UtzZ5Gpk6xC7Quge6nDWK4vSxAKpG7UAx8AS2RQL1ScRfKh4sQ3VNnF3Q0uZCoqZnNcJ7YkhLeaGgDHHLfocZkLhzRBzac+z+/pYtLtQqZOeE2nYRMFMHz3fAOiKd1ffR7wtGRmlCQbw/cDR1nzFN9NhnDmgjSCSaR3FQp4tLcI8HPFuL/ZuRU29rBQsdnzloCWmIPmlFbYnYFlwAeLgpAC59VviJOmu7B2LIbvKtX8ydJaViEoNsWUTz5SHE0CsFsvb/N0zY+sO+tvfsIwV/qwgu4BDE3pUx5GBYwHzgTUR24gPSv0z/00BElsSUbvQkz3uy9oaGOMawL4H1BVNh3k8cJALK1mTfw8PkI3Dqiq0nyofbU7GXwpgMVfsc4BHHP5ZlvMBngGlZ1X3OUcJYaMc73rnEL8+kYM34Hg5f1z8Jt+xjEbmCv3irhYvnlFyTzWG1RBdoXW3aPQ8g4MLwgAEQFoPbIVEj2pNW9VsVPdgb8d/ayUXivDSwwOBoEO9M143BUsMJGuPmgQTxtyOMYHd1erKdoyzzGi8Am5qceW6Z9c+PC2Sa0JF4SDyaWMiJ/xb6cyWSLZCag3QSLHOdhP41zMrzQLhBxcoG+fJu/DKwchiF7nNZhZDreHY9oM5OmtB/tWVh7O7tq09Br7wEAD4bMVIJjfv3Obfazo2HhvPX+1kzdbEKD7R16l6KWhRVgejAhCrmEDdX3ex+oe2b1H1gV3RLLevF7cY7zTEDzqYrd6Veiizz9idjHA2fI7vBtdx1Q3sndE2uIwaHz5Zb9nnqH3JiZGleTLM7ILHG3D8RXiIu2Vr5HBCedax/c6WyMCq9hS0ERc2FDOsP7NbY3g4u4AS5Vr2prJLg+wwUD9PXbzRexQnWSyITwXuivjaI8Pppy4BkGXln+Hu7DmIBBACH0aubH/G29mJhYTy/fz1R1EYWuPUDjO4jcMsEy2DuVrUTalFFj+12IUWQ7OGyBW5kQsYN+CMe6rGxVL/rvTqAawo5Z7V/fGjx8vh5pxyiKvWRh4/ZxWzuzyzWN7m/+bu+/393Tu73ajEht7dvX/fKy2cAYq7vAue5cQvBYYcD47Y8QaK2M17NVc0uLPLzR3QCIDL3iHcEKbx4YdkxzROu+sGm7smyjQrrdzUpQAU8n0HPN6A42lF9LQvDCDyxzEe4Wl7583QzivP0+VWL89lIT1mwjbK1IxYUzKzW0Cy6TCo/PPz9ycAY1uE/E0eeq715OkmVlE2R3FSTUFk1er9pNnZcxA5urGPSTVnbsqwgsBWwB0uMyTC2AhUOYclfaQUi4NWgNcxqxoximaxY9fmIZzD4ncpuSVzVRfFS4cMtXqWPtiN/tOSFD12K4uNRJuz/ofkmtv8S4met2/eFhcxLgZA1i84mcH3JdZydkuzhREHBgBDTmzhSgZtRz0JWBz3K4NVtjSy3mBXM4cfcVUWPN9q+g7dRIfro4eJa/Z20GhYoibqyXWqbAndBY+/BDh+eNcFDTNBgyoWEB3cba5hU4fY/kD2Rtlg+ljUjgokDsCead1Vf5G7JKLBoOrqJSI8Trh2dseF53fmjvFkY9XxRnEUXZGMlhBmUlUe2dhW63yWpkyzHbqs1nSFwnbfz9ZyZ/7KDxH/7K79qj/mj51nV/TJvofCj/rQ77JxIL6Jb+sJIRpf1LMYsLuS3L165gdjnM2rK5oxLstioswlh4D6ITt5uP/PW2ixiBtzacoK115O2msg7OHh7vvPt3cf3vZ6oOh31T+PjYP3dRxq9ZtNReeLdlGyhceq7WpM3M6apjGUGy+fGZPSZKP5U4+AbkwDHp81hjXeWY8VX2Jw+tzOGvTkDY9RjNa0J371xJcdgkR7eVdusz5UOaS6aSYvz/Q3wwKdxjXsVMK89Yx8f9ez2XdoZc88C3B8/9aBoGZkZoGv0eAzIAchpfEDvphdsmeMgb44gJZBz4yheBNoPNuRYXz1oHBWCjcCQ0gAZQHdT1udalHfUbzdagxQkNbywawdLBLG1+nXOVbjA6M11j5gZXFXRbccZJtT+SvqQ8fI6z/b9NY2aDjb4PYdjwNzivgX7QD0QXgqrbS9Fm8oPM7zDePPaqzoCvBEBwG0bd+VOLh3nZ+jdeP9B9qtwEx2AGD+4zlmPDnSx8fr8qe/DRromFaHEFVwCgaV51a8ovOxzEcbK++9aP9xHORgyaDFjejDtFGXVt8LLjcjPtZ3LNzCy40cMz6z/Rh9zuPaUV5og4Hsqj9PRnQ+mLn1M1dfNi5uK9u72A86T+iDGSjbkWs8ZqXJYFFaEDeay2qMGZ+N8mh9ytI1iWICuxzyzYxsYlvXiIaztWFdnNFYZWUkL1YYgQ0CkQwaZQDr8VjGsi5fAVWVL9Ga8NxLqaM3ayD5JMDRLIpG4B2G3xESYCAIMxXeLDhZYbHwi0FEFyRHgT8Kw2gBZkJCx6EMr4o1Gh9bNYxBNLtqh3b6TCTgs3Z2nvWYKG/B1jtTALpGysCZIF+1F9E1mnMHZ+5KG9wbJ4Tp7NGI32c0ZIHs4GqMIWSaqBLHOJQHIxCRvZutgY6Z17iDsChb2Vvk/cp/z3hgxcsrXsz4xICYJXTOeHPW9+zAw9bqTOll6xTxLXjAEkT5ykB+NhrPija7tFXAFK1ltLfAE/58DHpXbTHPzHg4k6OrvWfvIYYM/BytWbYuLDN26bkjmzCGXVC70jmQwxnf6t5U/ozkMPiiy8wYpCmNZuD87LM7chc0dBrkh4NIDkX0mvEH6Dzji1x34faoXlM42lfKPzpuxkGsz1Z0X/HvCCQf7swiaa5zc4Hj36sAxxVQjCYyE8gzZm5lEobyJ8fTTLbofMrICKhKRgUzBPxjFyjqX8en4GGHbo8F7CtFxGNEXzzOCJRltJoJwh1loP1zezzOHdCtGzOaE68ZP69j3aUhDlhHV1u95ouOqNqHji9SCvgM/67GmQlV53l3z75/b6Uk1haElRJbASKWAzNL0YzfDTgaCIOrN5NFuwp15C8fIVsRZjJhRjMoGeNTu2YvA46Zoor2ZCRfMmXGz+48w2tnVkc/2PphO9o3vEYq0zAn5VXda5DLmX7QvW/PccF/tsRl4DEDNDz+aI9EIFHl4Iw38F0GIGf7lkFMBmhmcjaSadxOJttne3Il/1bgZQeYzXi2035tYd4ZS6arcRiJ5ot9NNv3SkPlkehdfgbgEZnlzL87+CSTh0pbtGv7xoDkRcBxBRTPLMRKmKItAEb7m0212YbgTZvFsYE5Z4sVgYNIeK8Wac48vRzFasOs+sH7u4odz7GAzd6NlFMmVCJBqnwxEy7RmkTKfSXUIsC42oy7wjcSrk6jUXmqYFZ+VIU4xoCNMWQRSIpoAB7Fd7N1ipQ6Cz38Dhd1Biz082ysGf2jz2dKWhWmvg9+NdnBbiwWstF+mll+de+zi2xHWep89B0bj40vsphk6xwp/mheT7luuLYTfYCnWQ7zmHgsGW/q8woYZ/sU+14PZNifva21dYr3p4LBSMHOZPhK9mDOEYCcrT9kzkyXKe/OdEkGhHQNIp2gcp77wd7a0WNndNmMrn3N1iByNa4Mb4C2kbzKdFkMRscxRjJU5V4m22YYYDXPGYazd7eA42OA4grARBNgkMgT0MDXbHLKzBmRZopK22ZgNQOODBpmc+cxWnvv33tcAc+RlfcOEFsJjdmGjubUN8Nxw2lfUbAzK2hVbtmaZODDaTNa4XRTMU13AKOOIaMf1jQSpmwBX/E6j28FHkEvrbnFwpSFlI2dLSqq0PRkOlNC+p31A3ek3sOegbdI4EVru0OzmZDjfrR9xMXqM1EsFHh1JVAz4KB98H6NAC2vY9SnJo1gbpki2d1f2biyfRcpQv4Me8P4lMMYzvCXjWm2j5S3le8j+qq8VsXuf/cbQFdxj1gv3UcqE1j+r+TxDITg3RmAVF7MDv+6tru8YmuifKix8jyHFYhc0eMS/YR3dB10v2DdrHYpr/0Z2TLT+yyvI1wS9ZP17XTk2qZ5WBDL3yxONtLDK7m7koMhcARQXCnFWODlcVoRQXVD9gXIXWHZpOF+mIG8FcF0jF4cd1w4BbCRkIxo4woY9cbcfeaAqM9VARiYCHRaLWhG45mQit7RsbLC0efNdanz2AX5M6GGObMFyJ6PBBDoygBchdqOkNC5RXSL+GHGV5ijjdFvDDhaJTG2KH6XFaeNjwEi+mU+RVak7i0V+mqNyXgHFrBsX+3wJCtUVVz8NwMjfUdBk4I1BTk27ugQys/pWtrfVqqGf7gNFcIRsGJhHimbjBa8x3jsEVDjdiMwiT4yoJnJp9211Dn6/veY8ezgzzSNeC+K2QLvQ77w4XG2L2b7CeNgGhm9ETay2ss7+38GCmYymt/juRvggXU7kn885uy+eOavlR5U+kHu2L8WmjCTkwA9nOdwLb00a4f3CdNOdROD/9VYo/2tn0X8oF6LbNyRXtX1xb7KgOFsz+7wajQ25Q+V/QU4RkCRN1c0OXy2cuvguR1hEp1mZsCCUTkEGZ5fbQxVVspoMyUaKbpIkOOzDCxmjADFHzFtBFJ1rGef4bXmsUa057YBGLtQH8F+tAaZwpoJIlZSOrcIMPJanNmweDY7KCioX/WjvAhwF2W4RwcG3nesaFXBGp0j4JgJz2weEd9gj+n+zQCTAoLZgYW/i5RhJHcyQZ4JW7ipsaeyvWGfMz9HCpLppjFFqvAj+cm8yOBR95mN2essjjF64LdoDrN5ab8zukbfRSAvW391s+u4IkCC/RDtAeZhew4WeP3cxs0HKt07XV8dDRJ4T0HpCkCiT207kx/ZOswWBybYAAAgAElEQVRklNIrA5AY62y/RWs741PdUzYvnhsDyKhflx1uOctAZEbjszqM25kBSKY1W1PLne3JWGfgEe3t4hvQZKWXeK1Uj6wqA+D5aP1W/c68hPzuH//89f6/K0UGYBAx/opRs9jE2QQyZsLCOpBwoQpGhgk6atcIuLOw0bszF9ZK8UWgJgKLYFrtP1NGGWCZgeyV0GBrrY6RaaDCA7wzc2H4eo1WWyjOiIYqBO3dHcB4VgitNhYEiyo2tuhl/IY1AqiLrLL6LtOQgQUrRbzDShLPQpm68kaRaJSt6DdvqKJTwch0VHcvK5qMfpG1WYES87C2g+/OfK60ZAtSBGYzkAxew3qpdSXbG9w/2o74kfkez0XA0cYPC/VK2CuvzNYoojvvt0jm8EFFdUC0r1kh895XPosOMNqXvQOXKZQu1kjXdbXO2UEd+8v+tfVmcJrJWpanOmaMYwUgM/0xk2Os7yJAxsCE+UvnkYGLlT5H/7p2LBNV1wLwXwIgmc4RXSL+Y/6PdGqEBZhnV9bdlS617x+DN7L1t3bZo7abRR7J0UimZAfjaA/88dend/9lZcQNRoBSJxWhcW5jFzieAYtq6bL+orFm81oJ4pkCjzYgM+qudVHBYra42caIFHEm5DIFHI1V15+VysxtvyNgd5/Bc6yAIegyC+NqTWcgf6ZQlK8yq4Yqbwhwo5nxK7eT7SsFEACCmFsEYCMLDIBjpPAj5Ropd+wpe55jnVb7LAKNzGe6pqt1Y6W+epbHBsuXv98PmDo+dUOzPEOxbWvjLICM1pKBD4P9aF/A6sjjm/HpSm5HtGOexdi0Hh4fQHbW3sYI0MvjVTDNMikCgOA/AEf+2z6L1lTBjO75DGDze/Z7BB5ZJmm7Ov4Vz84O2WeVvIIcXdPogBTxwuywg+d1zZTnOB5bZReenVn2WI/qGGcHPZZfszYi3R2BXPDDjhUy63tGqzNyTJ+NgDv4dawXGcdFzvhrBhyVrsXiqINjS8vs9DMyzpj9qW1G8XyZMHMh5lZFIOwVsXe/nwm/FdNxH7zRIjATCXkGiysBMQOMvJFX7fCYsZYYbwQEWUDru5ypGPGMHiL479kpaiYksNkvAYyr0zP3u7IO4NnI4qRCDf1GMYEKKDK+zRR2ZJGB8FpZYKJ3MwADGQDQaH1w+zNlyeCMeWDFqzsWIfBnRjf0rcAR44/4G7JJ96eNd9fyiPGwdT4CLgpemB/4dwWOmaWH57VLm4x2AI/gJ+bBqO2MHyLwyPJSeW7ngKMHttnYeFw7cgd0V/5U1zXrhwhwRHTdlSuQc5GOmek2tL9rJVvpSeVHHlcGBrHnskS+aF+rFRI8txofr0FkDMj05ozn0fcllshd/lrNa/dQuGoH34MfkPS1K3szVzX4ADptAI47FsZsgSOm0Ukq48G8DaDobY9gMQN6O4TeAYnRho0WR8HBylpnbWSLsFpE7p8ZMwMkK2ay9y4d70rxz4DMalNlmzxSMqtEIlZskUBZ0UitFXherRHajsb5wBoCvmJBDIW5Gl+mFDNaR1b9SBmz0OXx6Z6GC8QsbryHoJBnbauCR58rntf4wtV68fe6zyMAqOuLNWDambDVcWZWx2y8SKxhHubfme76uQJHjAdj3JF5K7pFiQ2ZvAFfRIcE+475IDq0RHGaoDsD6Ig3lMd47ho+lD0bWb91D2COOh7+W13X9k60/plXIZMts7WKZMQMhOI78L7RNOKv2VpH+lqNASu5os9zm5n7dscKOaNVVOJnJW926HDJeFc6T2XtbF47+30HHwFEet/9MoRMJmZjYt1WXNURY6+UmzZ+tj4TJpwBxRmDRhPLNlV22okESLRx+LkIfKn7UMHijIGzsbFw1TFp2R4W4KpMGTDae9YfK45MyfPaR2UtMvqzoN7duLzOkbBWwDgTnrppszHMNqQCpYy+Rke2RsFak2U0ZqBxxR/MX1gvpXOktLFG/D4OagAvEGLRoYiTSlYggfmBx5IpETyzAxZXQCdaHwMsWOMMhNvY2NKoCi7iER3LDnhkns5kqtIJY4PLl8Gr7vFMyO/SNgKFEViYKShYp20sym8ca8qyVPuAUUHlKbeJtQYf89rq3sjAbjQG7ANeK6ar9cPgkff9DEBGsiRar4y2M3m20ncAY1yWjA03Z4wqTOfd97QShtJT1wfhPGo5XelvfB/lOGDcK0tptCZK+0wP7bqzZ9hiNseZvsv2vsprlZEMJHfAKeuLweLIL0M46iaKwGW8CY43XqDjyP0cCQpVeqqYZgQ7szFX7TDwMuZbgZhd0LjaDJfMlzc0QIy1A6AZrbFtVlvvs4cEjO9SplZGZkADXlGAvOorOukxIIpoHp3OdWxdMB1LUHS+RuJJfqPKCkhnG9hoo8rJPptZArM9wAcSWCRYgYPfZ6CRlXfUjwJHnTd/v5pXxmfcb6TIbF1tDpBhfDjBmiloxJwzmYB+VF5F68ZWR5WjEUhEnwrgDTB+/fqjzGVXwFtbEU3sfW0Dsj4DjzuAgd9VOuM7Bo/Kb0yfTMGzPtCxZvOa7aeZ3I/kiD0P8Ijfs/08K03G8oL1ScbPK5mmsorXngEVj1VpvAsEZ32t9CjmzXwO3eM6ql+9h/EACLLlNBrDar/q92d0bwYemR95TI+1nO7IuzPz3QWk6tbmPkCDQzme//3nQ4lxVEvUihlWpymAKAgGPjXPmFVPrDsLvxprtjEzwrLbncFiBj60/zPxL0qLHQUR0Q9gMQK42ea0vqDkMrP8ap1XtJ/NT78Dk4JXdoTazjNKUwWMM5rbd6xgVWgYryABZtc6dnaNVSHzHtHvVMny35Elib8H4IrAAJRSBA60T7UIqcBnMBzRLKNPNFd91vjZ5qmx0REf8meZhU4BI/N7BFpYliq9VSDbXs2sXNiz3779KKBFrY7Rvsz2QvQ5W82YhnoAZUtg9ByvSfa9tcm8pXuI6aRt6PpyfxmIPyuz9CCWyTSAHez5iK+xbisdF8lrpctMtu7IEDyj4RMRQLlED+n4dugOXMBhMDyXCIdkB/wzQGu1/3Vf899RyNkqHpLxzyyX4MwcZvyQHRZ1j0RtMP0hP3HYyOYZJsfMiKibTDc6b4gVWNxR+ro5deJZHCEH9es7uul8Tj25JwIuzAhoLzp1RvFm0Rx0k9nfmVLOmALKnN0okSKKTsEqVDIGyRh7xpCz8UbCEeNnujN4iZh9h3d4nZlPVpYNXS8TZhn4NIDyrp6YH6olEGPfEe48t5nw5n2ngEXf07VRIBeNy06dmYDTNVvNbzUPKFeArGg80R5VucTzxO88j5kw1b02A44Zr62Ao403AutoTwGT9sNAhT0H0bxX+1T5TJN+MvA4k7+QWTvKCTI2SnZkekTu1Aw8dvnXS01dMo9MIfP8rN039SKI+x8/7zT+lPdIZEGb9cGWrUx/ZO/PZIzuU4ACth6t9lm2/tmar8AjA0esn/KuHiah04Atooz6CLNEclD1ymz+mf5AX5GnjtdPdaw9v6pMovOY4ZsZT2XfRXTKPmMQqTqzAUcVpJGCjwQ3FtO+05NxJHBnQng22Vm2jwI4LGhmResCx8EiLBQZDVzB+W0SmYsi+zwCHDzPCMTMQBHa01MYrwMLBi0Fw4KA3dSZlRT9YcOtBAPzzUyoMVhfueK4zx1QijFkoQM8pxnPZZZGAF0bt4FGA4yzn919EI1rBcKg3DIhzKAxU6p82LN2Ilc1xsH9zZR0JLRBoxlome1B/i56jsHJTM5ENDMaRLGE3uZYAxPvZ/wdFUaO3L58yFOFxrQyq6MqnBUtVBlHeyjKGFe6rkAb+E7lBOSM9avepyyEJOLVSN5E9F/tE90fSp+VQh1ktpUc+vGzzCsCAxjLKs6U95S1v3KNznQyr9NK7mbjVhnG+ySSb7o2zMO6Z1QmGw9EBg3wDe+hqDA79k6UNKljjcDhitaZ/IjCB3jtooMR7ykcODIQyWPXJDB8l40BsvusLmJMkO0DgEj73tbuD7iqdzrDxuaTcoSwzypK7RuMjc8haFZxYtqOnuQYrDCRGYTxfLJxDEKEClvPNqxavCJ6zxSxfReZ7CPAODvxch8czwrm59hCe1bHNAOO0borkyNWKHK/RYJr9llG7xmtdU7c/qpWHwMTWBlNgUBgRsofwjfaO9iEkdCPFKGCN247UoSrteqHgfEABUGiY8gUyWze1lamSBmYR8Kd+5sBSvSBvWA8HPFixC94LgOOPH6m94qPmCYKELlNXTcdt+1luKtnlnKlTwSu0O/OeuDZCDhm8n32bKQwI37KeFY/17XIeDbiG+xFVviIpeO9rEqU++T9n1nro7WM5L7LlfzWrUvDiGb6yMbBFshITutYoz3K/BvpCnzGFQugx8/qqag8krr8I7mJMUZ8yzzAmCBbJ3wegTe1QEZYgkPJInf2Dk6IxsbzmI2D392VkdEeOlgctWFWeFD2ZrJnt9yOcs8WTRUqlCnajMBiJrS5j/H3oxsagpEXKmKGDKzOrJkYO9q2Z+332UmbNyCPnTcG3sc4eby7Vkb0k10XpSe5Di7i+7QzJRidltQlvdqcoEMETDIQoJsGCkWVQESH6FleS2v748f3xWVlgDH64XlH68SxIytglIEpVXg87my9os997TxGk62oaC8TLNm6ROsE/oisLxlwhCLF/DPQqOPjeNNM3sx4ztYrsn6zYtcxaXtRwskZ4Kj7KYqrY1kR8TXmHoFHnku2JtHe0rXlv7N158/ZysUxgjyXFe8ybdh4AX5dARt+H7SZhSDBG2XvZfIeHgeA+x2QZ+3NQBPWT2XZ7OAT6Q9+fgYiIxc2+o5CvlZ0jtaddR//HiXIKU9H1kd7Rg1Kka6MZJkCXPSH/c96OxTy9GHmCV1hCZUziEOFJTLa49n6R7KO+1c+OnMAzXRisTgeBTDumHwI3c87DKwdRn2AOLPCoTjZ8QLCNTgDo1nMYibkjAEA8FbMsooHZKEWCThVDhGt9CRlz0RCTrOdMoGkaxbFkfAGMoAUCdoVbfAOzzuKYYzmvHPamgnAzk+x61iFVJYQxn3wLRLsFolAYUYbBovRMxEwmoGlCIjw8wzsmM4KyMwKYNY5tmRntRszxcTgF2vPn2EsWQa1jVsFOQvuaL9GVgWf288C7M+ARuZxVpY79NS1jPhJQfYMZGGtorI/7K6O5q/K1p5ROvL+iEClfa/hGRn4nAHHCGRyvJTtI/Ae6M98wMAXNNH9wOAqUoRn9hToEsnX1Z7mvhkcZ3KY124mj3Q9V3I343kGDQpWVE5EFsgZyNAx8b4H/QGo8awaYmbAUeUw9xeV+4F8Vs9cBhRVNtrfM92tOkv5ZrZGwBYRdsB+wTgVRGY6D58j9pb7N8OGrYcC2BkwjXSyzgl9NuCITqCUNLElG3zEsLOFYkHtv3dLHE54YK4PH9+Vca+AYldYvS1W8qvxsFK037NTxCpwOVP2Z4RA5o5GG8zYkTX0rPmfx8ZgCHUfdb2yuajbO3JJq6Ditjjzb6VcI4GVbdpZnBGSXpS3WXHBOmLPzGqFWf8axxbtmd19pDTIwBLa4+cjAQ7QCOEAPjOgxbTXmFjm6dW6oA/IEDyfgUaMRRWEWv4USOh+xZ6FRXh2oMz4JAON4H+mM7eRZdIDCM0y8iOhDJopwIgsWhmA5DWDp0PlAu9F5UnsC+gEgIeZfFPlx2PzvdPLfplu4flEY+E1n/H4DERH/Lq7/3jdGaSqHOY1RIgEywxVxl1XHcts7fBV1B7ey3QxA4gsjpfbzQCkPbOT+MN8ErmoR5odS/FE+zvaZzCusOzl3yPjS7b/M5nBdFlhnRVu2OlD5U3kzs7moEDy+zfPy4A8Zv0+S5BSHovG/cenD29KOR6NOdONP2NOnshqY7KQ0Jsa1JXLiQfR4F1RjW5o+4wXMIrBVMJHwp2fyRY8mysWP1vgaGH0dgLeFGgnMvfPgNGK0SOrI5gru+rR5owTDsIVWDAxo3KWNMbCAdEMksGDM5pmdF0FoYN+kfDJBCFbDwAa1TUSCbidvbDLWwqYsgNQFmQOPlPQiH0Dt7sJmEg58/v6u84zAo1Yr8yyomCM964m6OjaK4hhZT0T0JmlWOudZvJP9zTTVvmBQWC0djoHgE1tM3JXRyCO+0DfkdVR+SpaH26fDwIRGFvxCb9jfZtBwGRHZEVlGiitMabMU8C6ZcavKn8zOZ3xkX6uB27WS5n+Wcmime6I3t2RmzxOxNopTUF/619Ls7CMjvRANOasHqM9uwKhszmpoQJ6h8eAuFV8B2tbJkej8V+i41cYKNNXzFeKYazNHUskg0dYHTEvdV9zLLjK4kjO8WctOYaFifrEmZkyAR4RPdt4mqEcWc7Y2sjtRGARY4oAY7SIKphV4GIuM8WdCTWlD/+tDBudiNSqxcwf0XgFmmbgkZU9M1eUwanmcGZKFUhwd2rfsGZhDV2A+4lzR/CxYl49n1mCIuXO6838BUuLfcYKbdX3TBGp4o3+1vEwfSJAM1PmzH+dn+3WG79JCHPL+GQGwhhc2HNsDefvlEdNAEKh6p7gRANuI9pHo1xwN3VmmWDFwgHqEe8pAIkVose4zpQQeAYWvEg28BxZzkbgDkBLeTgCTOgL/MweBB6HyUy1Qul4dV11XSL6zHiSeQ7rzbSctc/tRnuBaZGtTbYHr7GveW6Q75Cn0Xhm+8tosiPfIzrMZJCvP/jXi8vbf1FyoH2uAJI9KxpKBmPCKMPG+P5dC3Y2B/t8Jt8jowsOhjtubOWD2R7nMWb7UPe9rleGUey9CEDa5zMQae1BX8PqyOPUw/PMSJStQUuOWcWXZZtKP59thB3AaO1xXTwQna2THKuh/WXmYgjHnbg2FdoR2GAgFbnSdVyjko1d6rONgu9MkLDFD4lKEQNnAh2f86kNVgX7Tk/J3B8LhK6cfD6RhZHHDYZHX7PYJB57lkSh85jRj/k041lWsjtldmb9rRTCbG1mIG5XMUb8oCCC2zoDHFWQAjTyenJ7allAPHG0DgocR3B4LItj84Si+PTlw923r14wmz8HLdTKomuQ7VkV/LoH7O8I7EAhO9398BHRHJ+jjVFW+JyNhpxdHfWpPI5+DSQocMScorXIYjXV8hjRgWXliqcwb81KnumUiPdAixlYzdZwJXMvBZPWLpLozsxvR25EYBJrDV5Z8Tb2rIamZeCRZTcbFpg+6onCGNjdyoaQlcWReYnnA53H/a0MBdpW5gKeyQDMVXX/Dl6I9kokIwEIdf00NpJlBM+F9znXHY34ahdAsqzBuMpd1Xyi1IcyQu4CRjzHQbJqYWSBGRVZtTGhZl5RCLV0wc4mi4BkZO3ghcoEnlrduH5fpOBUuGvm6q4wA1i0/iKguGonWiuMl62eoAGfCBU08ibh+UBos2KMGA4CCGuqG4SF/6qtmbCA0o4UQ7S+OImioPdObUZW+JHw2FU6q72kQILnxqAE9GYe4bkiISEDMLO1UMHLiipaZ/s+UnB8U5EqHTsds8s5AmPKEz4Ozwy357GORXHXa0JX65Dt90jY816LPDMZv/FconkxfXm84HF1V2sbChoxTqYPXMQ8L8jHKPaNLY8RLZQPee4ZiAOvKIDmZBnmJ67ggTll/J/RdbW/ojVTmco6ig8BK95i8KiWbt1TOg7dY/p9llgSyc1M5lmbs7hHbgtrqmE8ul729yqMia2WZ9YnojcDSet3B0RyO9F8mF7R3irypRaEx7qotXVnfe2ZGUbJeDOiOWqLFvrX27P0cgrlazyLfzUpVvsHLaY3x2TEm00mI1Z07RFvRnvPFlyv+1Pr46rvSNjxOxzzo2PdAYwowzIT/ixks+sLMyEQZUhFIGYGmqPNpQHvrPScCce7fbkNBcUKGDMhGwlCpg0rAH42S1rBM7OEBN5Q0SaJhbNbTD9+ej+UmdJ5ZzRBn1AoKx7l71cgguml77FiAS354KV8b2uOrGMogUzB6+fZOGd8GCk2JGvo2tu4zVoIC0jmVVCZBGCkrvfZGpzdO9GhAIKWLfWsDLl/7W/FR7p/GTxm2dUZcGTXHPh7lE8eYhCVIVodzFZ8vOIt5sGsnI0qvgjIROPI9v6O3I54h8HirD9dB7zH/L26oSmTYRnfzmLmsgMcZEcGijL+ZfpFgCsau/WFfcLZ0PYsLJDghcyamu3nDEjq89Chs/jQSxJRsCbssl8BSF7HCI9EOmoVsoB3WP7rfDQWnscBPDC72pTHdSjHMxNyeHF2ymLfe5tMdR2pYLV2FCyacCtC+edD8+PPlMDuSZkZGmPcJRLezdzcull4TqtMbHuX3c+Yu27c2brM1sPasfFo3Ie6G1SQRKdAhAsY3TK3RMQjegLOBHMmkO1zNuErH+mmjTaefgYAw248pcEMYOzshR1hF1kHI2DBApt/h2Kyz7I1WYErXh8GvwrSoIyVLjtCzd5RIYl5sFVGlUmk6HW8tobmpsYPLPO8l3jMyo/K62rlwrzZM6NuHvaiaEWHjL4zuRbxgPH518/fm3U12lfKG7zv1ZqO96MEmtnYZu7MjGcYROrc8F1USDvia+Z5rI3yyWwPqddmZ5/vyBR9RveszhOAPXuPP2eDAowXGDcbAVY6baYrIn6KaKNrwvfDR3qD14j5AHIJ8wSIXMmTaC+zPI72M8uGleHBnmVQPHOp81gQw78j91mnRVccow1rf+a5me1T1tN2KC/ysF57yGNVPlJPir2nfBXWcYwGY4uhoNAWmk/cEPqzjZCBxQwosls5QuroiwGnfcZxcTweMBUH6GfEPwuiGTBiPLOF1e/U9R0JYVa2vBmifiLAqNmjM4HIgg4xjJlFy9rJhJIKpOzUF73Pc+DTaRSUzXPJlAFiuiIlBYW0o/wwX9CI/+VxsPWU6aDxOZj7CjRmexPCWXnd+rS5wgURvZ/xOT7PlMdMCbHg0/hpe0/5+POf3+9wCROvc0QPHg/HN/Lc1ErvSmp0azPPatwS05MFK2QehDBkHoPKKHZ3BvKitdP9ZO8DOGrCXMY79g4Dx4eHu7svfznA5nAfPAf6RdbHjG8y3uDx78hRtG+WR7YeR7I729s74BGKODpkYQ9HypplAz+H8en+VxmC93lf4NAKmTTb2/hOPVJcr49jx1dxkNyXWqJWcpzfZYuwAshIjmb6hpNCVwByZ6+yfM5oF9FbP4MXxAwtq5jMM3xu/XBimr6Lv9En5gwAyHtVeRBt61wAJGcgMpNFDCbt9zA5ZkbQKANan4+YlhMxOF5xRgi0a0xlQs8UC+JENODWnlVXTAQeGTjaO1m8IxSNbiL9O7OYsnDeYVAsWKZgWNBlcY7WRgQWO2ONzI/nmfGw4QA4GDBGJvhd8BAJe030ycafAcZZHKL2B36xtiIrI+aNdYjWfaYkI4EIZcGnbG4Xa6WlZ1gB8rvog4VKJKyYP6CIo2Sf6F3+TAU/jz3iQXs+S06LvA0sDBV48XooIBjH6IkfUUgLnjOFBlC6qhgQZYXqCRxgzGSSjU2/n7msI5DHvDPjMbbMRnXYMjoxeERIBuQT+sO/GsLCCkr3RGS5y8BCxMdRewaE+KATWX/BGzPjAAM1lqngUaNDBAQYFPIBJ9rf+lm2VyNAi2dxgAXdsySISIeoFdLmpp4lBWF6YI3msCvT+V17B2uVAUjmDcUI0KM6nh0QqR6GSIbN1jLTz0zfCGzN9i3L/ug5jS2Oxsw0QqhD2bcPfjEL8Auso8BIUZa0ymUYthAXifZm2I3n8ceXj29LHUf7WYFCZqgd5lJQpeZODpTnQQEo9nH1GDwsCN/yAkKq1RFAhJUQ/65WR8xJXdI6VywyXLdsXVwlVURMNAOLs4SYkWZHdzSvqQJkFbos3DKXdLbBos8BvCPBpErewI0xPa83eJGV8CreNVK6DBghVNmiEdFe+cX+VoWo77GiAt+xsML3eI/Hhef0GYwDtMSmjuJ4sX6qGODG1dhcXZcdwAjFoIAhqvcWyROVHwBCAHa85iros/Gxm5pB3xjacCz7pCAY9DgLHOmq+havBeGuBwJVJhnIUn7jtWJ3NT7P5DL4ht3qts9MDuMgkdEVc+C+IWdZjkc8oXt/R29gHDy/6GCpe9z+1n2hAA5/MyhUoMbPgP7cNj6LQOCZdWS5weARACkDkJFMavKyJmlkJdJUtsL7wN6jSHY+BmzBg2jziS6TQH9q7WSDEPPeCkAyLVhnZiByRs9InymIxLwyXcH96hztnczaqHQpcrSuL8eA2+fAQJArMIroeiuQzBLitMTPLGSgZFWrAJpd85eBBP5cq8WjJiPHZtigbKB8xZlNiBWwuoUg9NCXZlDOgCMvMDZ/lOG5Ao2cHR71l9FHNyYLt0iwzqyK6IOtuJGgZ5cW+mBwrMBmFcM4OyzMAumzGE4ADpyUGGxEVzOp1SwSdswbaA+Akd0NmaCcASo+VStQnP3NfbH1C9ZzVXTMq1DCWCtNHOK/1f0Gyw0A2kzIqXLV0y7owi5O3X+8fhGo4f4x1shFjeeY3yIFwG5qky0KFpsyefOmgLpsn5W9U13Z2fqzRRR7zfvvnhAAX8SuKcjQdbW/FUhw/xGPRu7qFXDk8frvsct61jeDT6wzu7Qj96E9B/7kQ1EESBg4ojg4AIfyNQM67A/EbM3AOehvzzDvql7hdVMejP6OrKKRrJzJHDaysN6L5GC0t3iP8zoqEGN+xQFA124lyyMdp7zMaxbFQPK68bugkVpOWbbMrGM8NtahGYCM9PJMz5VxEJDD3tJQIMwP42HwmFkbI7Cp/bEcYt6IDt94FnuCjUfAXmyEAO6z6ha83xV4Gn3++L///diAIxN9ZjmLXAQKFjn4khUjb3oW9JgUm10HJnhjSSR+BSGbXdlsexY4Wls6BhbkLGjUupjRRxkm2uTRxgOzRoCRNzIzg9IHf2sMVDYGPfEiBiIqM5QJwgy8rRJ+bEywNLa5k/nGPlsdYKK+2ZLHCr/cZlQAAA8KSURBVBO3pJTPBCTMFAXTjgXsqh3mHbTRKwuMpWKU5yIhx4InA/+swBQ0ZsJQgWnjIXPB1vJP+Ax003gkFurMkzOgVta/ZlF3Go/F4CPgNdKm1yf8WoO/MwugjiUCOtk6sDLjPaZuXSh8te7zmHlO9jnklx7smI76vv3NhbPBa7rP8V7/14s+Y70iT0nEezwWBZD2nQI87I3MlR0BR/Rh/eOAyPGOCgIUPPKeWNEDck91DVtSWWdlB4BdeWDjgfLG75FcAWBm+b1rgdSxWPvZzSE2FtsnUdzzLojM1lD3UOG1KktmMZBKlyZzyuGsu6PYmsbrzN5StZRlAJL5mvlPP5/xq1oDNT6X6cG4Ra901vlHB3d2l/N8IW/UU+v7vOuawhP3XQZwbWuWPzxmhFOVPV2tx/Z7A447QJEXyhVOL2TNoI2VkW5wEIgJk7mso4VV0AghqJm+eFctiLxhuf0sWQbCPVMGEAiRclABFs0nUmB64hs3jls5wBTcJscCRhuBNwCUj8YwRhsYQlQPANF8GPBFPIW5oSxD5JJGu5lregcwgtGNdgCNK0AcCXcGHHyKzuibgY8ozm5mlVB+smfV8sK8zN9pXCPPi9eMgYUGYTfBTbVDwTPYc/wvjyXqjw9GiGOLrHUqpHWtR2Dj2dSwNmagEfsQNMwAscoGBV7gKTzHwjtyfc72kn0H4BLt2xlv2HfZLTKRfIM85j3B8VCzq10j+cZ0wLwZPCp9y/O19i5bOLI5Yp043nGX93muLH+zvqDHfE49e1TBIss+leszucDt8BhmAEsLvTO9Iwukzg3jgYeP+VCBP2JlI7cktxPJXKVvxiu892cu7EyHQgfrQY31IO9FDbmLZNsqpGyUMx24si7k+eN529Pq3cCeZPd0pD+4zwg4Mu1U9s4s09y//c6gNdqP6iVg3QPw2q4cROOZmbqf6CzQ3AMzORklIrQtdFYegAGltcWWP1Zu0e/MQGxJYmVnv+tceIPpZgNwBJNiYSKBkTE4jzUSVNm8IpofN0kMGPl0GgUco0+2WM1c0jpfVkQqlLFxmLF0DfB3FsfIm5xplpXYmYFG3kwoCg3LJ7tYeU7RBo4E8Zs3bg37ee8Xx+s4IgUBK5iPy3ti9zTzg9KWLVEqeNF/9DlcXgaodpOHdC9mlpTZzU8qUCMal/m/fVNKyvBacRyr0j4Cb/Zu5KbG6Zrbjvb8jrUxWmNec92f9nx2jaLSAu1o2ALTAXsrkhmgYeRZwHwjOqJfBQ8Rr0SAXWWDthNZHstaVdBov2t87kxOYp4cYqLWo2xvQI6rfInoom5r0PxTLQ3HB6Fs3799596wh4efh303A0TKG5gf9jGAHfPbCjwyf0fgkfdPFv+IcWWyIKLDSnewnsgAJOvCTJ+pGzsDkCwHeB/NYvd0v2WAWdc0+pvdyjb3M8DRxjE7zJs+bWvEJ+ZIYNBnK9CIR102udKKZGgY46gKjZl2VsOPBZN1Gi1QBDDV+hgJZSYS2o4UAI89szYqMThWkE8L1wCIs3gRHmsGFHlj12udhyD8jMYYuy06NvQs6SXbIMoL/Le1u0pYgbLwk5i/rVZGFZ729xlroz2vWdPqmrZnmCb2O/rg2FvQiwXnCjSCn1jBzFyn6MOUzY/vLgB47wA0ghchcCMXu1pibI1noDEDBBH4Bw3Qr1rIMhmVHdCgFCOLitKdaaKAx+jCmfFG66iUj+5z9J8pwwzERDJL5x4BNvCD8h341T7XPYH9kdGwfG9KqGYfo3A/76sd8GjPQwHPLPK8DtF6ow0+EEVu09JfK4nk1y+qLInaB3jM4h1ZdmB9cQjjsakSfP/hfTkE6rON56uRScFjJCcbvRPwiD7wHMsdBlsMgkEvWJZnLmvlc/BI4bMf3TWpY1fgb7rGQOkMWM2skLNDgMp4lluRC1v1l/IG62zMo16/XR71Q+Qx4VetkZkMW4HLXUCJ/QOZbn9z25E8xphmVmDwB1zJK8ykgFF5Jlo7tB0ByMPNMQr+YDWcndKZ+DvgUYUR3lktFvpZAUZ7bgc0aqKBMlF2uoyYbRcgdsFEacRNiPeWuxuvf6aAS+kFAaWbdJUlvQKNmbDcBY3qllb6RVbHWXxjNl4OOoYFAMAMAtraNWHKwluFFPhrBzAyrQEUrg0a0UfEj6wsZ/UaI5rZZ7t7DnuWwWPbj3QyZfCcKULm4xlAwpjt3+hgZQAZyTXMQ+rlYCUVgUbMLbJG8WczIQ9BPHse31k7bG1UOmZWeG6brY68n/jgG82HeYmBw+ygpQBYQ2cyK3qmlCGfI2WVgY8o3nEmn68NHpUG0dwiAAkFz7KZD9yQRfYvg0gDtoUv7++bNy5zR+o+47FpsfAyHg0UrC/gc61ZeJDXQRY3P7MCkMrHoBEDSMUI0cGSwaPOy6bISZf2/WOAJOY3k5e7eAG8wF5Aph+3k/W3g4F03aLclGytZqDR2i2uahas9oINFoo32iBmjjelCrddWZQaADsIMSsa/u3+DlnV+C5yoWFjWjtQ2DPBk31nY8Mm1LFw/yuXyWz+s75XY1aXqbpJNJg12mS79LH1sXl+/NRv1RgYtLpdlQl57rzGWOfZHHlsn//8Wm65wM8ZRRHR39Z2xkM8VwOM1h9bmbhMg7Wvc1vx/M68v339fkh4sPdUqWjfLCj12fJdXatBQFcLh3329fO3u09fPq7Yb3C1RwrHaJTRgelvHdnengE/BWnGG0YfVQIK1Ff7y+JskNHLsclYb1cSne+WRKn03dnzSgO0PesvesdoF8Ux7bSHZ4zHTX4gvnw1Z4xDY31N9pqM0HGqnGaFZr+rXM/6N97NDA8Rr2frpTy+2hMaVhLKn7qHohAUHFgMGEOGZuu/s26RvAFtWDbxYRAA0vbNygIV0T+iEcuaQR9QSIEd9r/89anLW5K90foor6gOidY/22+Y685+tLFkfG3faY1Dlw1vDmElmZWc57raXxFdlP66h1ZJpPa8GTku6bvpyho+wYf6YV5i/Qdm0zVljPfHf//7d8uq/vrn57tPf33ZkbN7z1RmM+INTBAJ9fosYkQGALlSAlk/hUuOCuTq81RqrDYZxcEAqPtQR/fNgVlWdJBxXDTP2dhP9P/w80cD8IfDwIl2UkYjfrFnDExs867Rn+b55q2f7h/98/DzzsAyZysOoCibdx0PlEdZ98keKeOk77fXmYG3Hf6uNO+fP76XAwoLwca7Mg/jC4CmS/kC8wWPGTlgQU5pt1hca+ta9Njhox/fvrWDTaoUNvbJ9toXDUsHryqDbN0MAB7mLvvLeLMZFd7HB9GdefMzheY8x0vmy/Iq2TMHnbLYh06q7hEya2cBURvj26GBzRs/Z/jV1vpwSLjGmAK+aIDljIy4ku4w2pzi64aQOn+XNZTxcIIWxw8uQdk1aJwwRjpPGfuAoVbjOYulqK/dfobkGDu9m/I1RXCNH3Y17bjEzj6vY1xl7OH5a89zl1aRqwtJHO3kLeBxt+3oucfMk8e6cj1kY0R8zswq9Zj58buYqwnlVcacvcfu6WuNwdrJisqv+mB6R7e8zN4/O3fM/9J1jcaiaz1rOwq8PjOWMt8vH4v1dBVusqL7r/qeT/871o5onKbwzAqnrvnZnFjGunI9JjDy+/y8yarZ1ZVnaZlZQMK5Fu/B+wIozswX8aBoc5fPeD9GSQ1n56rPn5E/5YB1wdzPjFEtYY9Z68fqjrfvP5xe59VclY/1Bil7f5c3Vn3tfr8zz+fCRBjzLoYagCNOVpl5e5cgKnhs8jvAEQoNAuXsQu4qkaeY5xnaZEx8dr6rPh8zz8dufoAo+xcxW7s8sJpXBlzMKhBlNUbPnxHcZ8ajcSS7a/oYemOdd+f+FMARYHDnAHTm2Yj29j4qOgCo79L5zFo+5bNnQFM2DgMUZmk/A6Sw9vj3DHBcPXuWXmdoAOu0WvR3+rxkbynAvrbsOiN/HjP3HfowaLDfEet4lq/QziX05nGad/KSdV7N1cbl/1k86dsePnRFY81qDJfME+M+y4N4L4oPzca5i6GG5BgTwl/+8rpo1/yxE9tOnSEWZrvP8zhnNZT4uaea5xma2aJq1t+1ld9j5vnYzW+0QFJOVtfqDL1Wz2Kumnk8e++M4lr1j+93eTADsyseiMbMmdS8bs85d8zb+lzN4Yw8iOaAJCCb62PovbumT/HcNXjP6IykkUvHuLMW4CmTV5fI5WxsZ2iA+FUr5aQ3Wey0s/NMtievPW/oudU+wXgwd0sEuxTM7fIH66XozuOddh6rO8zj8hRzfQ6du0MfPLM7T4z7kr13Vj7uyAMb/1COx16y8gNnM4RXxOJU9NWz9v3Z59Hm7ntPNc+dufEzUbmIs23Mnn/sPLkO1SXjQoH43RIIl/TBgM14F6esx7T1mHcfQ7Md/o2ewTr/yrmfmffOPOeg12+MgUB9Dv56DE9E7z6WBgDoeoPM2XHujuPM+p4dw87zsJpYxQJVoDtz2HkmWyf7/Ffy2GzuO7Q7+wz0Eic2nmnjsbxilrVonc+MIXv2qXXumTGemedj+PcM7+7288eXj29bcowJYjvR8O0sZwjxUp79nea5u1CX0PZXz/Mp56b0wFwBJi6h1zXeeYzQvJRe9/d2O04HUteYx+/chq2xgQfQ+nce61OOzRSCyepdy9VTjuWp24bX4tu3+7t378Ykwp2+L91bj9nPO+PaeQZzN6/Kc631pfTamc/qGdvbTznXXzk3nvtTz3NF58d8/8enD28IOHpxStTde0zDv/O7Vij0Ns/feYXOjw1rihPl+Rau84bWDrtOq/NWbO5Qpq8BTGG+r2Gus5V34GjFtJ+Dy35tH7Ca/Ir5/oo9zdS2udt/Hn/2a9fhOXo3S+drmOtLnucfH9934OiV4+1WhrE49XMwy3P2cZvnc1L7efrCmjpwfJ4+f5debL5QKK9h7g4cvcDva/6xmq9W3vM1gAncsGNrf+KGtX8Fe6C2r4Hm1zB3s6q+hrm+5Hn+8eFdB462y4wxX4NAvs3zXyFTh0lAqL4G/tXVe01zB1B+jes8WqKsrNTrAFKvib9f896+YZCXoZf/eP+2A8fXsjlv83wZzHlmlHwSf42A4rUchMATr22+0V54bTR4bfNlXsfvr0G23fTzGc33a579f2P+gwWj3j6vAAAAAElFTkSuQmCC;" vertex="1" parent="3">
                    <mxGeometry y="130" width="681.36" height="249" as="geometry"/>
                </mxCell>
                <mxCell id="8" value="" style="shape=image;verticalLabelPosition=bottom;labelBackgroundColor=default;verticalAlign=top;aspect=fixed;imageAspect=0;image=data:image/png,iVBORw0KGgoAAAANSUhEUgAAADsAAABbCAYAAADN0f3pAAAAAXNSR0IArs4c6QAADQFJREFUeF7lnC+M88oVxWfZg4ZRkWFUFFQFBlVBVVQUVK2KgqpPDwUVFAVVq6KgKnooqIoeCgyMioKqQKMq0PCxrzpjH+f47oz/JN60Uods1nbs+c25c+fOHU/efvtt9d39n5S3/yXYf+72VbMvJqn/fLhk7jfvy0Hk+K/B/vixdfvZxC1PF7dMkhoMQadp6s5ZNhj0y2F//ti6k3MecJ/nNcgQNIBZngV/KayCAgAKQlktM+fcyCi9WeBovawPp97m/TJYC6pVp8IWSaFp2vge1F5MUzde73oB94L9efMRdRR5XiiUZ5nLyn52PJ7dfD51k1mBMR7Pg9+/bt5dko7cab52nzUslAYsnJXtz30cWCdYQq5Xn73idJz6is4W3yoQgF9OJ5dnNzd7X7okmbjT4cMtV5sg7G2/dpfL1c03B39e+zL6sXpmmj89NRuhi8duhQUoKgqVxhFd4Tjm85lbfLvDEDhNU5dOFv6bl4+V/5smiTdBFsJujxdvopNx4i7X3KFfar9WB6ZKd1W3EZag++2+qsRkMkZt7yqeru5wzvwQocCApUlTdTTarPwqVPemvd45wBZd4OatBPffbY7+ngBBuZWeW01a2/4pZS0oHAIr8kngLHe7/dkl47RSl30Y5qzqutNHrbEuh7ODoijb9bI6lycTb/6j0SjqJ3iiCyiujSoLWPRRmC7Myita2ODnh2e573OZS9xkNvVmS2VxMRwWnBQqn10OLk3u42t+urr1/uRBqXYyGzuX5f7/LM+9SYe8LyOup2B/Wr+7027vjseTW80nHq6CNcCoLCsEs1uulh4MJuwvnSx8n0epnFi28zA0XcLWTLk0a977fTl1vzsW90QBaFdIfieoLFVFhQkLp4LiTbksbHn8i9Znv4W6BPUApXeuqZtnlXIw481ydr83rae0GJr5vyfFfR8tUdjVfOqdkld1XIDWgI05Q2F1VBxyqobJL95aeBwNkO22/jQbyvdZUZSQ683aJZezPwel/3z74SHeICzMeL1cVbAEBmzUSaGSZf+DV7awuAfMmWMva3tYF8MV416vcNlncfxwuXk/kKSpSy7F2P0ocBD2b8uZ26w3NWWDoGW/UzWg0tU5HzlpoOFVuRzc5XT2DdYWVeF6jKVoOHYLBf7D9Zfe6j4GazylKoPPqJTCaijpob0jKxTV8I/34RC0Wm39vVZl5PasukHYH6epYyBhTVidUttw5PujhIFWCjub0Snc7bzxHnu9P3tYDmfPmHIjLCrH8I3OCf2lre/WoEqPirhX4RAKouAYIYs+WkZM542PonDd+bj9Otg/jn7w/UrDRFSkyRtHO1DZrxFhKZSCMc7lPagq/h8tN+59MXOb7d73+We8clDZX+c33+cAq+oSuBprQ9EUaxxwXhxKFFQbyU/1ZuPKq8MzI+BAX1VYBhr/SNpDSb1/FBZTN3jBkFcunFDzgxj63dnzagpnreC4XlRWAzgUBDM0fXh3wuanoz8Prz8ILG5GdRHEE5jBhZp01HzLE1CBhfNV/Y5mIGhF7M9oBFgDlWWszu9/KSwfYiMqrbzC8ThUQCHEdv3urQZjrk4cEGDg3uoMFXaHuFvOI2LrA9w4n7XqcmYSArJgVvFZOXzwOGdFCgwHBDNl+Fh0l9T5cDGZ+Mm/zqc5CekaPrbCMu0Cc4YnRF/VsZb9J2TOFlCv0fku7ocsRyhe3uyL+NnH1YkrQsmyDAqrfRef1TvH+ioAoUbXgpnVdrv36qFgckBlFTR1ZnyXKG4QZQmr6tK0usK0XWdh0W85L8Z3oXp+zWp91fqIwWELyJFPsbD0UTAETVCcY/wLz48EAEosycfgRFcLujiq1uyiVZeVfhaayTjmlnE/OKvz9Z6NwLM0o6khJjIXtRRRltcyGaHG7QyLL8OcqbDeTMHbzNb3y6zIUgAMkRrNlaD/ksgI6Rc7FuszqiRd2Yebpn6dYKmuAoeg20A1qlJQqIuyM+s3v7qcq6UO64UxxqLApJnhwAyrqf92hlXgNqi+5wHJwiTa7/Obg6muNvc1W9/Yaere13OHua4uaWquLKZuL1hdLFYgzEpq43Fk6EE/Zb9UQNwL92CBGRMWsyWfs5bxFdcBVgsTdrCeQWARUWmxFe6rKCHRUDBr+gR8ZmZTZ0oecj5xk8W0Bos5MCcTTfmpzsoClJVBMo2lSa0meFoD7qUrf3B2cGDoxzjO5Uk7rRxNiyCEBbAoT/dZTOaZ9MINURkfPoq5MilOT7va3BeurMkXZniPtPhdHMc9dVjSc8yaID7GpB5Fsx9tY20nZZFt9MmupFgdQMAeg8ZxrO/o8iTSKtN5sYKHgv/ZULgWhetBmpxDGMlxVmc7XAEkaBskn9sKS1BENphAV+Yrq3SsLBsATkKVvV6PhUmWwJji6eTfguI+jK7grDAEsTyzKtAKi4Q5Wh99iFMtBaaS1bEyWFDntd8W/UvV5jEuiVDR+32KCYIGGNodHvncCRaqolhYr0D5eoFC2xV2KImiamvG0FZcnd7LYKkqQ7sQrFaUE3LtnzhvzRjHoCxXBVTNUHw8FHCjsoCFqvCcOueko/qkSNmPu8Bi6OEcVpXEPTnEeWd2zQYz5U6ZCoyFgGblCGmhm5TFd+zbMlCXVkNIuyQ6JHAjLJZB6EAOH+vaglTMQajX5TUw4xAsQ0SmbXENXyuyDm8IU47CArT2LkTpjKAwp2UxYOugCGXDSx1vNXhQYCr/5bBUtWrl0vNyKIrBxoJ8e5yKq4MKqYth78tgqapGTXaYsU5FwS0UgwireFfYodT9ZMYx0BAsATXzgGNdYW+3W22c9s8oXzz5ClP+BGvjYGvCWiFVswk4pmwXWM6CoO7fb/1X27WONdiQU+oDWzREkVtShZtgYxZDZb8MFqryPUPrfOyrAvY8K8c8k2YJmcXQPov+ynFaQ07rlRX22QCjUlbH1BhozITVgzbBWu8eshrbb78EdghVacb4a5XFMb4lE4q8tIHVSaGBOOdlFvLRYcgr+4yqoYiHsKwUUzox2CZPbzMXuPYp2C6qhky4Cyi+p/mrLuo2pWloAY8Ae2UxuwnNZJocx6d+Xb4/HHMiqq4NQ9uUxXlGbcxEPgR7Pe+/20jJOo6muFWhm7xlH3X5PE3oDQJ7u5399rSY0wiBhjxul76ELCUdVRd1KQKnjphTa265r7pvgFXQUC7I9k0bPHR9qFUX97HvN9rno24WFv3+kcmBhw25/UKB+1osc7khVbvChpxVk8IadDDbyOnlI8OQh9U+wjGNDWCT4fTKGjH1jWz4Ygo3QISmktbaYrBdug9ZPKwmqqGmBVZwtQIN/h9RF+kePisWXdFT00FBWcbffT1zpawG3jFgu76q4H1g1Zy5bgSYELC+VcPn0YT7Oqs3Dj12cckCc3XdzjNttGTH39j/Ou7CSdl9BHbsVWsDrGYgu9bh7bjffGe/7AqMmw8xuQ6FkdYbV2O+7PGrtsSU70+q02yyMB9BccJunU+sEWy/xf+PDAVqzvoqvbUGHeuRREfBqmIoXG2a4FcTAfW6IYX1mHVYjzoq3oeL3BxWYm/icDOjXT6tD53xjEY1n1V1Qwpb0y2uqa/E9x2CtJIE5kQf5+xbOKH14Fi9QgrXJu9WXb2RPjjkpLo6iSYHZoFDYzwjKgrC+3Ux6VoOCuqisAVtps+29FCeuUlhXfwKhbWxSQotTxUOJtwUuKkFrdpD5Hf1JRX7DkfTNFSh1SL/Wr4vhWPBVKqFbTMZ6yCe6bv00PirYymDjz7AfypfwWf9oknyNmAFHGLMtX1Zx2A6whhwKPOJOqmqQWVx0PZdWxFrMtZJ2Ic0OaU2h0XvrJMGL0T5Mgu/b39gIFSH4Coek+UhddvAQy36KCxNWocjHKPTijms03Yf3DvQumTZ551iKB570BDAjJpisHw+nhV6XagVtou6dGAAjT3oGVgqjAiLIwBF0EwGn89fQ7DArSvv9ua20gjhsvIVWrxQ2Xf7SZ9G4LY5WyfuwfUmXm5sxmf7al/rq0G6hFk5g3IGQki7z+fRzbx9wPHWqi2sBzZUhNRthY1VAA8L7eDC7AUvOYdatg9Ml2sVWOuC73LjlJryQ7AKWm0v1dqlid88+Mju5S6QvIaw+l4jz4U2J/aGDYLKrw/wYW2vsPeBarOuUIPrb1xQ3c6wjZD35vQmHDKhIeDsPf4y+qXYuGzeMvfXlVtaWR8At8KqqeAeQbOVWnBT8DNvj3ZtmJ/G5QpDA6z++kEjLFqOBZDccEjlcK72mzNZ7jcwvAIUIuDZKE17eRlXY0hsheWvg+Bi7sbA1hJAVb8aUvZZ/k7FK2CDJmx2Y6uFQKhGWLQe9s1gEwKh+TswgMVx7nXlr4+8AhQQgMXr8+g2LHac5RDE4619tmv/efV1NGNucYUIsDSU0OdWM341QN/naVABC+SmJm5I5DHcF5//A9XrhHoB+z03AAAAAElFTkSuQmCC;" vertex="1" parent="3">
                    <mxGeometry x="40" y="260" width="59" height="91" as="geometry"/>
                </mxCell>
                <mxCell id="9" value="" style="shape=image;verticalLabelPosition=bottom;labelBackgroundColor=default;verticalAlign=top;aspect=fixed;imageAspect=0;image=data:image/png,iVBORw0KGgoAAAANSUhEUgAAADsAAABaCAYAAAAGjS5MAAAAAXNSR0IArs4c6QAADLZJREFUeF7FnK2PI8sVxe+gSGEe+pgXRQrz0jAvihTm/RNs+tgMs5bNskencdCaRQraZkPHLFLQa7ZS0DSLFDTRuV2nfOu6qr/s2SnpvfXY7e7+1blfVdXlG/ny5VXeub3+dd97Bzf//HKVO7x5T9ghSE94KfS7wI6GXG5FmkoE/7LhbxGZA/7TYUeDgoiQAdBDTwX+qbCDoF7B1XeR9tCpy+aOmQI8Cfb1R08gacLd1CLH8BK3CANcrcMbDyPiDGAWm+5AA9rUW1muKxF2AI4Jn48FHgVLyJ3pYN72CjD4z7iVNCLHAL0F6DJQ51itUvicoMdP8ehDtZHN9tCZNT7HZ4BGO34a7b+DsAA9ViLgXG9Dj7ubrptGVvVRthlgdITKaz/rERhgaLtDLY+bziQsaPP1kCrcVNeBjaDrlayXS1ktF7LcrESWkIqWVktdN3IGDLMO6qrqOVhGWwajxUYAo4I1rQKjAVqBRURVflh0F58AisOLynrQ9Xopi9UyAY3ETSOHr7W01eGkbvBhmLOq+ywiH8O//KKFDWbZBsBFUPX29nOn7mqpHU5onmKsvw7CwkdhulFRVeCkqoVtDkep76tOQPwvKKsqMUgF343BxqaWEHjaetF1KuLTsZG2aVVldPaHXSUv31v9bApk7JhcBfX6tJcKJrheyd1adenMNyqSmjFvCKa8rY9d9O0sUMHh82jRnK3CLpW0zV0WdnO3lpu//+d0DzNeZc0YJqyR18Aulp2fsNdtz6t6TXvyW94I/TREZ+0E9BPO/SySKMxcunjsvg0LahqBxXytu2RW/eVvMxBPXynDNl1QUkUIaoGdOcPXkkBFMF6rEbWWJBVR4eVWdp+P8vhwFFk8qvnyXPg63ofi2sFNKx/+98ss6Dzs0152coIlMNQtBimtAWq5r+ouDXlYqF91/qufodHUn0OURcSFskFVHLLbVV0n3IO664i5wHnY/V52Id30gjYsm9JgUiMq+0JD7bCzYC1CAvDtMaSRjFaIwNpx/AzfCcC3//7jZHXnwTZNEilVJAMu4QZjVWVKSfVvEfm06CABhEaXwXkeH7eq7u7TveBcwYtFDOwcdbOwz/u9VAVlaUYaQxihC+kIxyDAfAyFgpeCFRLfZ4cdjo28vHzTALX7sOtgmc4uMOVeWPY4AhSjMXp0yHcTqBBRAWzhbHVkrQKgaIA97Cqtol7a9u1gH/d79SuqOyYaFx0omDcqrMTUUfoFMJgyXxMUqqLdfryXTdsKLBsO336bH5Wzym73e7UawFp18TqqqnacqaZInQlezJc4xMLxK78/bgVlIqP6w3at0V391sCyiPn8y58nBakiLDBx/lxUVugQWEpXg2/bhhss+e7z3Sa6icKJaOVG00d0J2zz0MVmFDFXgdV4ENQFNIFpzlR4TLcCki0Hy2jMYxCV6c/oBLWGoCxrdR77prC8iPdhr6DvBKiARoiHtu3chCO/EGkPy27QYYOhhT1I+jmqrCnAvYN3ry7yn009OWUJ5j/bVId0TBtGRQlwJQIzZZ2t54CqoRprlttkPA3fnpJvB2HjtAvKwW/diMQDjwa0PWDGu1pCBnWb9ckntcAIM1pw5Q2uH8a5ONVVYa3v4rWNziV/VQVZ+45x6lpkhyowfAewVNaCrh+2aX43VdzYgcHgHBRM2aqr9z8FZgjYwcJvOS7WqIvIHyYQ6Ms+RlwdFhcgdLzYpdABFOdj/YvIjwkAtaTCJB+LE9bTOHZMoBpUlqbsQc28xTylw2RcnFsOcJxzjqnIzGgmE3B367SoaZrBmYzRsFTW/htT0ZCpus8BxP84fOPfquiX06rd4rff4sgodxmOkFBeInD2Df1GwVJdD5qoOwLYqqYROHyHc++HxULaX3+NZ9o+/UOHfjqz6aIwcixaHBKGEVaf/46GtcAjuCYdAkg2wn778S/BJBtmKmzT6dTHrY518Zr+y4lBBLGSupNgYVK5hlFJErFLgavugg5UtYA4J87BBjMmLEZLXlkcpwN70zBoYA1wFVikIdv8DU+SMxzMjtK55fCemnuY2bQjJbwNBZd3mwQWIygOJvoqqtHKMt+qOVvletTqgyeknsus/AEYsGq8YbYkrkbgvTCs5EoBrwFYtIt9FoN5u1QTVXDQuBij6r3xQwtNc9W86mcZ+Z5JSwBms+tNGNSj2dmPoVw7StlXmK+dGg0xIwsN4Po0oYYbwrTKrYHXaZYAimPR4mqfmZxDGcmVQzsawjKIBR2CZGcNwhJ0V0s3gGYzq3TxZgvKvqxaNVUCY4hn09YZKE4YqisEK6QgtktWBYZhn/aqFPqSQ60EOCjJ92jGNnh9D5GW06c4lu/FJZF0YiOB7fP9KZ+NgoWqajaZWX5drQuNJmmh8BGURLN+nMwY+js2Qc9WU1PAcsf2wmI1j48LQLEsrD1rMG3rn/jYmzGVjc9a8BwG0p72WsCDsOqrSOJmzKkrcbk2AVanR000ZrFh/R+vNQ2ZWvkSdUfNVCAXKrSvjDx0HyzmgN26DvzWDgD8yIq19LWAe2GxDMIAUuGpHPuYT6mLTdTlIWrGGVjmXE7bUkl7anbGNdQtwioorurSDRQeevDFByhC+fLS5tu4fBlMNwa9K5pyP2xmQVl7PwSSkrilIv8MNigezxOivh/Aw5/fTNmoagFWb64QOfGRh2IR4RWneQ/BXsuUz5QtguKObOLnqrmpmqjIaNhNm54zdKL33TeDPauD2e0FUO9bOeCisiNgOQrCeXcXpqBE2WxQmgBLRTxwL2zBYniON4NVVUuh1j0q4IOTzYneDJk/rc+qvzJP97iHhb0030ZlbU49i7IDJmzhPDQropijc9VXZhDAc74J7DVUzUETNkIPDCYY6SPsukt1aJx6m5uGVNlLVPU5MVfiJUsoOdieSK+DfDtzcUHOVdhRqpq0YCOwNflSLWvnr4rmXHKVDKyqPCMyd7BP+1OwsHffEzj6AlTuRs4WyHwg7IM1VVuckJsD+yrymswv5WBdAdGnbKnHJ6nL65lRFkvUy2DX0u3Yyg3XnOn2pZcxpoVZShudz9KcV5f+HYaOGFPbueWppnzzClgLmkkDPgj54mHsRb26Ct5nzhTBweozWjP8toO1zZhssugcImIuj46FxWXOzFnfdBGAHW6LjjDb6BfDply7gzU+wpzGy6vZ+BkKM4M/p0jngymcd44zjLwoYL21FWDHuA9Pq7DJRLVJ4j7i+iVKgk4t46gupnvitUv5N+RgBigoy+tODVZRWVt4Q0mvMP20FImnmJM1Z64b6S6RnurK3g8rqanB6iamHre45IGTFbZAfMmEWJJ3w2NBZ8CZOWk1WxOVbecPdfjNs8hr9MuRwDmVp5qyVTepqnw2II2LE0xh9l6G7uFULpo5XG/SfknR+jKPnZMKssA+UOBvkyFowvRdfy99A/zTQMBG3YzCFjiJ1G5aZsiUcixc5GZaKT2JEzczmpPkBiIl4DiejdMxGbPJ+as3Zf49B5YK0zR5PR/9fd4vBcvSFE46eHfqWiB7Ydub/vVc2BxwNscj/2ZmTcYonMxBqbojgUupaChI5MzYvkeT5lROsviVK2sLgxTenzXp/ISbBXYBwvagV3tONeXh7UMqPH98hqNvSseWuWZV4aMZCp7NG5+pa3y45CM+Il5TXZ57DvCNG/OWJ8m9uk5hD2g74lJY+i9NmdZUBC74sFUV58yu9RTVzaicg/YXGfLT0ue2ykoGDfhCz/gbx+buIQsbJ8tz6vo7y/jKtWC9wrx0DFqFgHXYbrKP5A4vWU55prgWKV1orroWmFVTETZcH9/JPS40DDtG3eDPAC1d6BJYAuvOTZ6IIjDvGlA8M5Xb9zO88u5P7u4aJVwTIPHY3dTtJ1M6gdvmPDAetY8mHjY042//aN/go0HJEqYJUAgChPT7fKZsP5kCa4/FU6u+8T6gak7dQdjSzeBiuR1ceAwW20hzPTsXrO8ecoriPW6/sb47C9aCJhsReeXlUvfczNm9PKVDqK59rpHfz21OnAybBeVuS7OzEuqO3YIyBdCbMkH9Rkj7GxdUdzRsLyTvIGwMzpnQXKC+7/3+hx/dxiazfyAeHzoenc7IPAhrTQUnypqtuSNuCr7k6dGxHfPyp//qoX2w9tcPemHRc2yA5PZQu/cu+c0Z7FHfVRf/eMYYWIiAaytsz15e7uNFShyExTP62GyAg7kbA3tpAMVNCHyUnTuaf4aqWRN2u7Ftp0GoXlj0HraSYBMCobFzmbB4n/vj+IshPwMUEIDFrynAbXz6YZ5lCmKKHPTZMSb1HsfQjLm9BSLA0tByrwfN+D0gplzTVlGwQG5qsj/wYV//HzyMzVFjGcutAAAAAElFTkSuQmCC;flipH=1;" vertex="1" parent="3">
                    <mxGeometry x="570" y="260" width="59" height="90" as="geometry"/>
                </mxCell>
                <mxCell id="10" value="Player 1" style="rounded=1;whiteSpace=wrap;html=1;" vertex="1" parent="3">
                    <mxGeometry x="14.5" y="230" width="110" height="30" as="geometry"/>
                </mxCell>
                <mxCell id="11" value="Player 2" style="rounded=1;whiteSpace=wrap;html=1;" vertex="1" parent="3">
                    <mxGeometry x="544.5" y="230" width="110" height="30" as="geometry"/>
                </mxCell>
                <mxCell id="12" value="" style="rounded=0;whiteSpace=wrap;html=1;fillColor=#60a917;fontColor=#ffffff;strokeColor=#2D7600;" vertex="1" parent="3">
                    <mxGeometry y="100" width="330" height="30" as="geometry"/>
                </mxCell>
                <mxCell id="13" value="" style="rounded=0;whiteSpace=wrap;html=1;fillColor=#60a917;fontColor=#ffffff;strokeColor=#2D7600;" vertex="1" parent="3">
                    <mxGeometry x="430" y="100" width="250" height="30" as="geometry"/>
                </mxCell>
                <mxCell id="14" value="" style="rounded=0;whiteSpace=wrap;html=1;fillColor=#a20025;fontColor=#ffffff;strokeColor=#6F0000;" vertex="1" parent="3">
                    <mxGeometry x="370" y="100" width="60" height="30" as="geometry"/>
                </mxCell>
                <mxCell id="15" value="Player 1 Health&lt;span style=&quot;color: rgba(0, 0, 0, 0); font-family: monospace; font-size: 0px; text-align: start;&quot;&gt;%3CmxGraphModel%3E%3Croot%3E%3CmxCell%20id%3D%220%22%2F%3E%3CmxCell%20id%3D%221%22%20parent%3D%220%22%2F%3E%3CmxCell%20id%3D%222%22%20value%3D%22%22%20style%3D%22rounded%3D0%3BwhiteSpace%3Dwrap%3Bhtml%3D1%3BfillColor%3D%2360a917%3BfontColor%3D%23ffffff%3BstrokeColor%3D%232D7600%3B%22%20vertex%3D%221%22%20parent%3D%221%22%3E%3CmxGeometry%20x%3D%22460%22%20y%3D%22150%22%20width%3D%22250%22%20height%3D%2230%22%20as%3D%22geometry%22%2F%3E%3C%2FmxCell%3E%3C%2Froot%3E%3C%2FmxGraphModel%3E&lt;/span&gt;" style="rounded=0;whiteSpace=wrap;html=1;" vertex="1" parent="3">
                    <mxGeometry y="70" width="170" height="30" as="geometry"/>
                </mxCell>
                <mxCell id="16" value="Player 2 Health" style="rounded=0;whiteSpace=wrap;html=1;" vertex="1" parent="3">
                    <mxGeometry x="510" y="70" width="170" height="30" as="geometry"/>
                </mxCell>
                <mxCell id="18" value="When the other sides health depletes you win." style="rounded=0;whiteSpace=wrap;html=1;" vertex="1" parent="3">
                    <mxGeometry x="280" y="40" width="140" height="50" as="geometry"/>
                </mxCell>
            </root>
        </mxGraphModel>
    </diagram>
</mxfile>